advent_pro_fmm_thn_it.ufo
<glyph name="dollar" format="2">
  <advance width="534"/>
  <unicode hex="0024"/>
  <outline>
    <contour>
      <point x="507" y="651" type="curve"/>
      <point x="517" y="669" type="line"/>
      <point x="476" y="694"/>
      <point x="420" y="707"/>
      <point x="365" y="707" type="curve" smooth="yes"/>
      <point x="310" y="707"/>
      <point x="255" y="695"/>
      <point x="211" y="669" type="curve" smooth="yes"/>
      <point x="166" y="642"/>
      <point x="132" y="602"/>
      <point x="118" y="547" type="curve" smooth="yes"/>
      <point x="98" y="459"/>
      <point x="167" y="416"/>
      <point x="249" y="381" type="curve" smooth="yes"/>
      <point x="282" y="365"/>
      <point x="318" y="352"/>
      <point x="350" y="338" type="curve" smooth="yes"/>
      <point x="424" y="304"/>
      <point x="484" y="262"/>
      <point x="470" y="178" type="curve" smooth="yes"/>
      <point x="461" y="124"/>
      <point x="435" y="85"/>
      <point x="399" y="57" type="curve" smooth="yes"/>
      <point x="351" y="21"/>
      <point x="281" y="7"/>
      <point x="238" y="7" type="curve" smooth="yes"/>
      <point x="174" y="7"/>
      <point x="115" y="24"/>
      <point x="87" y="47" type="curve" smooth="yes"/>
      <point x="36" y="87"/>
      <point x="29" y="142"/>
      <point x="29" y="142" type="curve"/>
      <point x="13" y="132" type="line"/>
      <point x="13" y="132"/>
      <point x="21" y="75"/>
      <point x="74" y="32" type="curve" smooth="yes"/>
      <point x="105" y="7"/>
      <point x="166" y="-13"/>
      <point x="234" y="-13" type="curve" smooth="yes"/>
      <point x="295" y="-13"/>
      <point x="362" y="7"/>
      <point x="410" y="43" type="curve" smooth="yes"/>
      <point x="453" y="76"/>
      <point x="482" y="121"/>
      <point x="491" y="177" type="curve" smooth="yes"/>
      <point x="507" y="268"/>
      <point x="440" y="317"/>
      <point x="360" y="355" type="curve" smooth="yes"/>
      <point x="327" y="371"/>
      <point x="292" y="384"/>
      <point x="261" y="398" type="curve" smooth="yes"/>
      <point x="152" y="443"/>
      <point x="126" y="483"/>
      <point x="136" y="542" type="curve" smooth="yes"/>
      <point x="145" y="593"/>
      <point x="184" y="637"/>
      <point x="224" y="658" type="curve" smooth="yes"/>
      <point x="270" y="681"/>
      <point x="318" y="691"/>
      <point x="363" y="690" type="curve" smooth="yes"/>
      <point x="422" y="690"/>
      <point x="474" y="673"/>
    </contour>
    <contour>
      <point x="208" y="-113" type="line"/>
      <point x="227" y="-113" type="line"/>
      <point x="390" y="815" type="line"/>
      <point x="371" y="815" type="line"/>
    </contour>
  </outline>
</glyph>
<glyph name="percent" format="2">
  <advance width="712"/>
  <unicode hex="0025"/>
  <outline>
    <contour>
      <point x="13" y="0" type="line"/>
      <point x="39" y="0" type="line"/>
      <point x="699" y="698" type="line"/>
      <point x="673" y="698" type="line"/>
    </contour>
    <contour>
      <point x="243" y="712" type="curve" smooth="yes"/>
      <point x="162" y="712"/>
      <point x="86" y="647"/>
      <point x="71" y="566" type="curve" smooth="yes"/>
      <point x="57" y="486"/>
      <point x="111" y="421"/>
      <point x="192" y="421" type="curve" smooth="yes"/>
      <point x="272" y="421"/>
      <point x="348" y="486"/>
      <point x="362" y="566" type="curve" smooth="yes"/>
      <point x="377" y="647"/>
      <point x="323" y="712"/>
    </contour>
    <contour>
      <point x="240" y="692" type="curve" smooth="yes"/>
      <point x="309" y="692"/>
      <point x="355" y="636"/>
      <point x="342" y="566" type="curve" smooth="yes"/>
      <point x="330" y="497"/>
      <point x="264" y="441"/>
      <point x="195" y="441" type="curve" smooth="yes"/>
      <point x="125" y="441"/>
      <point x="79" y="497"/>
      <point x="91" y="566" type="curve" smooth="yes"/>
      <point x="104" y="636"/>
      <point x="170" y="692"/>
    </contour>
    <contour>
      <point x="525" y="276" type="curve" smooth="yes"/>
      <point x="446" y="276"/>
      <point x="370" y="211"/>
      <point x="356" y="131" type="curve" smooth="yes"/>
      <point x="341" y="51"/>
      <point x="395" y="-14"/>
      <point x="474" y="-14" type="curve" smooth="yes"/>
      <point x="555" y="-14"/>
      <point x="630" y="51"/>
      <point x="645" y="131" type="curve" smooth="yes"/>
      <point x="659" y="211"/>
      <point x="606" y="276"/>
    </contour>
    <contour>
      <point x="522" y="256" type="curve" smooth="yes"/>
      <point x="592" y="256"/>
      <point x="638" y="200"/>
      <point x="626" y="131" type="curve" smooth="yes"/>
      <point x="613" y="62"/>
      <point x="548" y="7"/>
      <point x="478" y="7" type="curve" smooth="yes"/>
      <point x="410" y="7"/>
      <point x="363" y="62"/>
      <point x="376" y="131" type="curve" smooth="yes"/>
      <point x="388" y="200"/>
      <point x="454" y="256"/>
    </contour>
  </outline>
</glyph>
<glyph name="ampersand" format="2">
  <advance width="555"/>
  <unicode hex="0026"/>
  <outline>
    <contour>
      <point x="486" y="681" type="curve"/>
      <point x="499" y="702" type="line"/>
      <point x="499" y="702"/>
      <point x="388" y="702"/>
      <point x="330" y="702" type="curve" smooth="yes"/>
      <point x="237" y="702"/>
      <point x="174" y="639"/>
      <point x="162" y="553" type="curve" smooth="yes"/>
      <point x="154" y="497"/>
      <point x="179" y="436"/>
      <point x="246" y="403" type="curve"/>
      <point x="242" y="403"/>
      <point x="233" y="403"/>
      <point x="228" y="403" type="curve" smooth="yes"/>
      <point x="93" y="403"/>
      <point x="59" y="318"/>
      <point x="47" y="254" type="curve"/>
      <point x="47" y="254"/>
      <point x="31" y="161"/>
      <point x="31" y="161" type="curve"/>
      <point x="3" y="4"/>
      <point x="122" y="-9"/>
      <point x="196" y="-4" type="curve" smooth="yes"/>
      <point x="259" y="0"/>
      <point x="337" y="36"/>
      <point x="374" y="108" type="curve"/>
      <point x="369" y="46"/>
      <point x="396" y="10"/>
      <point x="458" y="-9" type="curve"/>
      <point x="466" y="9" type="line"/>
      <point x="404" y="31"/>
      <point x="382" y="63"/>
      <point x="394" y="136" type="curve" smooth="yes"/>
      <point x="438" y="382" type="line"/>
      <point x="528" y="382" type="line"/>
      <point x="541" y="403" type="line"/>
      <point x="442" y="403" type="line"/>
      <point x="460" y="505" type="line"/>
      <point x="444" y="505" type="line"/>
      <point x="426" y="403" type="line"/>
      <point x="377" y="403"/>
      <point x="328" y="403"/>
      <point x="319" y="403" type="curve" smooth="yes"/>
      <point x="263" y="403"/>
      <point x="168" y="459"/>
      <point x="185" y="554" type="curve" smooth="yes"/>
      <point x="195" y="628"/>
      <point x="252" y="681"/>
      <point x="331" y="681" type="curve" smooth="yes"/>
      <point x="371" y="681"/>
      <point x="486" y="681"/>
    </contour>
    <contour>
      <point x="422" y="382" type="curve"/>
      <point x="385" y="173" type="line" smooth="yes"/>
      <point x="371" y="91"/>
      <point x="296" y="20"/>
      <point x="199" y="13" type="curve" smooth="yes"/>
      <point x="91" y="5"/>
      <point x="30" y="47"/>
      <point x="50" y="159" type="curve" smooth="yes"/>
      <point x="51" y="165"/>
      <point x="65" y="248"/>
      <point x="66" y="251" type="curve"/>
      <point x="79" y="326"/>
      <point x="119" y="382"/>
      <point x="222" y="382" type="curve" smooth="yes"/>
      <point x="240" y="382"/>
      <point x="335" y="382"/>
    </contour>
  </outline>
</glyph>
<glyph name="quotesingle" format="2">
  <advance width="92"/>
  <unicode hex="0027"/>
  <outline>
    <contour>
      <point x="46" y="722" type="curve" smooth="yes"/>
      <point x="28" y="587" type="line"/>
      <point x="44" y="587" type="line"/>
      <point x="75" y="722" type="line"/>
      <point x="78" y="741"/>
      <point x="49" y="741"/>
    </contour>
  </outline>
</glyph>
<glyph name="parenleft" format="2">
  <advance width="276"/>
  <unicode hex="0028"/>
  <outline>
    <contour>
      <point x="266" y="798" type="curve"/>
      <point x="259" y="813" type="line"/>
      <point x="178" y="766"/>
      <point x="141" y="723"/>
      <point x="124" y="625" type="curve" smooth="yes"/>
      <point x="26" y="69" type="line" smooth="yes"/>
      <point x="8" y="-29"/>
      <point x="30" y="-72"/>
      <point x="95" y="-119" type="curve"/>
      <point x="109" y="-101" type="line"/>
      <point x="83" y="-80"/>
      <point x="24" y="-50"/>
      <point x="44" y="65" type="curve" smooth="yes"/>
      <point x="59" y="153"/>
      <point x="88" y="316"/>
      <point x="144" y="635" type="curve" smooth="yes"/>
      <point x="161" y="728"/>
      <point x="203" y="759"/>
    </contour>
  </outline>
</glyph>
<glyph name="parenright" format="2">
  <advance width="277"/>
  <unicode hex="0029"/>
  <outline>
    <contour>
      <point x="169" y="798" type="curve"/>
      <point x="182" y="813" type="line"/>
      <point x="248" y="766"/>
      <point x="269" y="723"/>
      <point x="252" y="625" type="curve" smooth="yes"/>
      <point x="154" y="69" type="line" smooth="yes"/>
      <point x="136" y="-29"/>
      <point x="100" y="-72"/>
      <point x="18" y="-119" type="curve"/>
      <point x="11" y="-101" type="line"/>
      <point x="43" y="-80"/>
      <point x="114" y="-50"/>
      <point x="134" y="65" type="curve" smooth="yes"/>
      <point x="149" y="153"/>
      <point x="178" y="316"/>
      <point x="234" y="635" type="curve" smooth="yes"/>
      <point x="251" y="728"/>
      <point x="218" y="759"/>
    </contour>
  </outline>
</glyph>
<glyph name="asterisk" format="2">
  <advance width="327"/>
  <unicode hex="002A"/>
  <outline>
    <contour>
      <point x="34" y="612" type="line"/>
      <point x="24" y="592" type="line"/>
      <point x="144" y="546" type="line"/>
      <point x="46" y="440" type="line"/>
      <point x="62" y="427" type="line"/>
      <point x="158" y="536" type="line"/>
      <point x="221" y="427" type="line"/>
      <point x="239" y="440" type="line"/>
      <point x="176" y="546" type="line"/>
      <point x="314" y="592" type="line"/>
      <point x="310" y="612" type="line"/>
      <point x="171" y="561" type="line"/>
      <point x="197" y="698" type="line"/>
      <point x="175" y="698" type="line"/>
      <point x="151" y="561" type="line"/>
    </contour>
  </outline>
</glyph>
<glyph name="hyphen" format="1">
  <advance width="367"/>
  <unicode hex="002D"/>
  <outline>
    <contour>
      <point x="26" y="393" type="line"/>
      <point x="345" y="393" type="line"/>
      <point x="348" y="413" type="line"/>
      <point x="29" y="413" type="line"/>
    </contour>
  </outline>
</glyph>
<glyph name="period" format="2">
  <advance width="87"/>
  <unicode hex="002E"/>
  <outline>
    <contour>
      <point x="36" y="30" type="curve" smooth="yes"/>
      <point x="28" y="30"/>
      <point x="18" y="22"/>
      <point x="17" y="13" type="curve"/>
      <point x="15" y="3"/>
      <point x="22" y="-4"/>
      <point x="30" y="-4" type="curve" smooth="yes"/>
      <point x="40" y="-4"/>
      <point x="49" y="3"/>
      <point x="51" y="13" type="curve"/>
      <point x="52" y="22"/>
      <point x="46" y="30"/>
    </contour>
  </outline>
</glyph>
<glyph name="slash" format="2">
  <advance width="527"/>
  <unicode hex="002F"/>
  <outline>
    <contour>
      <point x="11" y="-113" type="line"/>
      <point x="31" y="-113" type="line"/>
      <point x="517" y="815" type="line"/>
      <point x="497" y="815" type="line"/>
    </contour>
  </outline>
</glyph>
<glyph name="five" format="2">
  <advance width="445"/>
  <unicode hex="0035"/>
  <outline>
    <contour>
      <point x="110" y="411" type="curve"/>
      <point x="185" y="678" type="line"/>
      <point x="433" y="678" type="line"/>
      <point x="437" y="698" type="line"/>
      <point x="172" y="698" type="line"/>
      <point x="86" y="393" type="line"/>
      <point x="202" y="393" type="line" smooth="yes"/>
      <point x="360" y="393"/>
      <point x="402" y="297"/>
      <point x="385" y="199" type="curve" smooth="yes"/>
      <point x="363" y="76"/>
      <point x="254" y="7"/>
      <point x="159" y="7" type="curve" smooth="yes"/>
      <point x="71" y="7"/>
      <point x="4" y="59"/>
      <point x="4" y="59" type="curve"/>
      <point x="-7" y="42" type="line"/>
      <point x="-7" y="42"/>
      <point x="61" y="-12"/>
      <point x="156" y="-12" type="curve" smooth="yes"/>
      <point x="270" y="-12"/>
      <point x="382" y="74"/>
      <point x="403" y="198" type="curve" smooth="yes"/>
      <point x="425" y="318"/>
      <point x="367" y="413"/>
      <point x="204" y="413" type="curve" smooth="yes"/>
      <point x="194" y="413"/>
      <point x="121" y="411"/>
    </contour>
  </outline>
</glyph>
<glyph name="six" format="2">
  <advance width="462"/>
  <unicode hex="0036"/>
  <outline>
    <contour>
      <point x="336" y="679" type="curve" smooth="yes"/>
      <point x="374" y="679" type="line"/>
      <point x="377" y="697" type="line"/>
      <point x="343" y="697" type="line" smooth="yes"/>
      <point x="254" y="697"/>
      <point x="176" y="662"/>
      <point x="132" y="614" type="curve" smooth="yes"/>
      <point x="90" y="568"/>
      <point x="68" y="517"/>
      <point x="58" y="462" type="curve" smooth="yes"/>
      <point x="12" y="202" type="line" smooth="yes"/>
      <point x="2" y="143"/>
      <point x="14" y="92"/>
      <point x="49" y="52" type="curve" smooth="yes"/>
      <point x="82" y="11"/>
      <point x="129" y="-10"/>
      <point x="187" y="-10" type="curve" smooth="yes"/>
      <point x="247" y="-10"/>
      <point x="299" y="11"/>
      <point x="348" y="53" type="curve" smooth="yes"/>
      <point x="397" y="94"/>
      <point x="427" y="143"/>
      <point x="437" y="202" type="curve" smooth="yes"/>
      <point x="448" y="261"/>
      <point x="435" y="311"/>
      <point x="401" y="352" type="curve" smooth="yes"/>
      <point x="367" y="393"/>
      <point x="320" y="414"/>
      <point x="260" y="414" type="curve" smooth="yes"/>
      <point x="184" y="414"/>
      <point x="102" y="377"/>
      <point x="47" y="288" type="curve"/>
      <point x="76" y="450" type="line" smooth="yes"/>
      <point x="92" y="540"/>
      <point x="131" y="598"/>
      <point x="182" y="631" type="curve" smooth="yes"/>
      <point x="228" y="662"/>
      <point x="280" y="679"/>
    </contour>
    <contour>
      <point x="258" y="395" type="curve" smooth="yes"/>
      <point x="365" y="395"/>
      <point x="436" y="308"/>
      <point x="417" y="201" type="curve" smooth="yes"/>
      <point x="398" y="95"/>
      <point x="297" y="9"/>
      <point x="190" y="9" type="curve" smooth="yes"/>
      <point x="84" y="9"/>
      <point x="13" y="95"/>
      <point x="32" y="201" type="curve" smooth="yes"/>
      <point x="51" y="308"/>
      <point x="152" y="395"/>
    </contour>
  </outline>
</glyph>
<glyph name="seven" format="2">
  <advance width="473"/>
  <unicode hex="0037"/>
  <outline>
    <contour>
      <point x="12" y="0" type="line"/>
      <point x="491" y="678" type="line"/>
      <point x="495" y="698" type="line"/>
      <point x="104" y="698" type="line"/>
      <point x="100" y="678" type="line"/>
      <point x="468" y="678" type="line"/>
      <point x="-8" y="0" type="line"/>
    </contour>
  </outline>
</glyph>
<glyph name="colon" format="2">
  <advance width="119"/>
  <unicode hex="003A"/>
  <outline>
    <contour>
      <point x="54" y="143" type="curve"/>
      <point x="55" y="153"/>
      <point x="49" y="159"/>
      <point x="40" y="159" type="curve" smooth="yes"/>
      <point x="31" y="159"/>
      <point x="21" y="153"/>
      <point x="20" y="143" type="curve"/>
      <point x="18" y="134"/>
      <point x="25" y="127"/>
      <point x="34" y="127" type="curve" smooth="yes"/>
      <point x="43" y="127"/>
      <point x="52" y="134"/>
    </contour>
    <contour>
      <point x="96" y="384" type="curve" smooth="yes"/>
      <point x="98" y="393"/>
      <point x="91" y="400"/>
      <point x="82" y="400" type="curve" smooth="yes"/>
      <point x="73" y="400"/>
      <point x="64" y="393"/>
      <point x="62" y="384" type="curve" smooth="yes"/>
      <point x="60" y="374"/>
      <point x="67" y="367"/>
      <point x="76" y="367" type="curve" smooth="yes"/>
      <point x="85" y="367"/>
      <point x="94" y="374"/>
    </contour>
  </outline>
</glyph>
<glyph name="semicolon" format="2">
  <advance width="141"/>
  <unicode hex="003B"/>
  <outline>
    <contour>
      <point x="15" y="68" type="curve"/>
      <point x="23" y="63" type="line"/>
      <point x="23" y="63"/>
      <point x="66" y="87"/>
      <point x="75" y="140" type="curve" smooth="yes"/>
      <point x="77" y="150"/>
      <point x="71" y="156"/>
      <point x="61" y="156" type="curve" smooth="yes"/>
      <point x="53" y="156"/>
      <point x="44" y="148"/>
      <point x="42" y="140" type="curve"/>
      <point x="41" y="132"/>
      <point x="44" y="125"/>
      <point x="50" y="123" type="curve"/>
      <point x="47" y="109"/>
      <point x="38" y="87"/>
    </contour>
    <contour>
      <point x="119" y="384" type="curve" smooth="yes"/>
      <point x="121" y="393"/>
      <point x="114" y="400"/>
      <point x="106" y="400" type="curve" smooth="yes"/>
      <point x="96" y="400"/>
      <point x="87" y="393"/>
      <point x="85" y="384" type="curve" smooth="yes"/>
      <point x="83" y="374"/>
      <point x="90" y="367"/>
      <point x="100" y="367" type="curve" smooth="yes"/>
      <point x="108" y="367"/>
      <point x="117" y="374"/>
    </contour>
  </outline>
</glyph>
<glyph name="question" format="2">
  <advance width="400"/>
  <unicode hex="003F"/>
  <outline>
    <contour>
      <point x="22" y="530" type="curve"/>
      <point x="41" y="530" type="line"/>
      <point x="60" y="639"/>
      <point x="150" y="689"/>
      <point x="227" y="689" type="curve" smooth="yes"/>
      <point x="322" y="689"/>
      <point x="372" y="616"/>
      <point x="358" y="535" type="curve" smooth="yes"/>
      <point x="348" y="482"/>
      <point x="323" y="446"/>
      <point x="270" y="393" type="curve" smooth="yes"/>
      <point x="185" y="310"/>
      <point x="136" y="293"/>
      <point x="117" y="187" type="curve" smooth="yes"/>
      <point x="105" y="119" type="line"/>
      <point x="123" y="119" type="line"/>
      <point x="123" y="119"/>
      <point x="132" y="168"/>
      <point x="137" y="193" type="curve" smooth="yes"/>
      <point x="150" y="271"/>
      <point x="178" y="288"/>
      <point x="273" y="373" type="curve" smooth="yes"/>
      <point x="324" y="419"/>
      <point x="363" y="463"/>
      <point x="376" y="536" type="curve" smooth="yes"/>
      <point x="395" y="646"/>
      <point x="317" y="705"/>
      <point x="230" y="707" type="curve" smooth="yes"/>
      <point x="142" y="708"/>
      <point x="43" y="652"/>
    </contour>
    <contour>
      <point x="100" y="30" type="curve" smooth="yes"/>
      <point x="90" y="30"/>
      <point x="80" y="22"/>
      <point x="79" y="13" type="curve"/>
      <point x="77" y="3"/>
      <point x="84" y="-4"/>
      <point x="94" y="-4" type="curve" smooth="yes"/>
      <point x="102" y="-4"/>
      <point x="111" y="3"/>
      <point x="113" y="13" type="curve"/>
      <point x="114" y="22"/>
      <point x="108" y="30"/>
    </contour>
  </outline>
</glyph>
<glyph name="B" format="1">
  <advance width="510"/>
  <unicode hex="0042"/>
  <outline>
    <contour>
      <point x="344" y="698" type="curve" smooth="yes"/>
      <point x="124" y="698" type="line"/>
      <point x="1" y="0" type="line"/>
      <point x="231" y="0" type="line" smooth="yes"/>
      <point x="369" y="0"/>
      <point x="448" y="85"/>
      <point x="469" y="208" type="curve" smooth="yes"/>
      <point x="486" y="304"/>
      <point x="457" y="367"/>
      <point x="379" y="399" type="curve"/>
      <point x="379" y="403" type="line"/>
      <point x="434" y="422"/>
      <point x="481" y="480"/>
      <point x="491" y="538" type="curve" smooth="yes"/>
      <point x="510" y="642"/>
      <point x="453" y="698"/>
    </contour>
    <contour>
      <point x="329" y="411" type="curve" smooth="yes"/>
      <point x="92" y="411" type="line"/>
      <point x="139" y="679" type="line"/>
      <point x="332" y="679" type="line" smooth="yes"/>
      <point x="446" y="679"/>
      <point x="488" y="624"/>
      <point x="473" y="541" type="curve" smooth="yes"/>
      <point x="460" y="466"/>
      <point x="398" y="411"/>
    </contour>
    <contour>
      <point x="232" y="19" type="curve" smooth="yes"/>
      <point x="23" y="19" type="line"/>
      <point x="89" y="393" type="line"/>
      <point x="301" y="393" type="line" smooth="yes"/>
      <point x="415" y="393"/>
      <point x="470" y="319"/>
      <point x="450" y="205" type="curve" smooth="yes"/>
      <point x="429" y="90"/>
      <point x="352" y="19"/>
    </contour>
  </outline>
</glyph>
<glyph name="D" format="2">
  <advance width="523"/>
  <unicode hex="0044"/>
  <outline>
    <contour>
      <point x="312" y="698" type="curve" smooth="yes"/>
      <point x="124" y="698" type="line"/>
      <point x="1" y="0" type="line"/>
      <point x="209" y="0" type="line" smooth="yes"/>
      <point x="350" y="0"/>
      <point x="431" y="67"/>
      <point x="455" y="199" type="curve" smooth="yes"/>
      <point x="503" y="473" type="line" smooth="yes"/>
      <point x="527" y="609"/>
      <point x="462" y="698"/>
    </contour>
    <contour>
      <point x="202" y="20" type="curve" smooth="yes"/>
      <point x="23" y="20" type="line"/>
      <point x="139" y="678" type="line"/>
      <point x="318" y="678" type="line" smooth="yes"/>
      <point x="453" y="678"/>
      <point x="505" y="592"/>
      <point x="483" y="466" type="curve" smooth="yes"/>
      <point x="438" y="213" type="line" smooth="yes"/>
      <point x="412" y="63"/>
      <point x="330" y="20"/>
    </contour>
  </outline>
</glyph>
<glyph name="E" format="1">
  <advance width="441"/>
  <unicode hex="0045"/>
  <outline>
    <contour>
      <point x="1" y="0" type="line"/>
      <point x="332" y="0" type="line"/>
      <point x="335" y="19" type="line"/>
      <point x="23" y="19" type="line"/>
      <point x="89" y="393" type="line"/>
      <point x="310" y="393" type="line"/>
      <point x="319" y="411" type="line"/>
      <point x="92" y="411" type="line"/>
      <point x="139" y="679" type="line"/>
      <point x="453" y="679" type="line"/>
      <point x="457" y="698" type="line"/>
      <point x="124" y="698" type="line"/>
    </contour>
    <contour>
      <point x="220" y="0" type="move" name="ogonek"/>
    </contour>
    <contour>
      <point x="73" y="700" type="move" name="tonos"/>
    </contour>
    <contour>
      <point x="220" y="735" type="move" name="top"/>
    </contour>
  </outline>
</glyph>
<glyph name="F" format="1">
  <advance width="434"/>
  <unicode hex="0046"/>
  <outline>
    <contour>
      <point x="457" y="698" type="line"/>
      <point x="124" y="698" type="line"/>
      <point x="1" y="0" type="line"/>
      <point x="21" y="0" type="line"/>
      <point x="90" y="393" type="line"/>
      <point x="310" y="393" type="line"/>
      <point x="320" y="411" type="line"/>
      <point x="93" y="411" type="line"/>
      <point x="140" y="678" type="line"/>
      <point x="453" y="678" type="line"/>
    </contour>
  </outline>
</glyph>
<glyph name="I" format="2">
  <advance width="152"/>
  <unicode hex="0049"/>
  <outline>
    <contour>
      <point x="47" y="679" type="line"/>
      <point x="133" y="676" type="line"/>
      <point x="14" y="0" type="line"/>
      <point x="32" y="0" type="line"/>
      <point x="155" y="698" type="line"/>
      <point x="51" y="698" type="line"/>
    </contour>
  </outline>
</glyph>
<glyph name="J" format="2">
  <advance width="221"/>
  <unicode hex="004A"/>
  <outline>
    <contour>
      <point x="122" y="122" type="curve" smooth="yes"/>
      <point x="224" y="698" type="line"/>
      <point x="121" y="698" type="line"/>
      <point x="117" y="679" type="line"/>
      <point x="202" y="676" type="line"/>
      <point x="103" y="118" type="line" smooth="yes"/>
      <point x="89" y="35"/>
      <point x="49" y="-10"/>
      <point x="-13" y="-19" type="curve"/>
      <point x="-10" y="-37" type="line"/>
      <point x="29" y="-31"/>
      <point x="58" y="-15"/>
      <point x="80" y="12" type="curve" smooth="yes"/>
      <point x="100" y="37"/>
      <point x="113" y="73"/>
    </contour>
  </outline>
</glyph>
<glyph name="K" format="2">
  <advance width="466"/>
  <unicode hex="004B"/>
  <outline>
    <contour>
      <point x="74" y="307" type="line"/>
      <point x="143" y="698" type="line"/>
      <point x="124" y="698" type="line"/>
      <point x="1" y="0" type="line"/>
      <point x="20" y="0" type="line"/>
      <point x="69" y="279" type="line"/>
      <point x="186" y="402" type="line"/>
      <point x="376" y="0" type="line"/>
      <point x="397" y="0" type="line"/>
      <point x="202" y="417" type="line"/>
      <point x="468" y="698" type="line"/>
      <point x="446" y="698" type="line"/>
    </contour>
  </outline>
</glyph>
<glyph name="L" format="2">
  <advance width="387"/>
  <unicode hex="004C"/>
  <outline>
    <contour>
      <point x="1" y="0" type="line"/>
      <point x="361" y="0" type="line"/>
      <point x="364" y="20" type="line"/>
      <point x="23" y="20" type="line"/>
      <point x="143" y="698" type="line"/>
      <point x="124" y="698" type="line"/>
    </contour>
  </outline>
</glyph>
<glyph name="N" format="2">
  <advance width="612"/>
  <unicode hex="004E"/>
  <outline>
    <contour>
      <point x="615" y="698" type="line"/>
      <point x="598" y="698" type="line"/>
      <point x="480" y="32" type="line"/>
      <point x="142" y="698" type="line"/>
      <point x="124" y="698" type="line"/>
      <point x="1" y="0" type="line"/>
      <point x="19" y="0" type="line"/>
      <point x="136" y="668" type="line"/>
      <point x="475" y="0" type="line"/>
      <point x="492" y="0" type="line"/>
    </contour>
  </outline>
</glyph>
<glyph name="S" format="2">
  <advance width="514"/>
  <unicode hex="0053"/>
  <outline>
    <contour>
      <point x="490" y="651" type="curve"/>
      <point x="501" y="670" type="line"/>
      <point x="460" y="694"/>
      <point x="405" y="707"/>
      <point x="349" y="707" type="curve" smooth="yes"/>
      <point x="295" y="707"/>
      <point x="239" y="695"/>
      <point x="194" y="669" type="curve" smooth="yes"/>
      <point x="149" y="643"/>
      <point x="115" y="603"/>
      <point x="103" y="547" type="curve" smooth="yes"/>
      <point x="83" y="460"/>
      <point x="150" y="417"/>
      <point x="232" y="381" type="curve" smooth="yes"/>
      <point x="266" y="366"/>
      <point x="301" y="353"/>
      <point x="333" y="338" type="curve" smooth="yes"/>
      <point x="409" y="304"/>
      <point x="468" y="263"/>
      <point x="454" y="178" type="curve" smooth="yes"/>
      <point x="445" y="124"/>
      <point x="418" y="85"/>
      <point x="383" y="57" type="curve"/>
      <point x="334" y="22"/>
      <point x="271" y="7"/>
      <point x="207" y="7" type="curve" smooth="yes"/>
      <point x="142" y="7"/>
      <point x="99" y="25"/>
      <point x="70" y="48" type="curve" smooth="yes"/>
      <point x="20" y="88"/>
      <point x="13" y="142"/>
      <point x="13" y="142" type="curve"/>
      <point x="-3" y="133" type="line"/>
      <point x="-3" y="133"/>
      <point x="4" y="75"/>
      <point x="57" y="32" type="curve" smooth="yes"/>
      <point x="88" y="8"/>
      <point x="134" y="-12"/>
      <point x="203" y="-12" type="curve" smooth="yes"/>
      <point x="279" y="-12"/>
      <point x="346" y="8"/>
      <point x="393" y="44" type="curve" smooth="yes"/>
      <point x="437" y="76"/>
      <point x="466" y="121"/>
      <point x="475" y="177" type="curve" smooth="yes"/>
      <point x="492" y="268"/>
      <point x="425" y="318"/>
      <point x="344" y="355" type="curve" smooth="yes"/>
      <point x="312" y="371"/>
      <point x="276" y="385"/>
      <point x="244" y="398" type="curve" smooth="yes"/>
      <point x="135" y="444"/>
      <point x="111" y="483"/>
      <point x="121" y="543" type="curve" smooth="yes"/>
      <point x="130" y="594"/>
      <point x="167" y="637"/>
      <point x="208" y="658" type="curve" smooth="yes"/>
      <point x="253" y="682"/>
      <point x="302" y="691"/>
      <point x="347" y="691" type="curve" smooth="yes"/>
      <point x="405" y="690"/>
      <point x="458" y="673"/>
    </contour>
  </outline>
</glyph>
<glyph name="T" format="2">
  <advance width="395"/>
  <unicode hex="0054"/>
  <outline>
    <contour>
      <point x="221" y="678" type="line"/>
      <point x="415" y="678" type="line"/>
      <point x="419" y="698" type="line"/>
      <point x="17" y="698" type="line"/>
      <point x="13" y="678" type="line"/>
      <point x="202" y="678" type="line"/>
      <point x="84" y="0" type="line"/>
      <point x="102" y="0" type="line"/>
    </contour>
  </outline>
</glyph>
<glyph name="V" format="1">
  <advance width="482"/>
  <unicode hex="0056"/>
  <outline>
    <contour>
      <point x="26" y="698" type="line"/>
      <point x="132" y="0" type="line"/>
      <point x="154" y="0" type="line"/>
      <point x="503" y="698" type="line"/>
      <point x="484" y="698" type="line"/>
      <point x="146" y="26" type="line"/>
      <point x="45" y="698" type="line"/>
    </contour>
  </outline>
</glyph>
<glyph name="W" format="2">
  <advance width="704"/>
  <unicode hex="0057"/>
  <outline>
    <contour>
      <point x="388" y="698" type="line"/>
      <point x="367" y="698" type="line"/>
      <point x="105" y="36" type="line"/>
      <point x="51" y="698" type="line"/>
      <point x="30" y="698" type="line"/>
      <point x="89" y="0" type="line"/>
      <point x="110" y="0" type="line"/>
      <point x="369" y="651" type="line"/>
      <point x="400" y="0" type="line"/>
      <point x="421" y="0" type="line"/>
      <point x="724" y="698" type="line"/>
      <point x="702" y="698" type="line"/>
      <point x="417" y="35" type="line"/>
    </contour>
  </outline>
</glyph>
<glyph name="X" format="2">
  <advance width="589"/>
  <unicode hex="0058"/>
  <outline>
    <contour>
      <point x="309" y="381" type="line"/>
      <point x="152" y="698" type="line"/>
      <point x="130" y="698" type="line"/>
      <point x="295" y="363" type="line"/>
      <point x="-11" y="0" type="line"/>
      <point x="14" y="0" type="line"/>
      <point x="302" y="345" type="line"/>
      <point x="473" y="0" type="line"/>
      <point x="498" y="0" type="line"/>
      <point x="319" y="363" type="line"/>
      <point x="601" y="698" type="line"/>
      <point x="577" y="698" type="line"/>
    </contour>
  </outline>
</glyph>
<glyph name="Z" format="2">
  <advance width="578"/>
  <unicode hex="005A"/>
  <outline>
    <contour>
      <point x="592" y="698" type="line"/>
      <point x="125" y="698" type="line"/>
      <point x="122" y="679" type="line"/>
      <point x="564" y="679" type="line"/>
      <point x="-7" y="19" type="line"/>
      <point x="-10" y="0" type="line"/>
      <point x="475" y="0" type="line"/>
      <point x="478" y="19" type="line"/>
      <point x="16" y="19" type="line"/>
      <point x="588" y="679" type="line"/>
    </contour>
  </outline>
</glyph>
<glyph name="asciicircum" format="1">
  <advance width="266"/>
  <unicode hex="005E"/>
  <outline>
    <contour>
      <point x="254" y="779" type="line"/>
      <point x="155" y="897" type="line"/>
      <point x="11" y="778" type="line"/>
      <point x="23" y="763" type="line"/>
      <point x="149" y="867" type="line"/>
      <point x="236" y="763" type="line"/>
    </contour>
  </outline>
</glyph>
<glyph name="grave" format="2">
  <advance width="266"/>
  <unicode hex="0060"/>
  <outline>
    <contour>
      <point x="111" y="727" type="line" smooth="yes"/>
      <point x="109" y="736"/>
      <point x="100" y="741"/>
      <point x="91" y="737" type="curve" smooth="yes"/>
      <point x="83" y="732"/>
      <point x="81" y="722"/>
      <point x="83" y="714" type="curve"/>
      <point x="122" y="613" type="line"/>
      <point x="143" y="613" type="line"/>
    </contour>
  </outline>
</glyph>
<glyph name="a" format="2">
  <advance width="449"/>
  <unicode hex="0061"/>
  <outline>
    <contour>
      <point x="408" y="345" type="curve"/>
      <point x="353" y="374"/>
      <point x="288" y="403"/>
      <point x="215" y="403" type="curve" smooth="yes"/>
      <point x="81" y="403"/>
      <point x="38" y="315"/>
      <point x="27" y="251" type="curve"/>
      <point x="27" y="251"/>
      <point x="12" y="168"/>
      <point x="12" y="168" type="curve"/>
      <point x="-9" y="50"/>
      <point x="40" y="-10"/>
      <point x="185" y="-10" type="curve" smooth="yes"/>
      <point x="226" y="-10"/>
      <point x="367" y="0"/>
      <point x="367" y="0" type="curve"/>
      <point x="367" y="0"/>
      <point x="404" y="212"/>
      <point x="426" y="335" type="curve" smooth="yes"/>
      <point x="436" y="395"/>
      <point x="424" y="441"/>
      <point x="388" y="470" type="curve" smooth="yes"/>
      <point x="359" y="495"/>
      <point x="313" y="507"/>
      <point x="248" y="507" type="curve"/>
      <point x="244" y="488" type="line"/>
      <point x="312" y="488"/>
      <point x="347" y="477"/>
      <point x="373" y="457" type="curve" smooth="yes"/>
      <point x="404" y="431"/>
      <point x="417" y="392"/>
    </contour>
    <contour>
      <point x="404" y="322" type="curve"/>
      <point x="404" y="322"/>
      <point x="351" y="18"/>
      <point x="351" y="18" type="curve"/>
      <point x="351" y="18"/>
      <point x="234" y="8"/>
      <point x="188" y="8" type="curve" smooth="yes"/>
      <point x="31" y="4"/>
      <point x="16" y="90"/>
      <point x="29" y="162" type="curve" smooth="yes"/>
      <point x="33" y="185"/>
      <point x="39" y="221"/>
      <point x="44" y="249" type="curve" smooth="yes"/>
      <point x="57" y="323"/>
      <point x="107" y="383"/>
      <point x="210" y="383" type="curve" smooth="yes"/>
      <point x="283" y="383"/>
      <point x="340" y="358"/>
    </contour>
  </outline>
</glyph>
<glyph name="b" format="2">
  <advance width="466"/>
  <unicode hex="0062"/>
  <outline>
    <contour>
      <point x="103" y="470" type="curve"/>
      <point x="144" y="698" type="line"/>
      <point x="125" y="698" type="line"/>
      <point x="1" y="-1" type="line"/>
      <point x="1" y="-1"/>
      <point x="139" y="-11"/>
      <point x="179" y="-11" type="curve" smooth="yes"/>
      <point x="326" y="-11"/>
      <point x="394" y="50"/>
      <point x="415" y="168" type="curve"/>
      <point x="415" y="169"/>
      <point x="449" y="358"/>
      <point x="449" y="358" type="curve"/>
      <point x="460" y="421"/>
      <point x="431" y="508"/>
      <point x="297" y="508" type="curve" smooth="yes"/>
      <point x="224" y="508"/>
      <point x="158" y="492"/>
    </contour>
    <contour>
      <point x="24" y="18" type="curve"/>
      <point x="24" y="18"/>
      <point x="100" y="450"/>
      <point x="100" y="450" type="curve"/>
      <point x="157" y="474"/>
      <point x="222" y="491"/>
      <point x="295" y="491" type="curve" smooth="yes"/>
      <point x="398" y="491"/>
      <point x="442" y="429"/>
      <point x="429" y="354" type="curve" smooth="yes"/>
      <point x="425" y="330"/>
      <point x="399" y="182"/>
      <point x="395" y="161" type="curve" smooth="yes"/>
      <point x="382" y="89"/>
      <point x="338" y="4"/>
      <point x="182" y="7" type="curve" smooth="yes"/>
      <point x="136" y="8"/>
      <point x="24" y="18"/>
    </contour>
  </outline>
</glyph>
<glyph name="c" format="2">
  <advance width="386"/>
  <unicode hex="0063"/>
  <outline>
    <contour>
      <point x="374" y="457" type="curve"/>
      <point x="384" y="476" type="line"/>
      <point x="331" y="504"/>
      <point x="267" y="516"/>
      <point x="207" y="504" type="curve" smooth="yes"/>
      <point x="161" y="494"/>
      <point x="118" y="470"/>
      <point x="84" y="426" type="curve" smooth="yes"/>
      <point x="60" y="394"/>
      <point x="47" y="362"/>
      <point x="38" y="318" type="curve" smooth="yes"/>
      <point x="12" y="173" type="line" smooth="yes"/>
      <point x="-5" y="75"/>
      <point x="30" y="23"/>
      <point x="94" y="1" type="curve" smooth="yes"/>
      <point x="150" y="-18"/>
      <point x="233" y="-13"/>
      <point x="303" y="5" type="curve"/>
      <point x="303" y="25" type="line"/>
      <point x="303" y="25"/>
      <point x="182" y="-8"/>
      <point x="98" y="21" type="curve" smooth="yes"/>
      <point x="31" y="45"/>
      <point x="18" y="99"/>
      <point x="31" y="175" type="curve" smooth="yes"/>
      <point x="56" y="313" type="line" smooth="yes"/>
      <point x="63" y="355"/>
      <point x="78" y="389"/>
      <point x="100" y="417" type="curve" smooth="yes"/>
      <point x="128" y="453"/>
      <point x="167" y="476"/>
      <point x="211" y="485" type="curve" smooth="yes"/>
      <point x="264" y="496"/>
      <point x="321" y="486"/>
    </contour>
  </outline>
</glyph>
<glyph name="d" format="2">
  <advance width="489"/>
  <unicode hex="0064"/>
  <outline>
    <contour>
      <point x="368" y="-1" type="curve"/>
      <point x="492" y="698" type="line"/>
      <point x="473" y="698" type="line"/>
      <point x="432" y="470" type="line"/>
      <point x="384" y="492"/>
      <point x="326" y="508"/>
      <point x="253" y="508" type="curve" smooth="yes"/>
      <point x="119" y="508"/>
      <point x="59" y="421"/>
      <point x="48" y="358" type="curve"/>
      <point x="48" y="358"/>
      <point x="14" y="169"/>
      <point x="14" y="168" type="curve"/>
      <point x="-7" y="50"/>
      <point x="42" y="-11"/>
      <point x="188" y="-11" type="curve" smooth="yes"/>
      <point x="228" y="-11"/>
      <point x="368" y="-1"/>
    </contour>
    <contour>
      <point x="429" y="450" type="curve"/>
      <point x="429" y="450"/>
      <point x="353" y="18"/>
      <point x="353" y="18" type="curve"/>
      <point x="353" y="18"/>
      <point x="238" y="8"/>
      <point x="192" y="7" type="curve" smooth="yes"/>
      <point x="34" y="4"/>
      <point x="20" y="89"/>
      <point x="33" y="161" type="curve" smooth="yes"/>
      <point x="37" y="182"/>
      <point x="63" y="330"/>
      <point x="67" y="354" type="curve" smooth="yes"/>
      <point x="80" y="429"/>
      <point x="145" y="491"/>
      <point x="248" y="491" type="curve" smooth="yes"/>
      <point x="322" y="491"/>
      <point x="381" y="474"/>
    </contour>
  </outline>
</glyph>
<glyph name="f" format="2">
  <advance width="291"/>
  <unicode hex="0066"/>
  <outline>
    <contour>
      <point x="301" y="687" type="curve"/>
      <point x="308" y="705" type="line"/>
      <point x="297" y="708"/>
      <point x="284" y="708"/>
      <point x="272" y="708" type="curve" smooth="yes"/>
      <point x="202" y="708"/>
      <point x="118" y="670"/>
      <point x="96" y="548" type="curve" smooth="yes"/>
      <point x="0" y="0" type="line"/>
      <point x="20" y="0" type="line"/>
      <point x="104" y="482" type="line"/>
      <point x="247" y="482" type="line"/>
      <point x="257" y="498" type="line"/>
      <point x="107" y="498" type="line"/>
      <point x="116" y="546"/>
      <point x="116" y="547"/>
      <point x="116" y="548" type="curve"/>
      <point x="136" y="662"/>
      <point x="214" y="693"/>
      <point x="275" y="691" type="curve" smooth="yes"/>
      <point x="284" y="691"/>
      <point x="292" y="689"/>
    </contour>
  </outline>
</glyph>
<glyph name="g" format="2">
  <advance width="451"/>
  <unicode hex="0067"/>
  <outline>
    <contour>
      <point x="343" y="-64" type="curve" smooth="yes"/>
      <point x="442" y="498" type="line"/>
      <point x="422" y="498" type="line"/>
      <point x="414" y="451" type="line"/>
      <point x="370" y="487"/>
      <point x="297" y="506"/>
      <point x="250" y="508" type="curve" smooth="yes"/>
      <point x="141" y="513"/>
      <point x="65" y="450"/>
      <point x="46" y="344" type="curve" smooth="yes"/>
      <point x="16" y="175" type="line" smooth="yes"/>
      <point x="-5" y="53"/>
      <point x="46" y="-12"/>
      <point x="157" y="-12" type="curve" smooth="yes"/>
      <point x="218" y="-12"/>
      <point x="315" y="22"/>
      <point x="349" y="80" type="curve"/>
      <point x="323" y="-63" type="line" smooth="yes"/>
      <point x="306" y="-163"/>
      <point x="240" y="-180"/>
      <point x="206" y="-193" type="curve"/>
      <point x="209" y="-210" type="line"/>
      <point x="290" y="-186"/>
      <point x="329" y="-144"/>
    </contour>
    <contour>
      <point x="410" y="426" type="curve"/>
      <point x="360" y="147" type="line" smooth="yes"/>
      <point x="343" y="50"/>
      <point x="233" y="2"/>
      <point x="146" y="8" type="curve" smooth="yes"/>
      <point x="62" y="12"/>
      <point x="17" y="67"/>
      <point x="35" y="168" type="curve" smooth="yes"/>
      <point x="67" y="346" type="line" smooth="yes"/>
      <point x="85" y="450"/>
      <point x="158" y="486"/>
      <point x="231" y="488" type="curve" smooth="yes"/>
      <point x="288" y="491"/>
      <point x="374" y="470"/>
    </contour>
  </outline>
</glyph>
<glyph name="h" format="1">
  <advance width="459"/>
  <unicode hex="0068"/>
  <outline>
    <contour>
      <point x="104" y="471" type="curve"/>
      <point x="144" y="698" type="line"/>
      <point x="124" y="698" type="line"/>
      <point x="1" y="0" type="line"/>
      <point x="21" y="0" type="line"/>
      <point x="100" y="453" type="line"/>
      <point x="140" y="471"/>
      <point x="207" y="490"/>
      <point x="265" y="493" type="curve" smooth="yes"/>
      <point x="374" y="498"/>
      <point x="431" y="459"/>
      <point x="412" y="346" type="curve" smooth="yes"/>
      <point x="351" y="0" type="line"/>
      <point x="370" y="0" type="line"/>
      <point x="430" y="345" type="line" smooth="yes"/>
      <point x="458" y="501"/>
      <point x="343" y="514"/>
      <point x="255" y="508" type="curve" smooth="yes"/>
      <point x="203" y="505"/>
      <point x="138" y="485"/>
    </contour>
    <contour>
      <point x="229" y="735" type="move" name="top"/>
    </contour>
  </outline>
</glyph>
<glyph name="i" format="1">
  <advance width="149"/>
  <unicode hex="0069"/>
  <outline>
    <contour>
      <point x="3" y="0" type="line"/>
      <point x="22" y="0" type="line"/>
      <point x="109" y="499" type="line"/>
      <point x="90" y="499" type="line"/>
    </contour>
    <contour>
      <point x="137" y="708" type="curve" smooth="yes"/>
      <point x="127" y="708"/>
      <point x="119" y="701"/>
      <point x="117" y="691" type="curve"/>
      <point x="116" y="682"/>
      <point x="121" y="674"/>
      <point x="131" y="674" type="curve" smooth="yes"/>
      <point x="140" y="674"/>
      <point x="150" y="682"/>
      <point x="151" y="691" type="curve"/>
      <point x="153" y="701"/>
      <point x="146" y="708"/>
    </contour>
  </outline>
</glyph>
<glyph name="j" format="2">
  <advance width="246"/>
  <unicode hex="006A"/>
  <outline>
    <contour>
      <point x="106" y="-68" type="curve" smooth="yes"/>
      <point x="205" y="499" type="line"/>
      <point x="103" y="499" type="line"/>
      <point x="100" y="481" type="line"/>
      <point x="185" y="481" type="line"/>
      <point x="89" y="-67" type="line" smooth="yes"/>
      <point x="81" y="-112"/>
      <point x="64" y="-143"/>
      <point x="40" y="-161" type="curve" smooth="yes"/>
      <point x="14" y="-179"/>
      <point x="4" y="-184"/>
      <point x="-28" y="-196" type="curve"/>
      <point x="-25" y="-213" type="line"/>
      <point x="6" y="-204"/>
      <point x="32" y="-191"/>
      <point x="52" y="-175" type="curve"/>
      <point x="80" y="-150"/>
      <point x="97" y="-116"/>
    </contour>
    <contour>
      <point x="247" y="691" type="curve"/>
      <point x="249" y="701"/>
      <point x="244" y="707"/>
      <point x="234" y="707" type="curve" smooth="yes"/>
      <point x="225" y="707"/>
      <point x="216" y="701"/>
      <point x="214" y="691" type="curve"/>
      <point x="213" y="682"/>
      <point x="219" y="674"/>
      <point x="228" y="674" type="curve" smooth="yes"/>
      <point x="238" y="674"/>
      <point x="246" y="682"/>
    </contour>
  </outline>
</glyph>
<glyph name="k" format="2">
  <advance width="392"/>
  <unicode hex="006B"/>
  <outline>
    <contour>
      <point x="199" y="378" type="curve"/>
      <point x="359" y="506" type="line"/>
      <point x="348" y="518" type="line"/>
      <point x="73" y="300" type="line"/>
      <point x="144" y="698" type="line"/>
      <point x="124" y="698" type="line"/>
      <point x="1" y="0" type="line"/>
      <point x="21" y="0" type="line"/>
      <point x="69" y="276" type="line"/>
      <point x="183" y="365" type="line"/>
      <point x="344" y="0" type="line"/>
      <point x="367" y="0" type="line"/>
      <point x="304" y="135"/>
      <point x="249" y="262"/>
    </contour>
  </outline>
</glyph>
<glyph name="l" format="2">
  <advance width="141"/>
  <unicode hex="006C"/>
  <outline>
    <contour>
      <point x="1" y="0" type="line"/>
      <point x="21" y="0" type="line"/>
      <point x="144" y="698" type="line"/>
      <point x="124" y="698" type="line"/>
    </contour>
  </outline>
</glyph>
<glyph name="m" format="2">
  <advance width="733"/>
  <unicode hex="006D"/>
  <outline>
    <contour>
      <point x="684" y="344" type="curve" smooth="yes"/>
      <point x="624" y="0" type="line"/>
      <point x="641" y="0" type="line"/>
      <point x="701" y="343" type="line" smooth="yes"/>
      <point x="728" y="499"/>
      <point x="636" y="514"/>
      <point x="549" y="507" type="curve" smooth="yes"/>
      <point x="498" y="504"/>
      <point x="427" y="480"/>
      <point x="384" y="454" type="curve"/>
      <point x="359" y="506"/>
      <point x="298" y="512"/>
      <point x="237" y="507" type="curve" smooth="yes"/>
      <point x="185" y="503"/>
      <point x="134" y="486"/>
      <point x="101" y="470" type="curve"/>
      <point x="106" y="498" type="line"/>
      <point x="87" y="498" type="line"/>
      <point x="0" y="0" type="line"/>
      <point x="19" y="0" type="line"/>
      <point x="98" y="451" type="line"/>
      <point x="138" y="470"/>
      <point x="178" y="487"/>
      <point x="239" y="492" type="curve" smooth="yes"/>
      <point x="346" y="499"/>
      <point x="392" y="458"/>
      <point x="372" y="344" type="curve" smooth="yes"/>
      <point x="312" y="0" type="line"/>
      <point x="332" y="0" type="line"/>
      <point x="392" y="343" type="line" smooth="yes"/>
      <point x="399" y="385"/>
      <point x="397" y="417"/>
      <point x="390" y="441" type="curve"/>
      <point x="434" y="464"/>
      <point x="493" y="487"/>
      <point x="550" y="492" type="curve" smooth="yes"/>
      <point x="659" y="499"/>
      <point x="704" y="458"/>
    </contour>
  </outline>
</glyph>
<glyph name="n" format="2">
  <advance width="460"/>
  <unicode hex="006E"/>
  <outline>
    <contour>
      <point x="410" y="345" type="curve" smooth="yes"/>
      <point x="350" y="0" type="line"/>
      <point x="368" y="0" type="line"/>
      <point x="428" y="344" type="line" smooth="yes"/>
      <point x="456" y="501"/>
      <point x="342" y="514"/>
      <point x="254" y="508" type="curve" smooth="yes"/>
      <point x="202" y="505"/>
      <point x="136" y="485"/>
      <point x="102" y="471" type="curve"/>
      <point x="106" y="499" type="line"/>
      <point x="87" y="499" type="line"/>
      <point x="0" y="0" type="line"/>
      <point x="19" y="0" type="line"/>
      <point x="98" y="452" type="line"/>
      <point x="139" y="471"/>
      <point x="206" y="490"/>
      <point x="264" y="493" type="curve" smooth="yes"/>
      <point x="373" y="498"/>
      <point x="430" y="459"/>
    </contour>
  </outline>
</glyph>
<glyph name="o" format="2">
  <advance width="432"/>
  <unicode hex="006F"/>
  <outline>
    <contour>
      <point x="383" y="184" type="curve" smooth="yes"/>
      <point x="406" y="315" type="line" smooth="yes"/>
      <point x="427" y="436"/>
      <point x="377" y="510"/>
      <point x="258" y="510" type="curve" smooth="yes"/>
      <point x="139" y="510"/>
      <point x="59" y="442"/>
      <point x="37" y="315" type="curve" smooth="yes"/>
      <point x="14" y="184" type="line" smooth="yes"/>
      <point x="-5" y="77"/>
      <point x="39" y="-10"/>
      <point x="167" y="-10" type="curve" smooth="yes"/>
      <point x="290" y="-10"/>
      <point x="363" y="71"/>
    </contour>
    <contour>
      <point x="388" y="319" type="curve" smooth="yes"/>
      <point x="364" y="184" type="line" smooth="yes"/>
      <point x="346" y="84"/>
      <point x="284" y="8"/>
      <point x="170" y="8" type="curve" smooth="yes"/>
      <point x="59" y="8"/>
      <point x="16" y="85"/>
      <point x="34" y="184" type="curve" smooth="yes"/>
      <point x="58" y="319" type="line" smooth="yes"/>
      <point x="79" y="442"/>
      <point x="159" y="492"/>
      <point x="255" y="492" type="curve" smooth="yes"/>
      <point x="350" y="492"/>
      <point x="408" y="433"/>
    </contour>
  </outline>
</glyph>
<glyph name="p" format="2">
  <advance width="476"/>
  <unicode hex="0070"/>
  <outline>
    <contour>
      <point x="422" y="175" type="curve" smooth="yes"/>
      <point x="452" y="344" type="line" smooth="yes"/>
      <point x="471" y="450"/>
      <point x="416" y="513"/>
      <point x="307" y="508" type="curve" smooth="yes"/>
      <point x="258" y="506"/>
      <point x="178" y="487"/>
      <point x="122" y="451" type="curve"/>
      <point x="130" y="498" type="line"/>
      <point x="110" y="498" type="line"/>
      <point x="-13" y="-206" type="line"/>
      <point x="5" y="-212" type="line"/>
      <point x="57" y="80" type="line"/>
      <point x="69" y="22"/>
      <point x="154" y="-12"/>
      <point x="215" y="-12" type="curve" smooth="yes"/>
      <point x="326" y="-12"/>
      <point x="401" y="53"/>
    </contour>
    <contour>
      <point x="436" y="346" type="curve" smooth="yes"/>
      <point x="404" y="168" type="line" smooth="yes"/>
      <point x="386" y="67"/>
      <point x="323" y="9"/>
      <point x="235" y="4" type="curve" smooth="yes"/>
      <point x="146" y="-1"/>
      <point x="51" y="50"/>
      <point x="68" y="147" type="curve" smooth="yes"/>
      <point x="118" y="426" type="line"/>
      <point x="169" y="470"/>
      <point x="266" y="494"/>
      <point x="321" y="493" type="curve" smooth="yes"/>
      <point x="394" y="490"/>
      <point x="454" y="450"/>
    </contour>
  </outline>
</glyph>
<glyph name="q" format="2">
  <advance width="450"/>
  <unicode hex="0071"/>
  <outline>
    <contour>
      <point x="349" y="81" type="curve"/>
      <point x="298" y="-207" type="line"/>
      <point x="316" y="-211" type="line"/>
      <point x="441" y="498" type="line"/>
      <point x="422" y="498" type="line"/>
      <point x="414" y="451" type="line"/>
      <point x="371" y="488"/>
      <point x="297" y="507"/>
      <point x="250" y="509" type="curve" smooth="yes"/>
      <point x="141" y="514"/>
      <point x="65" y="450"/>
      <point x="46" y="345" type="curve" smooth="yes"/>
      <point x="17" y="176" type="line" smooth="yes"/>
      <point x="-5" y="54"/>
      <point x="47" y="-11"/>
      <point x="158" y="-11" type="curve" smooth="yes"/>
      <point x="219" y="-11"/>
      <point x="300" y="14"/>
    </contour>
    <contour>
      <point x="410" y="427" type="curve"/>
      <point x="361" y="148" type="line" smooth="yes"/>
      <point x="343" y="51"/>
      <point x="224" y="0"/>
      <point x="145" y="4" type="curve" smooth="yes"/>
      <point x="61" y="11"/>
      <point x="17" y="68"/>
      <point x="35" y="169" type="curve" smooth="yes"/>
      <point x="67" y="348" type="line" smooth="yes"/>
      <point x="85" y="451"/>
      <point x="159" y="491"/>
      <point x="231" y="493" type="curve" smooth="yes"/>
      <point x="289" y="495"/>
      <point x="382" y="459"/>
    </contour>
  </outline>
</glyph>
<glyph name="r" format="1">
  <advance width="354"/>
  <unicode hex="0072"/>
  <outline>
    <contour>
      <point x="356" y="490" type="curve"/>
      <point x="360" y="506" type="line"/>
      <point x="346" y="510"/>
      <point x="332" y="513"/>
      <point x="316" y="513" type="curve" smooth="yes"/>
      <point x="259" y="513"/>
      <point x="187" y="488"/>
      <point x="98" y="453" type="curve"/>
      <point x="106" y="499" type="line"/>
      <point x="87" y="499" type="line"/>
      <point x="0" y="0" type="line"/>
      <point x="19" y="0" type="line"/>
      <point x="95" y="432" type="line"/>
      <point x="200" y="476"/>
      <point x="261" y="494"/>
      <point x="311" y="494" type="curve" smooth="yes"/>
      <point x="326" y="494"/>
      <point x="341" y="493"/>
    </contour>
    <contour>
      <point x="247" y="545" type="move" name="top"/>
    </contour>
    <contour>
      <point x="107" y="0" type="move" name="bottom"/>
    </contour>
  </outline>
</glyph>
<glyph name="s" format="2">
  <advance width="394"/>
  <unicode hex="0073"/>
  <outline>
    <contour>
      <point x="362" y="460" type="curve"/>
      <point x="375" y="474" type="line"/>
      <point x="373" y="475"/>
      <point x="330" y="510"/>
      <point x="255" y="510" type="curve" smooth="yes"/>
      <point x="220" y="510"/>
      <point x="180" y="502"/>
      <point x="146" y="483" type="curve" smooth="yes"/>
      <point x="113" y="464"/>
      <point x="87" y="436"/>
      <point x="77" y="395" type="curve" smooth="yes"/>
      <point x="68" y="352"/>
      <point x="81" y="323"/>
      <point x="108" y="300" type="curve"/>
      <point x="135" y="280"/>
      <point x="172" y="265"/>
      <point x="216" y="249" type="curve" smooth="yes"/>
      <point x="265" y="230"/>
      <point x="297" y="212"/>
      <point x="316" y="194" type="curve"/>
      <point x="339" y="168"/>
      <point x="343" y="143"/>
      <point x="336" y="114" type="curve" smooth="yes"/>
      <point x="330" y="90"/>
      <point x="316" y="64"/>
      <point x="290" y="43" type="curve" smooth="yes"/>
      <point x="262" y="20"/>
      <point x="219" y="2"/>
      <point x="160" y="2" type="curve" smooth="yes"/>
      <point x="122" y="2"/>
      <point x="93" y="10"/>
      <point x="69" y="22" type="curve" smooth="yes"/>
      <point x="40" y="37"/>
      <point x="22" y="59"/>
      <point x="10" y="81" type="curve"/>
      <point x="-6" y="68" type="line"/>
      <point x="8" y="44"/>
      <point x="29" y="21"/>
      <point x="61" y="4" type="curve" smooth="yes"/>
      <point x="85" y="-8"/>
      <point x="117" y="-15"/>
      <point x="157" y="-15" type="curve" smooth="yes"/>
      <point x="218" y="-15"/>
      <point x="264" y="1"/>
      <point x="297" y="26" type="curve" smooth="yes"/>
      <point x="329" y="52"/>
      <point x="347" y="84"/>
      <point x="354" y="113" type="curve" smooth="yes"/>
      <point x="361" y="147"/>
      <point x="359" y="178"/>
      <point x="329" y="208" type="curve" smooth="yes"/>
      <point x="310" y="228"/>
      <point x="276" y="246"/>
      <point x="225" y="266" type="curve" smooth="yes"/>
      <point x="180" y="283"/>
      <point x="147" y="297"/>
      <point x="125" y="315" type="curve"/>
      <point x="97" y="335"/>
      <point x="88" y="359"/>
      <point x="96" y="394" type="curve" smooth="yes"/>
      <point x="104" y="430"/>
      <point x="129" y="454"/>
      <point x="157" y="470" type="curve"/>
      <point x="188" y="485"/>
      <point x="222" y="492"/>
      <point x="252" y="492" type="curve" smooth="yes"/>
      <point x="321" y="492"/>
      <point x="362" y="460"/>
    </contour>
  </outline>
</glyph>
<glyph name="t" format="1">
  <advance width="251"/>
  <unicode hex="0074"/>
  <outline>
    <contour>
      <point x="36" y="132" type="curve" smooth="yes"/>
      <point x="97" y="481" type="line"/>
      <point x="244" y="481" type="line"/>
      <point x="256" y="499" type="line"/>
      <point x="100" y="499" type="line"/>
      <point x="136" y="698" type="line"/>
      <point x="116" y="698" type="line"/>
      <point x="16" y="132" type="line" smooth="yes"/>
      <point x="2" y="53"/>
      <point x="25" y="8"/>
      <point x="95" y="-13" type="curve"/>
      <point x="105" y="4" type="line"/>
      <point x="42" y="26"/>
      <point x="23" y="58"/>
    </contour>
    <contour>
      <point x="195" y="735" type="move" name="top"/>
    </contour>
    <contour>
      <point x="55" y="0" type="move" name="bottom"/>
    </contour>
  </outline>
</glyph>
<glyph name="u" format="1">
  <advance width="461"/>
  <unicode hex="0075"/>
  <outline>
    <contour>
      <point x="361" y="97" type="curve"/>
      <point x="344" y="0" type="line"/>
      <point x="365" y="0" type="line"/>
      <point x="452" y="499" type="line"/>
      <point x="431" y="499" type="line"/>
      <point x="373" y="168" type="line" smooth="yes"/>
      <point x="359" y="87"/>
      <point x="287" y="15"/>
      <point x="190" y="9" type="curve" smooth="yes"/>
      <point x="81" y="1"/>
      <point x="22" y="43"/>
      <point x="42" y="155" type="curve" smooth="yes"/>
      <point x="102" y="499" type="line"/>
      <point x="82" y="499" type="line"/>
      <point x="22" y="156" type="line" smooth="yes"/>
      <point x="-5" y="0"/>
      <point x="112" y="-13"/>
      <point x="187" y="-9" type="curve" smooth="yes"/>
      <point x="249" y="-4"/>
      <point x="323" y="29"/>
    </contour>
    <contour>
      <point x="229" y="0" type="move" name="ogonek"/>
    </contour>
    <contour>
      <point x="230" y="545" type="move" name="top"/>
    </contour>
  </outline>
</glyph>
<glyph name="v" format="1">
  <advance width="396"/>
  <unicode hex="0076"/>
  <outline>
    <contour>
      <point x="16" y="499" type="line"/>
      <point x="114" y="0" type="line"/>
      <point x="127" y="0" type="line"/>
      <point x="400" y="499" type="line"/>
      <point x="380" y="499" type="line"/>
      <point x="126" y="36" type="line"/>
      <point x="35" y="499" type="line"/>
    </contour>
  </outline>
</glyph>
<glyph name="w" format="1">
  <advance width="640"/>
  <unicode hex="0077"/>
  <outline>
    <contour>
      <point x="335" y="498" type="line"/>
      <point x="324" y="498" type="line"/>
      <point x="109" y="36" type="line"/>
      <point x="37" y="498" type="line"/>
      <point x="17" y="498" type="line"/>
      <point x="98" y="0" type="line"/>
      <point x="110" y="0" type="line"/>
      <point x="321" y="453" type="line"/>
      <point x="377" y="0" type="line"/>
      <point x="390" y="0" type="line"/>
      <point x="644" y="498" type="line"/>
      <point x="624" y="498" type="line"/>
      <point x="389" y="36" type="line"/>
    </contour>
    <contour>
      <point x="390" y="545" type="move" name="top"/>
    </contour>
  </outline>
</glyph>
<glyph name="x" format="2">
  <advance width="413"/>
  <unicode hex="0078"/>
  <outline>
    <contour>
      <point x="209" y="264" type="line"/>
      <point x="111" y="498" type="line"/>
      <point x="88" y="498" type="line"/>
      <point x="196" y="250" type="line"/>
      <point x="-6" y="0" type="line"/>
      <point x="16" y="0" type="line"/>
      <point x="204" y="233" type="line"/>
      <point x="303" y="0" type="line"/>
      <point x="324" y="0" type="line"/>
      <point x="217" y="249" type="line"/>
      <point x="414" y="498" type="line"/>
      <point x="392" y="498" type="line"/>
    </contour>
  </outline>
</glyph>
<glyph name="y" format="2">
  <advance width="477"/>
  <unicode hex="0079"/>
  <outline>
    <contour>
      <point x="476" y="499" type="curve"/>
      <point x="465" y="510" type="line"/>
      <point x="437" y="485"/>
      <point x="427" y="465"/>
      <point x="419" y="418" type="curve" smooth="yes"/>
      <point x="375" y="169" type="line" smooth="yes"/>
      <point x="361" y="88"/>
      <point x="286" y="16"/>
      <point x="189" y="10" type="curve" smooth="yes"/>
      <point x="81" y="2"/>
      <point x="21" y="44"/>
      <point x="41" y="156" type="curve" smooth="yes"/>
      <point x="101" y="499" type="line"/>
      <point x="81" y="499" type="line"/>
      <point x="21" y="157" type="line" smooth="yes"/>
      <point x="-6" y="1"/>
      <point x="112" y="-12"/>
      <point x="187" y="-8" type="curve" smooth="yes"/>
      <point x="250" y="-3"/>
      <point x="325" y="30"/>
      <point x="363" y="99" type="curve"/>
      <point x="334" y="-66" type="line" smooth="yes"/>
      <point x="326" y="-110"/>
      <point x="309" y="-142"/>
      <point x="285" y="-160" type="curve" smooth="yes"/>
      <point x="259" y="-178"/>
      <point x="249" y="-183"/>
      <point x="217" y="-195" type="curve"/>
      <point x="220" y="-212" type="line"/>
      <point x="252" y="-202"/>
      <point x="277" y="-190"/>
      <point x="297" y="-174" type="curve" smooth="yes"/>
      <point x="326" y="-149"/>
      <point x="342" y="-114"/>
      <point x="351" y="-67" type="curve" smooth="yes"/>
      <point x="436" y="417" type="line" smooth="yes"/>
      <point x="444" y="461"/>
      <point x="452" y="482"/>
    </contour>
  </outline>
</glyph>
<glyph name="z" format="2">
  <advance width="433"/>
  <unicode hex="007A"/>
  <outline>
    <contour>
      <point x="427" y="499" type="line"/>
      <point x="90" y="499" type="line"/>
      <point x="87" y="481" type="line"/>
      <point x="400" y="481" type="line"/>
      <point x="-3" y="19" type="line"/>
      <point x="-6" y="0" type="line"/>
      <point x="360" y="0" type="line"/>
      <point x="363" y="19" type="line"/>
      <point x="20" y="19" type="line"/>
      <point x="424" y="481" type="line"/>
    </contour>
  </outline>
</glyph>
<glyph name="braceright" format="2">
  <advance width="300"/>
  <unicode hex="007D"/>
  <outline>
    <contour>
      <point x="177" y="820" type="curve"/>
      <point x="169" y="801" type="line"/>
      <point x="173" y="800"/>
      <point x="261" y="773"/>
      <point x="235" y="628" type="curve" smooth="yes"/>
      <point x="215" y="515" type="line" smooth="yes"/>
      <point x="205" y="459"/>
      <point x="202" y="404"/>
      <point x="254" y="352" type="curve"/>
      <point x="183" y="300"/>
      <point x="168" y="245"/>
      <point x="158" y="189" type="curve" smooth="yes"/>
      <point x="138" y="76" type="line" smooth="yes"/>
      <point x="112" y="-69"/>
      <point x="14" y="-97"/>
      <point x="11" y="-98" type="curve"/>
      <point x="12" y="-117" type="line"/>
      <point x="15" y="-116"/>
      <point x="127" y="-85"/>
      <point x="155" y="76" type="curve" smooth="yes"/>
      <point x="175" y="189" type="line" smooth="yes"/>
      <point x="185" y="245"/>
      <point x="199" y="295"/>
      <point x="271" y="344" type="curve" smooth="yes"/>
      <point x="284" y="352" type="line"/>
      <point x="274" y="360" type="line" smooth="yes"/>
      <point x="218" y="408"/>
      <point x="222" y="459"/>
      <point x="232" y="515" type="curve" smooth="yes"/>
      <point x="252" y="628" type="line" smooth="yes"/>
      <point x="281" y="789"/>
      <point x="181" y="818"/>
    </contour>
  </outline>
</glyph>
<glyph name="asciitilde" format="2">
  <advance width="266"/>
  <unicode hex="007E"/>
  <outline>
    <contour>
      <point x="279" y="307" type="curve"/>
      <point x="271" y="322" type="line"/>
      <point x="246" y="302"/>
      <point x="224" y="296"/>
      <point x="203" y="297" type="curve" smooth="yes"/>
      <point x="158" y="299"/>
      <point x="121" y="337"/>
      <point x="71" y="337" type="curve" smooth="yes"/>
      <point x="46" y="337"/>
      <point x="20" y="329"/>
      <point x="-12" y="304" type="curve"/>
      <point x="-4" y="287" type="line"/>
      <point x="22" y="309"/>
      <point x="45" y="317"/>
      <point x="65" y="317" type="curve" smooth="yes"/>
      <point x="108" y="317"/>
      <point x="152" y="278"/>
      <point x="204" y="278" type="curve" smooth="yes"/>
      <point x="226" y="278"/>
      <point x="251" y="286"/>
    </contour>
  </outline>
</glyph>
<glyph name="exclamdown" format="2">
  <advance width="180"/>
  <unicode hex="00A1"/>
  <outline>
    <contour>
      <point x="47" y="18" type="curve" smooth="yes"/>
      <point x="139" y="588" type="line"/>
      <point x="124" y="588" type="line"/>
      <point x="15" y="18" type="line" smooth="yes"/>
      <point x="13" y="7"/>
      <point x="21" y="0"/>
      <point x="29" y="0" type="curve" smooth="yes"/>
      <point x="40" y="0"/>
      <point x="45" y="7"/>
    </contour>
    <contour>
      <point x="166" y="691" type="curve"/>
      <point x="168" y="701"/>
      <point x="161" y="708"/>
      <point x="153" y="708" type="curve" smooth="yes"/>
      <point x="143" y="708"/>
      <point x="134" y="701"/>
      <point x="132" y="691" type="curve"/>
      <point x="131" y="682"/>
      <point x="137" y="674"/>
      <point x="147" y="674" type="curve" smooth="yes"/>
      <point x="155" y="674"/>
      <point x="165" y="682"/>
    </contour>
  </outline>
</glyph>
<glyph name="sterling" format="2">
  <advance width="469"/>
  <unicode hex="00A3"/>
  <outline>
    <contour>
      <point x="118" y="16" type="curve" smooth="yes"/>
      <point x="15" y="16" type="line"/>
      <point x="13" y="0" type="line"/>
      <point x="371" y="0" type="line"/>
      <point x="373" y="16" type="line"/>
      <point x="206" y="16" type="line"/>
      <point x="241" y="29"/>
      <point x="273" y="51"/>
      <point x="296" y="86" type="curve" smooth="yes"/>
      <point x="349" y="167"/>
      <point x="334" y="251"/>
      <point x="279" y="329" type="curve" smooth="yes"/>
      <point x="268" y="344"/>
      <point x="257" y="359"/>
      <point x="246" y="375" type="curve"/>
      <point x="437" y="375" type="line"/>
      <point x="440" y="396" type="line"/>
      <point x="230" y="396" type="line"/>
      <point x="223" y="405"/>
      <point x="218" y="414"/>
      <point x="214" y="420" type="curve" smooth="yes"/>
      <point x="149" y="509"/>
      <point x="147" y="561"/>
      <point x="180" y="617" type="curve" smooth="yes"/>
      <point x="208" y="663"/>
      <point x="261" y="686"/>
      <point x="304" y="689" type="curve" smooth="yes"/>
      <point x="359" y="692"/>
      <point x="408" y="675"/>
      <point x="446" y="650" type="curve"/>
      <point x="455" y="667" type="line"/>
      <point x="409" y="695"/>
      <point x="352" y="712"/>
      <point x="300" y="705" type="curve"/>
      <point x="250" y="701"/>
      <point x="200" y="678"/>
      <point x="167" y="627" type="curve" smooth="yes"/>
      <point x="115" y="549"/>
      <point x="146" y="480"/>
      <point x="195" y="408" type="curve" smooth="yes"/>
      <point x="198" y="404"/>
      <point x="202" y="400"/>
      <point x="204" y="396" type="curve"/>
      <point x="82" y="396" type="line"/>
      <point x="79" y="375" type="line"/>
      <point x="220" y="375" type="line"/>
      <point x="235" y="353"/>
      <point x="250" y="332"/>
      <point x="261" y="316" type="curve" smooth="yes"/>
      <point x="314" y="243"/>
      <point x="321" y="164"/>
      <point x="281" y="97" type="curve" smooth="yes"/>
      <point x="241" y="34"/>
      <point x="174" y="16"/>
    </contour>
  </outline>
</glyph>
<glyph name="currency" format="2">
  <advance width="468"/>
  <unicode hex="00A4"/>
  <outline>
    <contour>
      <point x="360" y="378" type="curve"/>
      <point x="455" y="459" type="line"/>
      <point x="445" y="472" type="line"/>
      <point x="351" y="392" type="line"/>
      <point x="328" y="414"/>
      <point x="297" y="428"/>
      <point x="261" y="428" type="curve" smooth="yes"/>
      <point x="223" y="428"/>
      <point x="187" y="415"/>
      <point x="158" y="392" type="curve"/>
      <point x="92" y="472" type="line"/>
      <point x="76" y="459" type="line"/>
      <point x="142" y="378" type="line"/>
      <point x="116" y="353"/>
      <point x="97" y="319"/>
      <point x="90" y="283" type="curve" smooth="yes"/>
      <point x="84" y="245"/>
      <point x="91" y="212"/>
      <point x="108" y="186" type="curve"/>
      <point x="14" y="106" type="line"/>
      <point x="25" y="92" type="line"/>
      <point x="119" y="173" type="line"/>
      <point x="141" y="151"/>
      <point x="172" y="137"/>
      <point x="210" y="137" type="curve" smooth="yes"/>
      <point x="246" y="137"/>
      <point x="281" y="151"/>
      <point x="310" y="173" type="curve"/>
      <point x="378" y="92" type="line"/>
      <point x="393" y="106" type="line"/>
      <point x="326" y="186" type="line"/>
      <point x="354" y="212"/>
      <point x="373" y="245"/>
      <point x="379" y="283" type="curve" smooth="yes"/>
      <point x="386" y="319"/>
      <point x="378" y="353"/>
    </contour>
    <contour>
      <point x="213" y="157" type="curve" smooth="yes"/>
      <point x="144" y="157"/>
      <point x="97" y="213"/>
      <point x="109" y="283" type="curve" smooth="yes"/>
      <point x="121" y="351"/>
      <point x="188" y="407"/>
      <point x="257" y="407" type="curve" smooth="yes"/>
      <point x="325" y="407"/>
      <point x="371" y="351"/>
      <point x="359" y="283" type="curve" smooth="yes"/>
      <point x="347" y="213"/>
      <point x="281" y="157"/>
    </contour>
  </outline>
</glyph>
<glyph name="yen" format="2">
  <advance width="529"/>
  <unicode hex="00A5"/>
  <outline>
    <contour>
      <point x="37" y="217" type="line"/>
      <point x="187" y="217" type="line"/>
      <point x="172" y="131" type="line"/>
      <point x="22" y="131" type="line"/>
      <point x="18" y="111" type="line"/>
      <point x="168" y="111" type="line"/>
      <point x="149" y="0" type="line"/>
      <point x="166" y="0" type="line"/>
      <point x="185" y="111" type="line"/>
      <point x="337" y="111" type="line"/>
      <point x="341" y="131" type="line"/>
      <point x="189" y="131" type="line"/>
      <point x="204" y="217" type="line"/>
      <point x="356" y="217" type="line"/>
      <point x="359" y="235" type="line"/>
      <point x="207" y="235" type="line"/>
      <point x="226" y="341" type="line"/>
      <point x="517" y="698" type="line"/>
      <point x="494" y="698" type="line"/>
      <point x="221" y="361" type="line"/>
      <point x="69" y="698" type="line"/>
      <point x="46" y="698" type="line"/>
      <point x="209" y="341" type="line"/>
      <point x="190" y="235" type="line"/>
      <point x="40" y="235" type="line"/>
    </contour>
  </outline>
</glyph>
<glyph name="dieresis" format="2">
  <advance width="266"/>
  <unicode hex="00A8"/>
  <outline>
    <contour>
      <point x="57" y="724" type="curve" smooth="yes"/>
      <point x="48" y="724"/>
      <point x="39" y="716"/>
      <point x="37" y="706" type="curve" smooth="yes"/>
      <point x="35" y="697"/>
      <point x="42" y="690"/>
      <point x="51" y="690" type="curve" smooth="yes"/>
      <point x="61" y="690"/>
      <point x="69" y="697"/>
      <point x="71" y="706" type="curve" smooth="yes"/>
      <point x="73" y="716"/>
      <point x="67" y="724"/>
    </contour>
    <contour>
      <point x="215" y="724" type="curve" smooth="yes"/>
      <point x="206" y="724"/>
      <point x="198" y="716"/>
      <point x="196" y="706" type="curve" smooth="yes"/>
      <point x="194" y="697"/>
      <point x="200" y="690"/>
      <point x="209" y="690" type="curve" smooth="yes"/>
      <point x="218" y="690"/>
      <point x="227" y="697"/>
      <point x="229" y="706" type="curve" smooth="yes"/>
      <point x="231" y="716"/>
      <point x="224" y="724"/>
    </contour>
  </outline>
</glyph>
<glyph name="copyright" format="2">
  <advance width="721"/>
  <unicode hex="00A9"/>
  <outline>
    <contour>
      <point x="664" y="191" type="curve" smooth="yes"/>
      <point x="687" y="319" type="line" smooth="yes"/>
      <point x="717" y="490"/>
      <point x="600" y="577"/>
      <point x="417" y="579" type="curve" smooth="yes"/>
      <point x="233" y="577"/>
      <point x="86" y="490"/>
      <point x="56" y="319" type="curve" smooth="yes"/>
      <point x="33" y="191" type="line" smooth="yes"/>
      <point x="3" y="20"/>
      <point x="120" y="-67"/>
      <point x="303" y="-68" type="curve" smooth="yes"/>
      <point x="487" y="-67"/>
      <point x="634" y="20"/>
    </contour>
    <contour>
      <point x="669" y="316" type="curve" smooth="yes"/>
      <point x="648" y="194" type="line" smooth="yes"/>
      <point x="619" y="33"/>
      <point x="480" y="-51"/>
      <point x="305" y="-52" type="curve" smooth="yes"/>
      <point x="132" y="-51"/>
      <point x="21" y="33"/>
      <point x="50" y="194" type="curve" smooth="yes"/>
      <point x="71" y="316" type="line" smooth="yes"/>
      <point x="100" y="477"/>
      <point x="239" y="561"/>
      <point x="413" y="561" type="curve" smooth="yes"/>
      <point x="587" y="561"/>
      <point x="698" y="477"/>
    </contour>
    <contour>
      <point x="533" y="404" type="curve"/>
      <point x="544" y="420" type="line"/>
      <point x="506" y="442"/>
      <point x="461" y="453"/>
      <point x="407" y="453" type="curve" smooth="yes"/>
      <point x="366" y="453"/>
      <point x="328" y="446"/>
      <point x="297" y="428" type="curve" smooth="yes"/>
      <point x="233" y="393"/>
      <point x="196" y="350"/>
      <point x="178" y="249" type="curve" smooth="yes"/>
      <point x="164" y="165"/>
      <point x="187" y="110"/>
      <point x="230" y="82" type="curve"/>
      <point x="275" y="58"/>
      <point x="322" y="58"/>
      <point x="343" y="58" type="curve" smooth="yes"/>
      <point x="395" y="58"/>
      <point x="450" y="68"/>
      <point x="510" y="90" type="curve"/>
      <point x="508" y="109" type="line"/>
      <point x="445" y="86"/>
      <point x="391" y="75"/>
      <point x="353" y="75" type="curve" smooth="yes"/>
      <point x="314" y="75"/>
      <point x="272" y="80"/>
      <point x="243" y="99" type="curve" smooth="yes"/>
      <point x="206" y="125"/>
      <point x="186" y="174"/>
      <point x="200" y="254" type="curve" smooth="yes"/>
      <point x="211" y="316"/>
      <point x="240" y="364"/>
      <point x="269" y="388" type="curve"/>
      <point x="297" y="414"/>
      <point x="347" y="435"/>
      <point x="408" y="435" type="curve" smooth="yes"/>
      <point x="449" y="435"/>
      <point x="489" y="425"/>
    </contour>
  </outline>
</glyph>
<glyph name="ordfeminine" format="2">
  <advance width="311"/>
  <unicode hex="00AA"/>
  <outline>
    <contour>
      <point x="274" y="389" type="curve"/>
      <point x="274" y="391"/>
      <point x="303" y="553"/>
      <point x="303" y="553" type="curve"/>
      <point x="312" y="606"/>
      <point x="308" y="645"/>
      <point x="289" y="669" type="curve" smooth="yes"/>
      <point x="271" y="694"/>
      <point x="229" y="707"/>
      <point x="166" y="707" type="curve"/>
      <point x="160" y="691" type="line"/>
      <point x="216" y="690"/>
      <point x="253" y="680"/>
      <point x="274" y="658" type="curve"/>
      <point x="290" y="639"/>
      <point x="295" y="609"/>
      <point x="288" y="568" type="curve"/>
      <point x="239" y="608"/>
      <point x="191" y="628"/>
      <point x="146" y="628" type="curve" smooth="yes"/>
      <point x="73" y="628"/>
      <point x="37" y="564"/>
      <point x="28" y="515" type="curve" smooth="yes"/>
      <point x="17" y="453"/>
      <point x="22" y="374"/>
      <point x="172" y="378" type="curve"/>
      <point x="194" y="380"/>
      <point x="226" y="383"/>
    </contour>
    <contour>
      <point x="283" y="547" type="curve"/>
      <point x="258" y="404" type="line"/>
      <point x="192" y="395"/>
      <point x="110" y="389"/>
      <point x="75" y="414" type="curve" smooth="yes"/>
      <point x="42" y="436"/>
      <point x="39" y="468"/>
      <point x="47" y="512" type="curve" smooth="yes"/>
      <point x="53" y="549"/>
      <point x="79" y="612"/>
      <point x="144" y="612" type="curve" smooth="yes"/>
      <point x="187" y="612"/>
      <point x="234" y="590"/>
    </contour>
  </outline>
</glyph>
<glyph name="degree" format="1">
  <advance width="347"/>
  <unicode hex="00B0"/>
  <outline>
    <contour>
      <point x="325" y="563" type="curve" smooth="yes"/>
      <point x="339" y="643"/>
      <point x="285" y="708"/>
      <point x="205" y="708" type="curve" smooth="yes"/>
      <point x="124" y="708"/>
      <point x="48" y="643"/>
      <point x="34" y="563" type="curve" smooth="yes"/>
      <point x="20" y="483"/>
      <point x="73" y="418"/>
      <point x="154" y="418" type="curve" smooth="yes"/>
      <point x="234" y="418"/>
      <point x="311" y="483"/>
    </contour>
    <contour>
      <point x="202" y="689" type="curve" smooth="yes"/>
      <point x="271" y="689"/>
      <point x="317" y="632"/>
      <point x="305" y="563" type="curve" smooth="yes"/>
      <point x="293" y="494"/>
      <point x="227" y="438"/>
      <point x="158" y="438" type="curve" smooth="yes"/>
      <point x="88" y="438"/>
      <point x="42" y="494"/>
      <point x="54" y="563" type="curve" smooth="yes"/>
      <point x="66" y="632"/>
      <point x="132" y="689"/>
    </contour>
  </outline>
</glyph>
<glyph name="acute" format="2">
  <advance width="266"/>
  <unicode hex="00B4"/>
  <outline>
    <contour>
      <point x="216" y="686" type="line" smooth="yes"/>
      <point x="223" y="694"/>
      <point x="225" y="705"/>
      <point x="217" y="710" type="curve" smooth="yes"/>
      <point x="209" y="714"/>
      <point x="199" y="710"/>
      <point x="194" y="701" type="curve" smooth="yes"/>
      <point x="122" y="586" type="line"/>
      <point x="143" y="586" type="line"/>
    </contour>
  </outline>
</glyph>
<glyph name="paragraph" format="2">
  <advance width="620"/>
  <unicode hex="00B6"/>
  <outline>
    <contour>
      <point x="192" y="282" type="curve" smooth="yes"/>
      <point x="415" y="282" type="line"/>
      <point x="366" y="1" type="line"/>
      <point x="385" y="1" type="line"/>
      <point x="505" y="681" type="line"/>
      <point x="583" y="679" type="line"/>
      <point x="464" y="1" type="line"/>
      <point x="484" y="1" type="line"/>
      <point x="607" y="700" type="line"/>
      <point x="259" y="700" type="line" smooth="yes"/>
      <point x="133" y="700"/>
      <point x="63" y="624"/>
      <point x="39" y="493" type="curve" smooth="yes"/>
      <point x="15" y="356"/>
      <point x="59" y="282"/>
    </contour>
    <contour>
      <point x="254" y="680" type="curve" smooth="yes"/>
      <point x="485" y="680" type="line"/>
      <point x="418" y="300" type="line"/>
      <point x="197" y="300" type="line" smooth="yes"/>
      <point x="74" y="300"/>
      <point x="36" y="370"/>
      <point x="57" y="493" type="curve" smooth="yes"/>
      <point x="78" y="612"/>
      <point x="139" y="680"/>
    </contour>
  </outline>
</glyph>
<glyph name="cedilla" format="2">
  <advance width="266"/>
  <unicode hex="00B8"/>
  <outline>
    <contour>
      <point x="156" y="0" type="line"/>
      <point x="135" y="0" type="line"/>
      <point x="97" y="-46" type="line"/>
      <point x="94" y="-67" type="line"/>
      <point x="115" y="-67"/>
      <point x="135" y="-67"/>
      <point x="151" y="-67" type="curve" smooth="yes"/>
      <point x="193" y="-67"/>
      <point x="218" y="-96"/>
      <point x="211" y="-136" type="curve" smooth="yes"/>
      <point x="199" y="-199"/>
      <point x="143" y="-206"/>
      <point x="126" y="-207" type="curve" smooth="yes"/>
      <point x="74" y="-210"/>
      <point x="35" y="-196"/>
      <point x="35" y="-196" type="curve"/>
      <point x="31" y="-204"/>
      <point x="29" y="-206"/>
      <point x="26" y="-213" type="curve"/>
      <point x="58" y="-221"/>
      <point x="78" y="-227"/>
      <point x="124" y="-226" type="curve" smooth="yes"/>
      <point x="167" y="-223"/>
      <point x="219" y="-198"/>
      <point x="230" y="-136" type="curve" smooth="yes"/>
      <point x="238" y="-86"/>
      <point x="206" y="-46"/>
      <point x="154" y="-46" type="curve"/>
      <point x="149" y="-46"/>
      <point x="143" y="-46"/>
      <point x="120" y="-46" type="curve"/>
    </contour>
  </outline>
</glyph>
<glyph name="guillemotright" format="1">
  <advance width="483"/>
  <unicode hex="00BB"/>
  <outline>
    <contour>
      <point x="216" y="266" type="line"/>
      <point x="14" y="96" type="line"/>
      <point x="25" y="79" type="line"/>
      <point x="245" y="266" type="line"/>
      <point x="91" y="453" type="line"/>
      <point x="74" y="440" type="line"/>
    </contour>
    <contour>
      <point x="435" y="266" type="line"/>
      <point x="233" y="96" type="line"/>
      <point x="245" y="79" type="line"/>
      <point x="464" y="266" type="line"/>
      <point x="311" y="453" type="line"/>
      <point x="293" y="440" type="line"/>
    </contour>
  </outline>
</glyph>
<glyph name="Agrave" format="2">
  <advance width="519"/>
  <unicode hex="00C0"/>
  <outline>
    <contour>
      <point x="492" y="0" type="line"/>
      <point x="370" y="698" type="line"/>
      <point x="356" y="698" type="line"/>
      <point x="-12" y="0" type="line"/>
      <point x="8" y="0" type="line"/>
      <point x="155" y="280" type="line"/>
      <point x="422" y="280" type="line"/>
      <point x="471" y="0" type="line"/>
    </contour>
    <contour>
      <point x="166" y="299" type="line"/>
      <point x="356" y="658" type="line"/>
      <point x="419" y="299" type="line"/>
    </contour>
    <contour>
      <point x="318" y="840" type="curve"/>
      <point x="355" y="740" type="line"/>
      <point x="376" y="740" type="line"/>
      <point x="345" y="855" type="line" smooth="yes"/>
      <point x="343" y="864"/>
      <point x="335" y="869"/>
      <point x="325" y="864" type="curve" smooth="yes"/>
      <point x="315" y="859"/>
      <point x="313" y="849"/>
    </contour>
  </outline>
</glyph>
<glyph name="Aacute" format="2">
  <advance width="519"/>
  <unicode hex="00C1"/>
  <outline>
    <contour>
      <point x="492" y="0" type="line"/>
      <point x="370" y="698" type="line"/>
      <point x="356" y="698" type="line"/>
      <point x="-12" y="0" type="line"/>
      <point x="8" y="0" type="line"/>
      <point x="155" y="280" type="line"/>
      <point x="422" y="280" type="line"/>
      <point x="471" y="0" type="line"/>
    </contour>
    <contour>
      <point x="166" y="299" type="line"/>
      <point x="356" y="658" type="line"/>
      <point x="419" y="299" type="line"/>
    </contour>
    <contour>
      <point x="443" y="871" type="curve" smooth="yes"/>
      <point x="362" y="741" type="line"/>
      <point x="386" y="741" type="line"/>
      <point x="468" y="856" type="line"/>
      <point x="476" y="865"/>
      <point x="478" y="877"/>
      <point x="469" y="882" type="curve"/>
      <point x="461" y="887"/>
      <point x="449" y="881"/>
    </contour>
  </outline>
</glyph>
<glyph name="Acircumflex" format="2">
  <advance width="524"/>
  <unicode hex="00C2"/>
  <outline>
    <contour>
      <point x="492" y="0" type="line"/>
      <point x="370" y="698" type="line"/>
      <point x="356" y="698" type="line"/>
      <point x="-12" y="0" type="line"/>
      <point x="8" y="0" type="line"/>
      <point x="155" y="280" type="line"/>
      <point x="423" y="280" type="line"/>
      <point x="471" y="0" type="line"/>
    </contour>
    <contour>
      <point x="166" y="299" type="line"/>
      <point x="356" y="658" type="line"/>
      <point x="419" y="299" type="line"/>
    </contour>
    <contour>
      <point x="257" y="756" type="line"/>
      <point x="268" y="741" type="line"/>
      <point x="395" y="846" type="line"/>
      <point x="482" y="741" type="line"/>
      <point x="500" y="757" type="line"/>
      <point x="400" y="875" type="line"/>
    </contour>
  </outline>
</glyph>
<glyph name="Atilde" format="2">
  <advance width="523"/>
  <unicode hex="00C3"/>
  <outline>
    <contour>
      <point x="492" y="0" type="line"/>
      <point x="370" y="698" type="line"/>
      <point x="356" y="698" type="line"/>
      <point x="-12" y="0" type="line"/>
      <point x="8" y="0" type="line"/>
      <point x="155" y="280" type="line"/>
      <point x="422" y="280" type="line"/>
      <point x="471" y="0" type="line"/>
    </contour>
    <contour>
      <point x="166" y="299" type="line"/>
      <point x="356" y="658" type="line"/>
      <point x="419" y="299" type="line"/>
    </contour>
    <contour>
      <point x="500" y="787" type="curve"/>
      <point x="495" y="804" type="line"/>
      <point x="468" y="785"/>
      <point x="452" y="781"/>
      <point x="441" y="781" type="curve" smooth="yes"/>
      <point x="407" y="780"/>
      <point x="375" y="813"/>
      <point x="332" y="813" type="curve" smooth="yes"/>
      <point x="312" y="812"/>
      <point x="289" y="805"/>
      <point x="265" y="783" type="curve"/>
      <point x="273" y="766" type="line"/>
      <point x="278" y="771"/>
      <point x="300" y="790"/>
      <point x="325" y="791" type="curve" smooth="yes"/>
      <point x="364" y="791"/>
      <point x="394" y="759"/>
      <point x="436" y="759" type="curve" smooth="yes"/>
      <point x="456" y="760"/>
      <point x="477" y="767"/>
    </contour>
  </outline>
</glyph>
<glyph name="Adieresis" format="2">
  <advance width="519"/>
  <unicode hex="00C4"/>
  <outline>
    <contour>
      <point x="492" y="0" type="line"/>
      <point x="370" y="698" type="line"/>
      <point x="356" y="698" type="line"/>
      <point x="-12" y="0" type="line"/>
      <point x="8" y="0" type="line"/>
      <point x="155" y="280" type="line"/>
      <point x="422" y="280" type="line"/>
      <point x="471" y="0" type="line"/>
    </contour>
    <contour>
      <point x="166" y="299" type="line"/>
      <point x="356" y="658" type="line"/>
      <point x="419" y="299" type="line"/>
    </contour>
    <contour>
      <point x="468" y="817" type="curve" smooth="yes"/>
      <point x="459" y="817"/>
      <point x="449" y="810"/>
      <point x="448" y="801" type="curve"/>
      <point x="446" y="791"/>
      <point x="453" y="783"/>
      <point x="462" y="783" type="curve" smooth="yes"/>
      <point x="472" y="783"/>
      <point x="479" y="791"/>
      <point x="481" y="801" type="curve"/>
      <point x="482" y="810"/>
      <point x="478" y="817"/>
    </contour>
    <contour>
      <point x="324" y="801" type="curve"/>
      <point x="325" y="810"/>
      <point x="319" y="817"/>
      <point x="311" y="817" type="curve" smooth="yes"/>
      <point x="301" y="817"/>
      <point x="291" y="810"/>
      <point x="290" y="801" type="curve"/>
      <point x="288" y="791"/>
      <point x="295" y="783"/>
      <point x="305" y="783" type="curve" smooth="yes"/>
      <point x="313" y="783"/>
      <point x="322" y="791"/>
    </contour>
  </outline>
</glyph>
<glyph name="Aring" format="2">
  <advance width="524"/>
  <unicode hex="00C5"/>
  <outline>
    <contour>
      <point x="492" y="0" type="line"/>
      <point x="374" y="674" type="line"/>
      <point x="343" y="674" type="line"/>
      <point x="-12" y="0" type="line"/>
      <point x="8" y="0" type="line"/>
      <point x="155" y="279" type="line"/>
      <point x="423" y="279" type="line"/>
      <point x="471" y="0" type="line"/>
    </contour>
    <contour>
      <point x="166" y="299" type="line"/>
      <point x="356" y="658" type="line"/>
      <point x="419" y="299" type="line"/>
    </contour>
    <contour>
      <point x="355" y="660" type="curve" smooth="yes"/>
      <point x="419" y="660"/>
      <point x="479" y="711"/>
      <point x="490" y="773" type="curve" smooth="yes"/>
      <point x="501" y="836"/>
      <point x="459" y="888"/>
      <point x="395" y="888" type="curve" smooth="yes"/>
      <point x="333" y="888"/>
      <point x="273" y="836"/>
      <point x="262" y="773" type="curve" smooth="yes"/>
      <point x="251" y="711"/>
      <point x="293" y="660"/>
    </contour>
    <contour>
      <point x="470" y="773" type="curve" smooth="yes"/>
      <point x="461" y="722"/>
      <point x="411" y="680"/>
      <point x="358" y="680" type="curve" smooth="yes"/>
      <point x="307" y="680"/>
      <point x="273" y="722"/>
      <point x="282" y="773" type="curve" smooth="yes"/>
      <point x="291" y="826"/>
      <point x="341" y="868"/>
      <point x="392" y="868" type="curve" smooth="yes"/>
      <point x="445" y="868"/>
      <point x="479" y="826"/>
    </contour>
  </outline>
</glyph>
<glyph name="Ccedilla" format="2">
  <advance width="433"/>
  <unicode hex="00C7"/>
  <outline>
    <contour>
      <point x="428" y="658" type="curve"/>
      <point x="439" y="675" type="line"/>
      <point x="401" y="697"/>
      <point x="356" y="708"/>
      <point x="302" y="708" type="curve" smooth="yes"/>
      <point x="260" y="708"/>
      <point x="223" y="700"/>
      <point x="191" y="683" type="curve" smooth="yes"/>
      <point x="127" y="647"/>
      <point x="90" y="603"/>
      <point x="72" y="503" type="curve" smooth="yes"/>
      <point x="16" y="183" type="line" smooth="yes"/>
      <point x="1" y="99"/>
      <point x="24" y="42"/>
      <point x="68" y="15" type="curve" smooth="yes"/>
      <point x="112" y="-10"/>
      <point x="161" y="-10"/>
      <point x="181" y="-10" type="curve" smooth="yes"/>
      <point x="232" y="-10"/>
      <point x="288" y="1"/>
      <point x="349" y="23" type="curve"/>
      <point x="346" y="41" type="line"/>
      <point x="283" y="18"/>
      <point x="229" y="7"/>
      <point x="190" y="7" type="curve" smooth="yes"/>
      <point x="151" y="7"/>
      <point x="108" y="12"/>
      <point x="81" y="32" type="curve" smooth="yes"/>
      <point x="44" y="58"/>
      <point x="20" y="106"/>
      <point x="35" y="185" type="curve" smooth="yes"/>
      <point x="93" y="512" type="line" smooth="yes"/>
      <point x="103" y="572"/>
      <point x="134" y="619"/>
      <point x="162" y="643" type="curve" smooth="yes"/>
      <point x="192" y="668"/>
      <point x="242" y="689"/>
      <point x="302" y="689" type="curve" smooth="yes"/>
      <point x="343" y="689"/>
      <point x="384" y="679"/>
    </contour>
    <contour>
      <point x="189" y="-53" type="curve" smooth="yes"/>
      <point x="184" y="-53"/>
      <point x="178" y="-53"/>
      <point x="155" y="-53" type="curve"/>
      <point x="189" y="-7" type="line"/>
      <point x="168" y="-7" type="line"/>
      <point x="132" y="-53" type="line"/>
      <point x="129" y="-73" type="line"/>
      <point x="150" y="-73"/>
      <point x="169" y="-73"/>
      <point x="186" y="-73" type="curve" smooth="yes"/>
      <point x="228" y="-73"/>
      <point x="253" y="-102"/>
      <point x="245" y="-143" type="curve" smooth="yes"/>
      <point x="234" y="-206"/>
      <point x="178" y="-212"/>
      <point x="161" y="-213" type="curve" smooth="yes"/>
      <point x="109" y="-216"/>
      <point x="69" y="-202"/>
      <point x="68" y="-202" type="curve"/>
      <point x="64" y="-210"/>
      <point x="63" y="-212"/>
      <point x="60" y="-219" type="curve"/>
      <point x="91" y="-228"/>
      <point x="113" y="-233"/>
      <point x="159" y="-231" type="curve" smooth="yes"/>
      <point x="202" y="-230"/>
      <point x="252" y="-205"/>
      <point x="263" y="-142" type="curve" smooth="yes"/>
      <point x="272" y="-91"/>
      <point x="240" y="-53"/>
    </contour>
  </outline>
</glyph>
<glyph name="Egrave" format="2">
  <advance width="441"/>
  <unicode hex="00C8"/>
  <outline>
    <contour>
      <point x="1" y="0" type="line"/>
      <point x="332" y="0" type="line"/>
      <point x="335" y="19" type="line"/>
      <point x="23" y="19" type="line"/>
      <point x="89" y="393" type="line"/>
      <point x="310" y="393" type="line"/>
      <point x="319" y="411" type="line"/>
      <point x="92" y="411" type="line"/>
      <point x="139" y="679" type="line"/>
      <point x="453" y="679" type="line"/>
      <point x="457" y="698" type="line"/>
      <point x="124" y="698" type="line"/>
    </contour>
    <contour>
      <point x="248" y="843" type="curve"/>
      <point x="286" y="743" type="line"/>
      <point x="308" y="743" type="line"/>
      <point x="276" y="857" type="line"/>
      <point x="274" y="866"/>
      <point x="265" y="871"/>
      <point x="256" y="866" type="curve" smooth="yes"/>
      <point x="247" y="861"/>
      <point x="246" y="851"/>
    </contour>
  </outline>
</glyph>
<glyph name="Eacute" format="2">
  <advance width="441"/>
  <unicode hex="00C9"/>
  <outline>
    <contour>
      <point x="1" y="0" type="line"/>
      <point x="332" y="0" type="line"/>
      <point x="335" y="19" type="line"/>
      <point x="23" y="19" type="line"/>
      <point x="89" y="393" type="line"/>
      <point x="310" y="393" type="line"/>
      <point x="319" y="411" type="line"/>
      <point x="92" y="411" type="line"/>
      <point x="139" y="679" type="line"/>
      <point x="453" y="679" type="line"/>
      <point x="457" y="698" type="line"/>
      <point x="124" y="698" type="line"/>
    </contour>
    <contour>
      <point x="366" y="871" type="curve"/>
      <point x="287" y="743" type="line"/>
      <point x="310" y="743" type="line"/>
      <point x="392" y="856" type="line" smooth="yes"/>
      <point x="399" y="865"/>
      <point x="401" y="877"/>
      <point x="392" y="882" type="curve"/>
      <point x="384" y="887"/>
      <point x="373" y="881"/>
    </contour>
  </outline>
</glyph>
<glyph name="Ecircumflex" format="2">
  <advance width="441"/>
  <unicode hex="00CA"/>
  <outline>
    <contour>
      <point x="1" y="0" type="line"/>
      <point x="332" y="0" type="line"/>
      <point x="335" y="19" type="line"/>
      <point x="23" y="19" type="line"/>
      <point x="89" y="393" type="line"/>
      <point x="310" y="393" type="line"/>
      <point x="319" y="411" type="line"/>
      <point x="92" y="411" type="line"/>
      <point x="139" y="679" type="line"/>
      <point x="453" y="679" type="line"/>
      <point x="457" y="698" type="line"/>
      <point x="124" y="698" type="line"/>
    </contour>
    <contour>
      <point x="179" y="758" type="line"/>
      <point x="191" y="744" type="line"/>
      <point x="318" y="847" type="line"/>
      <point x="405" y="743" type="line"/>
      <point x="422" y="758" type="line"/>
      <point x="323" y="876" type="line"/>
    </contour>
  </outline>
</glyph>
<glyph name="Edieresis" format="2">
  <advance width="441"/>
  <unicode hex="00CB"/>
  <outline>
    <contour>
      <point x="1" y="0" type="line"/>
      <point x="332" y="0" type="line"/>
      <point x="335" y="19" type="line"/>
      <point x="23" y="19" type="line"/>
      <point x="89" y="393" type="line"/>
      <point x="310" y="393" type="line"/>
      <point x="319" y="411" type="line"/>
      <point x="92" y="411" type="line"/>
      <point x="139" y="679" type="line"/>
      <point x="453" y="679" type="line"/>
      <point x="457" y="698" type="line"/>
      <point x="124" y="698" type="line"/>
    </contour>
    <contour>
      <point x="405" y="802" type="curve" smooth="yes"/>
      <point x="407" y="811"/>
      <point x="400" y="818"/>
      <point x="390" y="818" type="curve" smooth="yes"/>
      <point x="381" y="818"/>
      <point x="373" y="811"/>
      <point x="371" y="802" type="curve" smooth="yes"/>
      <point x="369" y="792"/>
      <point x="375" y="784"/>
      <point x="384" y="784" type="curve" smooth="yes"/>
      <point x="394" y="784"/>
      <point x="403" y="792"/>
    </contour>
    <contour>
      <point x="247" y="802" type="curve" smooth="yes"/>
      <point x="249" y="811"/>
      <point x="242" y="818"/>
      <point x="233" y="818" type="curve" smooth="yes"/>
      <point x="223" y="818"/>
      <point x="214" y="811"/>
      <point x="212" y="802" type="curve" smooth="yes"/>
      <point x="210" y="792"/>
      <point x="217" y="784"/>
      <point x="227" y="784" type="curve" smooth="yes"/>
      <point x="236" y="784"/>
      <point x="245" y="792"/>
    </contour>
  </outline>
</glyph>
<glyph name="Igrave" format="2">
  <advance width="207"/>
  <unicode hex="00CC"/>
  <outline>
    <contour>
      <point x="47" y="679" type="line"/>
      <point x="133" y="676" type="line"/>
      <point x="14" y="0" type="line"/>
      <point x="32" y="0" type="line"/>
      <point x="155" y="698" type="line"/>
      <point x="51" y="698" type="line"/>
    </contour>
    <contour>
      <point x="213" y="855" type="curve"/>
      <point x="141" y="740" type="line"/>
      <point x="162" y="740" type="line"/>
      <point x="235" y="840" type="line" smooth="yes"/>
      <point x="242" y="849"/>
      <point x="244" y="859"/>
      <point x="236" y="864" type="curve" smooth="yes"/>
      <point x="228" y="869"/>
      <point x="218" y="864"/>
    </contour>
  </outline>
</glyph>
<glyph name="Icircumflex" format="2">
  <advance width="246"/>
  <unicode hex="00CE"/>
  <outline>
    <contour>
      <point x="48" y="679" type="line"/>
      <point x="134" y="676" type="line"/>
      <point x="15" y="0" type="line"/>
      <point x="34" y="0" type="line"/>
      <point x="157" y="698" type="line"/>
      <point x="52" y="698" type="line"/>
    </contour>
    <contour>
      <point x="35" y="754" type="line"/>
      <point x="47" y="739" type="line"/>
      <point x="173" y="843" type="line"/>
      <point x="259" y="738" type="line"/>
      <point x="277" y="754" type="line"/>
      <point x="178" y="871" type="line"/>
    </contour>
  </outline>
</glyph>
<glyph name="Idieresis" format="2">
  <advance width="201"/>
  <unicode hex="00CF"/>
  <outline>
    <contour>
      <point x="49" y="679" type="line"/>
      <point x="135" y="676" type="line"/>
      <point x="16" y="0" type="line"/>
      <point x="35" y="0" type="line"/>
      <point x="158" y="698" type="line"/>
      <point x="53" y="698" type="line"/>
    </contour>
    <contour>
      <point x="219" y="817" type="curve" smooth="yes"/>
      <point x="210" y="817"/>
      <point x="200" y="810"/>
      <point x="199" y="800" type="curve"/>
      <point x="197" y="791"/>
      <point x="204" y="783"/>
      <point x="213" y="783" type="curve" smooth="yes"/>
      <point x="222" y="783"/>
      <point x="231" y="791"/>
      <point x="233" y="800" type="curve"/>
      <point x="234" y="810"/>
      <point x="228" y="817"/>
    </contour>
    <contour>
      <point x="61" y="817" type="curve" smooth="yes"/>
      <point x="51" y="817"/>
      <point x="42" y="810"/>
      <point x="41" y="800" type="curve"/>
      <point x="39" y="791"/>
      <point x="45" y="783"/>
      <point x="55" y="783" type="curve" smooth="yes"/>
      <point x="64" y="783"/>
      <point x="73" y="791"/>
      <point x="75" y="800" type="curve"/>
      <point x="76" y="810"/>
      <point x="70" y="817"/>
    </contour>
  </outline>
</glyph>
<glyph name="Eth" format="1">
  <advance width="523"/>
  <unicode hex="00D0"/>
  <outline>
    <contour>
      <point x="79" y="393" type="line"/>
      <point x="310" y="393" type="line"/>
      <point x="319" y="411" type="line"/>
      <point x="82" y="411" type="line"/>
    </contour>
    <component base="D"/>
  </outline>
</glyph>
<glyph name="Ntilde" format="2">
  <advance width="612"/>
  <unicode hex="00D1"/>
  <outline>
    <contour>
      <point x="615" y="698" type="line"/>
      <point x="598" y="698" type="line"/>
      <point x="480" y="32" type="line"/>
      <point x="141" y="698" type="line"/>
      <point x="124" y="698" type="line"/>
      <point x="1" y="0" type="line"/>
      <point x="18" y="0" type="line"/>
      <point x="135" y="668" type="line"/>
      <point x="475" y="0" type="line"/>
      <point x="492" y="0" type="line"/>
    </contour>
    <contour>
      <point x="504" y="794" type="curve"/>
      <point x="498" y="812" type="line"/>
      <point x="471" y="793"/>
      <point x="456" y="789"/>
      <point x="445" y="789" type="curve" smooth="yes"/>
      <point x="409" y="788"/>
      <point x="377" y="822"/>
      <point x="334" y="821" type="curve" smooth="yes"/>
      <point x="314" y="820"/>
      <point x="292" y="813"/>
      <point x="267" y="791" type="curve"/>
      <point x="275" y="773" type="line"/>
      <point x="282" y="779"/>
      <point x="303" y="798"/>
      <point x="328" y="799" type="curve" smooth="yes"/>
      <point x="366" y="799"/>
      <point x="398" y="767"/>
      <point x="439" y="768" type="curve" smooth="yes"/>
      <point x="458" y="768"/>
      <point x="479" y="774"/>
    </contour>
  </outline>
</glyph>
<glyph name="Ograve" format="2">
  <advance width="512"/>
  <unicode hex="00D2"/>
  <outline>
    <contour>
      <point x="77" y="506" type="curve" smooth="yes"/>
      <point x="20" y="185" type="line" smooth="yes"/>
      <point x="-3" y="56"/>
      <point x="79" y="-11"/>
      <point x="196" y="-11" type="curve" smooth="yes"/>
      <point x="321" y="-11"/>
      <point x="417" y="63"/>
      <point x="438" y="185" type="curve" smooth="yes"/>
      <point x="495" y="505" type="line" smooth="yes"/>
      <point x="517" y="635"/>
      <point x="455" y="714"/>
      <point x="325" y="714" type="curve" smooth="yes"/>
      <point x="193" y="714"/>
      <point x="101" y="642"/>
    </contour>
    <contour>
      <point x="39" y="184" type="curve" smooth="yes"/>
      <point x="96" y="506" type="line" smooth="yes"/>
      <point x="116" y="621"/>
      <point x="193" y="693"/>
      <point x="319" y="693" type="curve" smooth="yes"/>
      <point x="446" y="693"/>
      <point x="498" y="624"/>
      <point x="477" y="508" type="curve" smooth="yes"/>
      <point x="420" y="184" type="line" smooth="yes"/>
      <point x="399" y="66"/>
      <point x="306" y="8"/>
      <point x="199" y="8" type="curve" smooth="yes"/>
      <point x="92" y="8"/>
      <point x="20" y="77"/>
    </contour>
    <contour>
      <point x="282" y="851" type="curve"/>
      <point x="319" y="751" type="line"/>
      <point x="340" y="751" type="line"/>
      <point x="309" y="866" type="line" smooth="yes"/>
      <point x="307" y="875"/>
      <point x="299" y="880"/>
      <point x="290" y="875" type="curve" smooth="yes"/>
      <point x="280" y="870"/>
      <point x="278" y="860"/>
    </contour>
  </outline>
</glyph>
<glyph name="Otilde" format="2">
  <advance width="512"/>
  <unicode hex="00D5"/>
  <outline>
    <contour>
      <point x="77" y="506" type="curve" smooth="yes"/>
      <point x="20" y="185" type="line" smooth="yes"/>
      <point x="-3" y="56"/>
      <point x="79" y="-11"/>
      <point x="196" y="-11" type="curve" smooth="yes"/>
      <point x="321" y="-11"/>
      <point x="417" y="63"/>
      <point x="438" y="185" type="curve" smooth="yes"/>
      <point x="495" y="505" type="line" smooth="yes"/>
      <point x="517" y="635"/>
      <point x="455" y="714"/>
      <point x="325" y="714" type="curve" smooth="yes"/>
      <point x="193" y="714"/>
      <point x="101" y="642"/>
    </contour>
    <contour>
      <point x="39" y="184" type="curve" smooth="yes"/>
      <point x="96" y="506" type="line" smooth="yes"/>
      <point x="116" y="621"/>
      <point x="193" y="693"/>
      <point x="319" y="693" type="curve" smooth="yes"/>
      <point x="446" y="693"/>
      <point x="498" y="624"/>
      <point x="477" y="508" type="curve" smooth="yes"/>
      <point x="420" y="184" type="line" smooth="yes"/>
      <point x="399" y="66"/>
      <point x="306" y="8"/>
      <point x="199" y="8" type="curve" smooth="yes"/>
      <point x="92" y="8"/>
      <point x="20" y="77"/>
    </contour>
    <contour>
      <point x="453" y="787" type="curve"/>
      <point x="447" y="804" type="line"/>
      <point x="421" y="785"/>
      <point x="405" y="781"/>
      <point x="394" y="781" type="curve" smooth="yes"/>
      <point x="360" y="780"/>
      <point x="327" y="813"/>
      <point x="284" y="812" type="curve" smooth="yes"/>
      <point x="264" y="812"/>
      <point x="242" y="805"/>
      <point x="218" y="783" type="curve"/>
      <point x="225" y="765" type="line"/>
      <point x="231" y="771"/>
      <point x="253" y="790"/>
      <point x="278" y="790" type="curve" smooth="yes"/>
      <point x="317" y="791"/>
      <point x="347" y="758"/>
      <point x="389" y="759" type="curve" smooth="yes"/>
      <point x="407" y="759"/>
      <point x="428" y="766"/>
    </contour>
  </outline>
</glyph>
<glyph name="Odieresis" format="2">
  <advance width="512"/>
  <unicode hex="00D6"/>
  <outline>
    <contour>
      <point x="77" y="506" type="curve" smooth="yes"/>
      <point x="20" y="185" type="line" smooth="yes"/>
      <point x="-3" y="56"/>
      <point x="79" y="-11"/>
      <point x="196" y="-11" type="curve" smooth="yes"/>
      <point x="321" y="-11"/>
      <point x="417" y="63"/>
      <point x="438" y="185" type="curve" smooth="yes"/>
      <point x="495" y="505" type="line" smooth="yes"/>
      <point x="517" y="635"/>
      <point x="455" y="714"/>
      <point x="325" y="714" type="curve" smooth="yes"/>
      <point x="193" y="714"/>
      <point x="101" y="642"/>
    </contour>
    <contour>
      <point x="39" y="184" type="curve" smooth="yes"/>
      <point x="96" y="506" type="line" smooth="yes"/>
      <point x="116" y="621"/>
      <point x="193" y="693"/>
      <point x="319" y="693" type="curve" smooth="yes"/>
      <point x="446" y="693"/>
      <point x="498" y="624"/>
      <point x="477" y="508" type="curve" smooth="yes"/>
      <point x="420" y="184" type="line" smooth="yes"/>
      <point x="399" y="66"/>
      <point x="306" y="8"/>
      <point x="199" y="8" type="curve" smooth="yes"/>
      <point x="92" y="8"/>
      <point x="20" y="77"/>
    </contour>
    <contour>
      <point x="421" y="827" type="curve" smooth="yes"/>
      <point x="412" y="827"/>
      <point x="403" y="820"/>
      <point x="401" y="810" type="curve"/>
      <point x="400" y="801"/>
      <point x="406" y="793"/>
      <point x="415" y="793" type="curve" smooth="yes"/>
      <point x="424" y="793"/>
      <point x="434" y="801"/>
      <point x="435" y="810" type="curve"/>
      <point x="437" y="820"/>
      <point x="430" y="827"/>
    </contour>
    <contour>
      <point x="263" y="827" type="curve" smooth="yes"/>
      <point x="254" y="827"/>
      <point x="246" y="820"/>
      <point x="244" y="810" type="curve"/>
      <point x="243" y="801"/>
      <point x="248" y="793"/>
      <point x="257" y="793" type="curve" smooth="yes"/>
      <point x="267" y="793"/>
      <point x="277" y="801"/>
      <point x="278" y="810" type="curve"/>
      <point x="280" y="820"/>
      <point x="273" y="827"/>
    </contour>
  </outline>
</glyph>
<glyph name="multiply" format="2">
  <advance width="336"/>
  <unicode hex="00D7"/>
  <outline>
    <contour>
      <point x="171" y="343" type="line"/>
      <point x="79" y="484" type="line"/>
      <point x="64" y="472" type="line"/>
      <point x="156" y="329" type="line"/>
      <point x="16" y="190" type="line"/>
      <point x="28" y="179" type="line"/>
      <point x="165" y="315" type="line"/>
      <point x="252" y="179" type="line"/>
      <point x="272" y="193" type="line"/>
      <point x="182" y="330" type="line"/>
      <point x="322" y="470" type="line"/>
      <point x="311" y="483" type="line"/>
    </contour>
  </outline>
</glyph>
<glyph name="Oslash" format="2">
  <advance width="530"/>
  <unicode hex="00D8"/>
  <outline>
    <component base="O"/><contour>
      <point x="39" y="-113" type="line"/>
      <point x="59" y="-113" type="line"/>
      <point x="545" y="815" type="line"/>
      <point x="524" y="815" type="line"/>
    </contour>
  







</outline>
</glyph>
<glyph name="Ucircumflex" format="2">
  <advance width="521"/>
  <unicode hex="00DB"/>
  <outline>
    <contour>
      <point x="435" y="185" type="curve" smooth="yes"/>
      <point x="526" y="698" type="line"/>
      <point x="507" y="698" type="line"/>
      <point x="416" y="184" type="line" smooth="yes"/>
      <point x="405" y="122"/>
      <point x="379" y="78"/>
      <point x="337" y="50" type="curve" smooth="yes"/>
      <point x="296" y="22"/>
      <point x="248" y="8"/>
      <point x="196" y="8" type="curve" smooth="yes"/>
      <point x="143" y="8"/>
      <point x="100" y="23"/>
      <point x="68" y="52" type="curve" smooth="yes"/>
      <point x="36" y="81"/>
      <point x="25" y="125"/>
      <point x="35" y="184" type="curve" smooth="yes"/>
      <point x="126" y="698" type="line"/>
      <point x="108" y="698" type="line"/>
      <point x="17" y="185" type="line" smooth="yes"/>
      <point x="5" y="118"/>
      <point x="16" y="68"/>
      <point x="52" y="36" type="curve" smooth="yes"/>
      <point x="88" y="4"/>
      <point x="135" y="-11"/>
      <point x="193" y="-11" type="curve" smooth="yes"/>
      <point x="249" y="-11"/>
      <point x="300" y="4"/>
      <point x="347" y="36" type="curve" smooth="yes"/>
      <point x="393" y="68"/>
      <point x="423" y="118"/>
    </contour>
    <contour>
      <point x="205" y="758" type="line"/>
      <point x="218" y="744" type="line"/>
      <point x="344" y="847" type="line"/>
      <point x="430" y="744" type="line"/>
      <point x="448" y="759" type="line"/>
      <point x="349" y="877" type="line"/>
    </contour>
  </outline>
</glyph>
<glyph name="Udieresis" format="2">
  <advance width="521"/>
  <unicode hex="00DC"/>
  <outline>
    <contour>
      <point x="435" y="185" type="curve" smooth="yes"/>
      <point x="526" y="698" type="line"/>
      <point x="507" y="698" type="line"/>
      <point x="416" y="184" type="line" smooth="yes"/>
      <point x="405" y="122"/>
      <point x="379" y="78"/>
      <point x="337" y="50" type="curve" smooth="yes"/>
      <point x="296" y="22"/>
      <point x="248" y="8"/>
      <point x="196" y="8" type="curve" smooth="yes"/>
      <point x="143" y="8"/>
      <point x="100" y="23"/>
      <point x="68" y="52" type="curve" smooth="yes"/>
      <point x="36" y="81"/>
      <point x="25" y="125"/>
      <point x="35" y="184" type="curve" smooth="yes"/>
      <point x="126" y="698" type="line"/>
      <point x="108" y="698" type="line"/>
      <point x="17" y="185" type="line" smooth="yes"/>
      <point x="5" y="118"/>
      <point x="16" y="68"/>
      <point x="52" y="36" type="curve" smooth="yes"/>
      <point x="88" y="4"/>
      <point x="135" y="-11"/>
      <point x="193" y="-11" type="curve" smooth="yes"/>
      <point x="249" y="-11"/>
      <point x="300" y="4"/>
      <point x="347" y="36" type="curve" smooth="yes"/>
      <point x="393" y="68"/>
      <point x="423" y="118"/>
    </contour>
    <contour>
      <point x="430" y="803" type="curve" smooth="yes"/>
      <point x="432" y="812"/>
      <point x="426" y="820"/>
      <point x="417" y="820" type="curve" smooth="yes"/>
      <point x="407" y="820"/>
      <point x="398" y="812"/>
      <point x="396" y="803" type="curve" smooth="yes"/>
      <point x="394" y="793"/>
      <point x="401" y="787"/>
      <point x="411" y="787" type="curve" smooth="yes"/>
      <point x="420" y="787"/>
      <point x="428" y="793"/>
    </contour>
    <contour>
      <point x="272" y="803" type="curve" smooth="yes"/>
      <point x="274" y="812"/>
      <point x="268" y="820"/>
      <point x="258" y="820" type="curve" smooth="yes"/>
      <point x="250" y="820"/>
      <point x="241" y="812"/>
      <point x="239" y="803" type="curve" smooth="yes"/>
      <point x="237" y="793"/>
      <point x="244" y="787"/>
      <point x="252" y="787" type="curve" smooth="yes"/>
      <point x="262" y="787"/>
      <point x="270" y="793"/>
    </contour>
  </outline>
</glyph>
<glyph name="Yacute" format="2">
  <advance width="512"/>
  <unicode hex="00DD"/>
  <outline>
    <contour>
      <point x="418" y="145" type="curve" smooth="yes"/>
      <point x="516" y="698" type="line"/>
      <point x="496" y="698" type="line"/>
      <point x="448" y="430" type="line" smooth="yes"/>
      <point x="440" y="381"/>
      <point x="409" y="333"/>
      <point x="366" y="304" type="curve" smooth="yes"/>
      <point x="326" y="276"/>
      <point x="279" y="263"/>
      <point x="226" y="263" type="curve" smooth="yes"/>
      <point x="156" y="263"/>
      <point x="109" y="279"/>
      <point x="79" y="311" type="curve" smooth="yes"/>
      <point x="48" y="343"/>
      <point x="39" y="393"/>
      <point x="50" y="457" type="curve" smooth="yes"/>
      <point x="93" y="698" type="line"/>
      <point x="74" y="698" type="line"/>
      <point x="30" y="452" type="line" smooth="yes"/>
      <point x="18" y="383"/>
      <point x="31" y="331"/>
      <point x="66" y="296" type="curve" smooth="yes"/>
      <point x="99" y="262"/>
      <point x="152" y="244"/>
      <point x="223" y="244" type="curve" smooth="yes"/>
      <point x="345" y="244"/>
      <point x="412" y="313"/>
      <point x="434" y="350" type="curve"/>
      <point x="399" y="152" type="line" smooth="yes"/>
      <point x="380" y="42"/>
      <point x="324" y="21"/>
      <point x="284" y="11" type="curve"/>
      <point x="287" y="-7" type="line"/>
      <point x="359" y="10"/>
      <point x="403" y="61"/>
    </contour>
    <contour>
      <point x="365" y="856" type="curve"/>
      <point x="294" y="741" type="line"/>
      <point x="315" y="741" type="line"/>
      <point x="388" y="842" type="line"/>
      <point x="395" y="849"/>
      <point x="396" y="860"/>
      <point x="389" y="865" type="curve"/>
      <point x="381" y="869"/>
      <point x="371" y="864"/>
    </contour>
  </outline>
</glyph>
<glyph name="agrave" format="2">
  <advance width="445"/>
  <unicode hex="00E0"/>
  <outline>
    <contour>
      <point x="407" y="345" type="curve"/>
      <point x="353" y="374"/>
      <point x="287" y="403"/>
      <point x="214" y="403" type="curve" smooth="yes"/>
      <point x="80" y="403"/>
      <point x="37" y="315"/>
      <point x="26" y="251" type="curve"/>
      <point x="26" y="251"/>
      <point x="11" y="168"/>
      <point x="11" y="168" type="curve"/>
      <point x="-10" y="50"/>
      <point x="39" y="-10"/>
      <point x="184" y="-10" type="curve" smooth="yes"/>
      <point x="225" y="-10"/>
      <point x="366" y="0"/>
      <point x="366" y="0" type="curve"/>
      <point x="366" y="0"/>
      <point x="403" y="212"/>
      <point x="425" y="335" type="curve" smooth="yes"/>
      <point x="435" y="395"/>
      <point x="423" y="441"/>
      <point x="387" y="470" type="curve" smooth="yes"/>
      <point x="358" y="495"/>
      <point x="312" y="507"/>
      <point x="247" y="507" type="curve"/>
      <point x="243" y="488" type="line"/>
      <point x="311" y="488"/>
      <point x="346" y="477"/>
      <point x="372" y="457" type="curve" smooth="yes"/>
      <point x="403" y="431"/>
      <point x="416" y="392"/>
    </contour>
    <contour>
      <point x="403" y="322" type="curve"/>
      <point x="403" y="322"/>
      <point x="350" y="18"/>
      <point x="350" y="18" type="curve"/>
      <point x="350" y="18"/>
      <point x="234" y="8"/>
      <point x="187" y="8" type="curve" smooth="yes"/>
      <point x="30" y="4"/>
      <point x="16" y="90"/>
      <point x="29" y="162" type="curve" smooth="yes"/>
      <point x="33" y="185"/>
      <point x="39" y="221"/>
      <point x="44" y="249" type="curve" smooth="yes"/>
      <point x="57" y="323"/>
      <point x="106" y="383"/>
      <point x="209" y="383" type="curve" smooth="yes"/>
      <point x="282" y="383"/>
      <point x="340" y="358"/>
    </contour>
    <contour>
      <point x="220" y="650" type="curve"/>
      <point x="257" y="550" type="line"/>
      <point x="279" y="550" type="line"/>
      <point x="247" y="663" type="line"/>
      <point x="246" y="672"/>
      <point x="237" y="678"/>
      <point x="227" y="673" type="curve" smooth="yes"/>
      <point x="219" y="669"/>
      <point x="218" y="658"/>
    </contour>
  </outline>
</glyph>
<glyph name="aacute" format="2">
  <advance width="446"/>
  <unicode hex="00E1"/>
  <outline>
    <contour>
      <point x="407" y="345" type="curve"/>
      <point x="352" y="374"/>
      <point x="287" y="403"/>
      <point x="214" y="403" type="curve" smooth="yes"/>
      <point x="80" y="403"/>
      <point x="37" y="315"/>
      <point x="26" y="251" type="curve"/>
      <point x="26" y="251"/>
      <point x="11" y="168"/>
      <point x="11" y="168" type="curve"/>
      <point x="-10" y="50"/>
      <point x="39" y="-10"/>
      <point x="184" y="-10" type="curve" smooth="yes"/>
      <point x="225" y="-10"/>
      <point x="366" y="0"/>
      <point x="366" y="0" type="curve"/>
      <point x="366" y="0"/>
      <point x="403" y="212"/>
      <point x="425" y="335" type="curve" smooth="yes"/>
      <point x="435" y="395"/>
      <point x="423" y="441"/>
      <point x="387" y="470" type="curve" smooth="yes"/>
      <point x="358" y="495"/>
      <point x="312" y="507"/>
      <point x="247" y="507" type="curve"/>
      <point x="243" y="488" type="line"/>
      <point x="311" y="488"/>
      <point x="346" y="477"/>
      <point x="372" y="457" type="curve" smooth="yes"/>
      <point x="403" y="431"/>
      <point x="416" y="392"/>
    </contour>
    <contour>
      <point x="403" y="322" type="curve"/>
      <point x="403" y="322"/>
      <point x="350" y="18"/>
      <point x="350" y="18" type="curve"/>
      <point x="350" y="18"/>
      <point x="233" y="8"/>
      <point x="187" y="8" type="curve" smooth="yes"/>
      <point x="30" y="4"/>
      <point x="15" y="90"/>
      <point x="28" y="162" type="curve" smooth="yes"/>
      <point x="32" y="185"/>
      <point x="38" y="221"/>
      <point x="43" y="249" type="curve" smooth="yes"/>
      <point x="56" y="323"/>
      <point x="106" y="383"/>
      <point x="209" y="383" type="curve" smooth="yes"/>
      <point x="282" y="383"/>
      <point x="339" y="358"/>
    </contour>
    <contour>
      <point x="329" y="662" type="curve"/>
      <point x="258" y="548" type="line"/>
      <point x="279" y="548" type="line"/>
      <point x="352" y="648" type="line" smooth="yes"/>
      <point x="358" y="656"/>
      <point x="360" y="667"/>
      <point x="353" y="671" type="curve"/>
      <point x="345" y="675"/>
      <point x="335" y="670"/>
    </contour>
  </outline>
</glyph>
<glyph name="acircumflex" format="2">
  <advance width="447"/>
  <unicode hex="00E2"/>
  <outline>
    <contour>
      <point x="408" y="345" type="curve"/>
      <point x="354" y="374"/>
      <point x="288" y="403"/>
      <point x="215" y="403" type="curve" smooth="yes"/>
      <point x="81" y="403"/>
      <point x="38" y="315"/>
      <point x="27" y="251" type="curve"/>
      <point x="27" y="251"/>
      <point x="12" y="168"/>
      <point x="12" y="168" type="curve"/>
      <point x="-9" y="50"/>
      <point x="40" y="-10"/>
      <point x="185" y="-10" type="curve" smooth="yes"/>
      <point x="226" y="-10"/>
      <point x="367" y="0"/>
      <point x="367" y="0" type="curve"/>
      <point x="367" y="0"/>
      <point x="404" y="212"/>
      <point x="426" y="335" type="curve" smooth="yes"/>
      <point x="436" y="395"/>
      <point x="424" y="441"/>
      <point x="388" y="470" type="curve" smooth="yes"/>
      <point x="359" y="495"/>
      <point x="313" y="507"/>
      <point x="248" y="507" type="curve"/>
      <point x="244" y="488" type="line"/>
      <point x="312" y="488"/>
      <point x="347" y="477"/>
      <point x="373" y="457" type="curve" smooth="yes"/>
      <point x="404" y="431"/>
      <point x="417" y="392"/>
    </contour>
    <contour>
      <point x="404" y="322" type="curve"/>
      <point x="404" y="322"/>
      <point x="351" y="18"/>
      <point x="351" y="18" type="curve"/>
      <point x="351" y="18"/>
      <point x="235" y="8"/>
      <point x="188" y="8" type="curve" smooth="yes"/>
      <point x="31" y="4"/>
      <point x="17" y="90"/>
      <point x="30" y="162" type="curve" smooth="yes"/>
      <point x="34" y="185"/>
      <point x="40" y="221"/>
      <point x="45" y="249" type="curve" smooth="yes"/>
      <point x="58" y="323"/>
      <point x="107" y="383"/>
      <point x="210" y="383" type="curve" smooth="yes"/>
      <point x="283" y="383"/>
      <point x="341" y="358"/>
    </contour>
    <contour>
      <point x="151" y="561" type="line"/>
      <point x="164" y="547" type="line"/>
      <point x="290" y="650" type="line"/>
      <point x="377" y="546" type="line"/>
      <point x="394" y="561" type="line"/>
      <point x="295" y="679" type="line"/>
    </contour>
  </outline>
</glyph>
<glyph name="adieresis" format="2">
  <advance width="448"/>
  <unicode hex="00E4"/>
  <outline>
    <contour>
      <point x="407" y="345" type="curve"/>
      <point x="352" y="374"/>
      <point x="287" y="403"/>
      <point x="214" y="403" type="curve" smooth="yes"/>
      <point x="80" y="403"/>
      <point x="37" y="315"/>
      <point x="26" y="251" type="curve"/>
      <point x="26" y="251"/>
      <point x="11" y="168"/>
      <point x="11" y="168" type="curve"/>
      <point x="-10" y="50"/>
      <point x="39" y="-10"/>
      <point x="184" y="-10" type="curve" smooth="yes"/>
      <point x="225" y="-10"/>
      <point x="366" y="0"/>
      <point x="366" y="0" type="curve"/>
      <point x="366" y="0"/>
      <point x="403" y="212"/>
      <point x="425" y="335" type="curve" smooth="yes"/>
      <point x="435" y="395"/>
      <point x="423" y="441"/>
      <point x="387" y="470" type="curve" smooth="yes"/>
      <point x="358" y="495"/>
      <point x="312" y="507"/>
      <point x="247" y="507" type="curve"/>
      <point x="243" y="488" type="line"/>
      <point x="311" y="488"/>
      <point x="346" y="477"/>
      <point x="372" y="457" type="curve" smooth="yes"/>
      <point x="403" y="431"/>
      <point x="416" y="392"/>
    </contour>
    <contour>
      <point x="403" y="322" type="curve"/>
      <point x="403" y="322"/>
      <point x="350" y="18"/>
      <point x="350" y="18" type="curve"/>
      <point x="350" y="18"/>
      <point x="233" y="8"/>
      <point x="187" y="8" type="curve" smooth="yes"/>
      <point x="30" y="4"/>
      <point x="15" y="90"/>
      <point x="28" y="162" type="curve" smooth="yes"/>
      <point x="32" y="185"/>
      <point x="38" y="221"/>
      <point x="43" y="249" type="curve" smooth="yes"/>
      <point x="56" y="323"/>
      <point x="106" y="383"/>
      <point x="209" y="383" type="curve" smooth="yes"/>
      <point x="282" y="383"/>
      <point x="339" y="358"/>
    </contour>
    <contour>
      <point x="361" y="625" type="curve" smooth="yes"/>
      <point x="352" y="625"/>
      <point x="343" y="617"/>
      <point x="342" y="607" type="curve"/>
      <point x="340" y="598"/>
      <point x="346" y="591"/>
      <point x="355" y="591" type="curve" smooth="yes"/>
      <point x="365" y="591"/>
      <point x="374" y="598"/>
      <point x="376" y="607" type="curve"/>
      <point x="377" y="617"/>
      <point x="371" y="625"/>
    </contour>
    <contour>
      <point x="204" y="625" type="curve" smooth="yes"/>
      <point x="194" y="625"/>
      <point x="185" y="617"/>
      <point x="184" y="607" type="curve"/>
      <point x="182" y="598"/>
      <point x="188" y="591"/>
      <point x="198" y="591" type="curve" smooth="yes"/>
      <point x="207" y="591"/>
      <point x="215" y="598"/>
      <point x="217" y="607" type="curve"/>
      <point x="218" y="617"/>
      <point x="213" y="625"/>
    </contour>
  </outline>
</glyph>
<glyph name="ae" format="2">
  <advance width="794"/>
  <unicode hex="00E6"/>
  <outline>
    <contour>
      <point x="395" y="132" type="curve" smooth="yes"/>
      <point x="412" y="229" type="line"/>
      <point x="756" y="246" type="line"/>
      <point x="773" y="341" type="line" smooth="yes"/>
      <point x="791" y="448"/>
      <point x="736" y="508"/>
      <point x="626" y="508" type="curve" smooth="yes"/>
      <point x="536" y="508"/>
      <point x="461" y="465"/>
      <point x="428" y="391" type="curve"/>
      <point x="421" y="465"/>
      <point x="363" y="507"/>
      <point x="248" y="507" type="curve"/>
      <point x="247" y="501"/>
      <point x="245" y="495"/>
      <point x="244" y="488" type="curve"/>
      <point x="387" y="488"/>
      <point x="423" y="426"/>
      <point x="408" y="345" type="curve"/>
      <point x="353" y="374"/>
      <point x="288" y="403"/>
      <point x="215" y="403" type="curve" smooth="yes"/>
      <point x="81" y="403"/>
      <point x="38" y="315"/>
      <point x="27" y="251" type="curve" smooth="yes"/>
      <point x="12" y="168" type="line" smooth="yes"/>
      <point x="-9" y="50"/>
      <point x="40" y="-10"/>
      <point x="185" y="-10" type="curve" smooth="yes"/>
      <point x="225" y="-10"/>
      <point x="367" y="0"/>
      <point x="367" y="0" type="curve"/>
      <point x="378" y="64" type="line"/>
      <point x="393" y="13"/>
      <point x="442" y="-12"/>
      <point x="524" y="-12" type="curve" smooth="yes"/>
      <point x="580" y="-12"/>
      <point x="637" y="4"/>
      <point x="694" y="35" type="curve"/>
      <point x="688" y="52" type="line"/>
      <point x="625" y="20"/>
      <point x="580" y="7"/>
      <point x="526" y="7" type="curve" smooth="yes"/>
      <point x="438" y="7"/>
      <point x="379" y="41"/>
    </contour>
    <contour>
      <point x="404" y="322" type="curve"/>
      <point x="351" y="18" type="line"/>
      <point x="351" y="18"/>
      <point x="234" y="8"/>
      <point x="188" y="8" type="curve" smooth="yes"/>
      <point x="31" y="4"/>
      <point x="16" y="90"/>
      <point x="29" y="162" type="curve" smooth="yes"/>
      <point x="44" y="249" type="line" smooth="yes"/>
      <point x="57" y="323"/>
      <point x="107" y="383"/>
      <point x="210" y="383" type="curve" smooth="yes"/>
      <point x="283" y="383"/>
      <point x="340" y="358"/>
    </contour>
    <contour>
      <point x="753" y="342" type="curve" smooth="yes"/>
      <point x="739" y="264" type="line"/>
      <point x="415" y="248" type="line"/>
      <point x="430" y="332" type="line" smooth="yes"/>
      <point x="453" y="462"/>
      <point x="552" y="491"/>
      <point x="620" y="491" type="curve" smooth="yes"/>
      <point x="691" y="491"/>
      <point x="774" y="462"/>
    </contour>
  </outline>
</glyph>
<glyph name="ccedilla" format="2">
  <advance width="387"/>
  <unicode hex="00E7"/>
  <outline>
    <contour>
      <point x="375" y="457" type="curve"/>
      <point x="385" y="476" type="line"/>
      <point x="332" y="504"/>
      <point x="268" y="516"/>
      <point x="208" y="504" type="curve" smooth="yes"/>
      <point x="162" y="494"/>
      <point x="119" y="470"/>
      <point x="85" y="426" type="curve" smooth="yes"/>
      <point x="61" y="394"/>
      <point x="48" y="362"/>
      <point x="39" y="318" type="curve" smooth="yes"/>
      <point x="13" y="173" type="line" smooth="yes"/>
      <point x="-4" y="75"/>
      <point x="31" y="23"/>
      <point x="95" y="1" type="curve" smooth="yes"/>
      <point x="151" y="-18"/>
      <point x="234" y="-13"/>
      <point x="304" y="5" type="curve"/>
      <point x="304" y="25" type="line"/>
      <point x="304" y="25"/>
      <point x="183" y="-9"/>
      <point x="99" y="21" type="curve" smooth="yes"/>
      <point x="32" y="45"/>
      <point x="19" y="98"/>
      <point x="32" y="175" type="curve" smooth="yes"/>
      <point x="57" y="312" type="line" smooth="yes"/>
      <point x="64" y="355"/>
      <point x="79" y="389"/>
      <point x="101" y="416" type="curve" smooth="yes"/>
      <point x="129" y="453"/>
      <point x="168" y="476"/>
      <point x="212" y="485" type="curve" smooth="yes"/>
      <point x="265" y="496"/>
      <point x="322" y="486"/>
    </contour>
    <contour>
      <point x="144" y="-47" type="curve" smooth="yes"/>
      <point x="140" y="-47"/>
      <point x="136" y="-47"/>
      <point x="110" y="-47" type="curve"/>
      <point x="146" y="0" type="line"/>
      <point x="125" y="0" type="line"/>
      <point x="87" y="-47" type="line"/>
      <point x="84" y="-67" type="line"/>
      <point x="105" y="-67"/>
      <point x="125" y="-67"/>
      <point x="141" y="-67" type="curve" smooth="yes"/>
      <point x="183" y="-67"/>
      <point x="208" y="-96"/>
      <point x="201" y="-136" type="curve" smooth="yes"/>
      <point x="189" y="-199"/>
      <point x="134" y="-207"/>
      <point x="116" y="-207" type="curve"/>
      <point x="65" y="-210"/>
      <point x="25" y="-196"/>
      <point x="24" y="-196" type="curve"/>
      <point x="21" y="-204"/>
      <point x="18" y="-206"/>
      <point x="15" y="-213" type="curve"/>
      <point x="47" y="-221"/>
      <point x="68" y="-227"/>
      <point x="115" y="-226" type="curve"/>
      <point x="157" y="-223"/>
      <point x="209" y="-198"/>
      <point x="220" y="-136" type="curve" smooth="yes"/>
      <point x="228" y="-86"/>
      <point x="196" y="-47"/>
    </contour>
  </outline>
</glyph>
<glyph name="egrave" format="2">
  <advance width="420"/>
  <unicode hex="00E8"/>
  <outline>
    <contour>
      <point x="25" y="132" type="curve" smooth="yes"/>
      <point x="42" y="229" type="line"/>
      <point x="386" y="246" type="line"/>
      <point x="403" y="341" type="line" smooth="yes"/>
      <point x="413" y="402"/>
      <point x="399" y="448"/>
      <point x="365" y="476" type="curve" smooth="yes"/>
      <point x="340" y="497"/>
      <point x="303" y="508"/>
      <point x="256" y="508" type="curve" smooth="yes"/>
      <point x="201" y="508"/>
      <point x="152" y="493"/>
      <point x="115" y="463" type="curve" smooth="yes"/>
      <point x="78" y="435"/>
      <point x="52" y="392"/>
      <point x="42" y="338" type="curve" smooth="yes"/>
      <point x="6" y="133" type="line" smooth="yes"/>
      <point x="-3" y="80"/>
      <point x="8" y="42"/>
      <point x="38" y="19" type="curve"/>
      <point x="62" y="-2"/>
      <point x="101" y="-12"/>
      <point x="154" y="-12" type="curve" smooth="yes"/>
      <point x="210" y="-12"/>
      <point x="267" y="4"/>
      <point x="323" y="35" type="curve"/>
      <point x="318" y="52" type="line"/>
      <point x="254" y="20"/>
      <point x="210" y="7"/>
      <point x="156" y="7" type="curve" smooth="yes"/>
      <point x="111" y="7"/>
      <point x="76" y="14"/>
      <point x="51" y="35" type="curve" smooth="yes"/>
      <point x="25" y="56"/>
      <point x="17" y="88"/>
    </contour>
    <contour>
      <point x="383" y="342" type="curve" smooth="yes"/>
      <point x="379" y="322"/>
      <point x="372" y="282"/>
      <point x="369" y="264" type="curve"/>
      <point x="45" y="248" type="line"/>
      <point x="49" y="268"/>
      <point x="56" y="311"/>
      <point x="60" y="332" type="curve" smooth="yes"/>
      <point x="70" y="391"/>
      <point x="96" y="428"/>
      <point x="126" y="452" type="curve" smooth="yes"/>
      <point x="164" y="482"/>
      <point x="212" y="491"/>
      <point x="250" y="491" type="curve" smooth="yes"/>
      <point x="286" y="491"/>
      <point x="324" y="484"/>
      <point x="351" y="461" type="curve" smooth="yes"/>
      <point x="378" y="439"/>
      <point x="393" y="402"/>
    </contour>
    <contour>
      <point x="201" y="648" type="curve"/>
      <point x="237" y="548" type="line"/>
      <point x="258" y="548" type="line"/>
      <point x="228" y="662" type="line" smooth="yes"/>
      <point x="226" y="670"/>
      <point x="218" y="675"/>
      <point x="208" y="671" type="curve" smooth="yes"/>
      <point x="199" y="667"/>
      <point x="196" y="656"/>
    </contour>
  </outline>
</glyph>
<glyph name="igrave" format="2">
  <advance width="127"/>
  <unicode hex="00EC"/>
  <outline>
    <contour>
      <point x="11" y="0" type="line"/>
      <point x="31" y="0" type="line"/>
      <point x="118" y="499" type="line"/>
      <point x="98" y="499" type="line"/>
    </contour>
    <contour>
      <point x="61" y="645" type="curve"/>
      <point x="98" y="543" type="line"/>
      <point x="118" y="543" type="line"/>
      <point x="89" y="658" type="line" smooth="yes"/>
      <point x="87" y="667"/>
      <point x="78" y="672"/>
      <point x="68" y="668" type="curve"/>
      <point x="59" y="662"/>
      <point x="56" y="652"/>
    </contour>
  </outline>
</glyph>
<glyph name="iacute" format="2">
  <advance width="181"/>
  <unicode hex="00ED"/>
  <outline>
    <contour>
      <point x="-1" y="0" type="line"/>
      <point x="17" y="0" type="line"/>
      <point x="104" y="499" type="line"/>
      <point x="86" y="499" type="line"/>
    </contour>
    <contour>
      <point x="169" y="658" type="curve"/>
      <point x="96" y="543" type="line"/>
      <point x="117" y="543" type="line"/>
      <point x="191" y="645" type="line" smooth="yes"/>
      <point x="196" y="652"/>
      <point x="198" y="662"/>
      <point x="191" y="668" type="curve"/>
      <point x="184" y="672"/>
      <point x="173" y="667"/>
    </contour>
  </outline>
</glyph>
<glyph name="icircumflex" format="2">
  <advance width="249"/>
  <unicode hex="00EE"/>
  <outline>
    <contour>
      <point x="32" y="0" type="line"/>
      <point x="50" y="0" type="line"/>
      <point x="137" y="499" type="line"/>
      <point x="119" y="499" type="line"/>
    </contour>
    <contour>
      <point x="17" y="559" type="line"/>
      <point x="29" y="544" type="line"/>
      <point x="156" y="648" type="line"/>
      <point x="242" y="543" type="line"/>
      <point x="261" y="559" type="line"/>
      <point x="161" y="676" type="line"/>
    </contour>
  </outline>
</glyph>
<glyph name="idieresis" format="2">
  <advance width="211"/>
  <unicode hex="00EF"/>
  <outline>
    <contour>
      <point x="15" y="0" type="line"/>
      <point x="33" y="0" type="line"/>
      <point x="120" y="499" type="line"/>
      <point x="102" y="499" type="line"/>
    </contour>
    <contour>
      <point x="226" y="603" type="curve"/>
      <point x="227" y="612"/>
      <point x="222" y="619"/>
      <point x="212" y="619" type="curve" smooth="yes"/>
      <point x="203" y="619"/>
      <point x="193" y="612"/>
      <point x="192" y="603" type="curve"/>
      <point x="190" y="593"/>
      <point x="197" y="585"/>
      <point x="206" y="585" type="curve" smooth="yes"/>
      <point x="216" y="585"/>
      <point x="224" y="593"/>
    </contour>
    <contour>
      <point x="68" y="603" type="curve"/>
      <point x="69" y="612"/>
      <point x="63" y="619"/>
      <point x="54" y="619" type="curve" smooth="yes"/>
      <point x="44" y="619"/>
      <point x="35" y="612"/>
      <point x="34" y="603" type="curve"/>
      <point x="32" y="593"/>
      <point x="38" y="585"/>
      <point x="48" y="585" type="curve" smooth="yes"/>
      <point x="57" y="585"/>
      <point x="66" y="593"/>
    </contour>
  </outline>
</glyph>
<glyph name="ntilde" format="2">
  <advance width="459"/>
  <unicode hex="00F1"/>
  <outline>
    <contour>
      <point x="407" y="346" type="curve" smooth="yes"/>
      <point x="346" y="0" type="line"/>
      <point x="366" y="0" type="line"/>
      <point x="426" y="345" type="line" smooth="yes"/>
      <point x="454" y="501"/>
      <point x="340" y="514"/>
      <point x="252" y="508" type="curve" smooth="yes"/>
      <point x="200" y="505"/>
      <point x="134" y="486"/>
      <point x="99" y="471" type="curve"/>
      <point x="103" y="499" type="line"/>
      <point x="85" y="499" type="line"/>
      <point x="-2" y="0" type="line"/>
      <point x="16" y="0" type="line"/>
      <point x="95" y="453" type="line"/>
      <point x="136" y="471"/>
      <point x="204" y="490"/>
      <point x="262" y="493" type="curve" smooth="yes"/>
      <point x="371" y="498"/>
      <point x="426" y="459"/>
    </contour>
    <contour>
      <point x="403" y="593" type="curve"/>
      <point x="397" y="610" type="line"/>
      <point x="371" y="592"/>
      <point x="355" y="587"/>
      <point x="344" y="587" type="curve" smooth="yes"/>
      <point x="310" y="586"/>
      <point x="277" y="619"/>
      <point x="234" y="618" type="curve" smooth="yes"/>
      <point x="214" y="618"/>
      <point x="192" y="612"/>
      <point x="168" y="590" type="curve"/>
      <point x="175" y="571" type="line"/>
      <point x="181" y="577"/>
      <point x="203" y="596"/>
      <point x="228" y="596" type="curve" smooth="yes"/>
      <point x="267" y="597"/>
      <point x="297" y="564"/>
      <point x="339" y="565" type="curve" smooth="yes"/>
      <point x="357" y="565"/>
      <point x="378" y="572"/>
    </contour>
  </outline>
</glyph>
<glyph name="ograve" format="2">
  <advance width="429"/>
  <unicode hex="00F2"/>
  <outline>
    <contour>
      <point x="381" y="184" type="curve" smooth="yes"/>
      <point x="404" y="315" type="line" smooth="yes"/>
      <point x="425" y="436"/>
      <point x="375" y="510"/>
      <point x="256" y="510" type="curve" smooth="yes"/>
      <point x="138" y="510"/>
      <point x="58" y="442"/>
      <point x="36" y="315" type="curve" smooth="yes"/>
      <point x="13" y="184" type="line" smooth="yes"/>
      <point x="-6" y="77"/>
      <point x="38" y="-10"/>
      <point x="165" y="-10" type="curve" smooth="yes"/>
      <point x="289" y="-10"/>
      <point x="361" y="71"/>
    </contour>
    <contour>
      <point x="387" y="319" type="curve" smooth="yes"/>
      <point x="363" y="184" type="line" smooth="yes"/>
      <point x="345" y="84"/>
      <point x="283" y="8"/>
      <point x="168" y="8" type="curve" smooth="yes"/>
      <point x="58" y="8"/>
      <point x="14" y="85"/>
      <point x="32" y="184" type="curve" smooth="yes"/>
      <point x="56" y="319" type="line" smooth="yes"/>
      <point x="77" y="442"/>
      <point x="157" y="492"/>
      <point x="253" y="492" type="curve" smooth="yes"/>
      <point x="348" y="492"/>
      <point x="407" y="433"/>
    </contour>
    <contour>
      <point x="210" y="648" type="curve"/>
      <point x="247" y="548" type="line"/>
      <point x="268" y="548" type="line"/>
      <point x="238" y="662" type="line" smooth="yes"/>
      <point x="236" y="670"/>
      <point x="227" y="675"/>
      <point x="218" y="671" type="curve" smooth="yes"/>
      <point x="209" y="667"/>
      <point x="206" y="656"/>
    </contour>
  </outline>
</glyph>
<glyph name="ocircumflex" format="2">
  <advance width="434"/>
  <unicode hex="00F4"/>
  <outline>
    <contour>
      <point x="383" y="184" type="curve" smooth="yes"/>
      <point x="406" y="315" type="line" smooth="yes"/>
      <point x="427" y="436"/>
      <point x="376" y="510"/>
      <point x="257" y="510" type="curve" smooth="yes"/>
      <point x="139" y="510"/>
      <point x="59" y="442"/>
      <point x="37" y="315" type="curve" smooth="yes"/>
      <point x="14" y="184" type="line" smooth="yes"/>
      <point x="-5" y="77"/>
      <point x="39" y="-10"/>
      <point x="166" y="-10" type="curve" smooth="yes"/>
      <point x="290" y="-10"/>
      <point x="363" y="71"/>
    </contour>
    <contour>
      <point x="388" y="319" type="curve" smooth="yes"/>
      <point x="364" y="184" type="line" smooth="yes"/>
      <point x="346" y="84"/>
      <point x="284" y="8"/>
      <point x="169" y="8" type="curve" smooth="yes"/>
      <point x="59" y="8"/>
      <point x="15" y="85"/>
      <point x="33" y="184" type="curve" smooth="yes"/>
      <point x="57" y="319" type="line" smooth="yes"/>
      <point x="78" y="442"/>
      <point x="158" y="492"/>
      <point x="254" y="492" type="curve" smooth="yes"/>
      <point x="350" y="492"/>
      <point x="408" y="433"/>
    </contour>
    <contour>
      <point x="124" y="577" type="line"/>
      <point x="137" y="561" type="line"/>
      <point x="291" y="687" type="line"/>
      <point x="393" y="561" type="line"/>
      <point x="413" y="577" type="line"/>
      <point x="296" y="718" type="line"/>
    </contour>
  </outline>
</glyph>
<glyph name="otilde" format="2">
  <advance width="433"/>
  <unicode hex="00F5"/>
  <outline>
    <contour>
      <point x="382" y="184" type="curve" smooth="yes"/>
      <point x="405" y="315" type="line" smooth="yes"/>
      <point x="426" y="436"/>
      <point x="376" y="510"/>
      <point x="257" y="510" type="curve" smooth="yes"/>
      <point x="139" y="510"/>
      <point x="59" y="442"/>
      <point x="37" y="315" type="curve" smooth="yes"/>
      <point x="14" y="184" type="line" smooth="yes"/>
      <point x="-5" y="77"/>
      <point x="39" y="-10"/>
      <point x="166" y="-10" type="curve" smooth="yes"/>
      <point x="290" y="-10"/>
      <point x="362" y="71"/>
    </contour>
    <contour>
      <point x="388" y="319" type="curve" smooth="yes"/>
      <point x="364" y="184" type="line" smooth="yes"/>
      <point x="346" y="84"/>
      <point x="284" y="8"/>
      <point x="169" y="8" type="curve" smooth="yes"/>
      <point x="59" y="8"/>
      <point x="15" y="85"/>
      <point x="33" y="184" type="curve" smooth="yes"/>
      <point x="57" y="319" type="line" smooth="yes"/>
      <point x="78" y="442"/>
      <point x="158" y="492"/>
      <point x="254" y="492" type="curve" smooth="yes"/>
      <point x="349" y="492"/>
      <point x="408" y="433"/>
    </contour>
    <contour>
      <point x="388" y="593" type="curve"/>
      <point x="383" y="610" type="line"/>
      <point x="356" y="592"/>
      <point x="339" y="587"/>
      <point x="329" y="587" type="curve" smooth="yes"/>
      <point x="295" y="586"/>
      <point x="261" y="619"/>
      <point x="220" y="619" type="curve" smooth="yes"/>
      <point x="198" y="618"/>
      <point x="176" y="612"/>
      <point x="153" y="590" type="curve"/>
      <point x="160" y="572" type="line"/>
      <point x="167" y="577"/>
      <point x="188" y="596"/>
      <point x="213" y="597" type="curve" smooth="yes"/>
      <point x="252" y="597"/>
      <point x="282" y="565"/>
      <point x="323" y="565" type="curve"/>
      <point x="342" y="566"/>
      <point x="362" y="572"/>
    </contour>
  </outline>
</glyph>
<glyph name="oslash" format="2">
  <advance width="435"/>
  <unicode hex="00F8"/>
  <outline>
    <contour>
      <point x="378" y="184" type="curve" smooth="yes"/>
      <point x="401" y="315" type="line" smooth="yes"/>
      <point x="414" y="387"/>
      <point x="401" y="443"/>
      <point x="362" y="476" type="curve"/>
      <point x="431" y="585" type="line"/>
      <point x="410" y="585" type="line"/>
      <point x="348" y="486" type="line"/>
      <point x="324" y="502"/>
      <point x="292" y="510"/>
      <point x="253" y="510" type="curve" smooth="yes"/>
      <point x="135" y="510"/>
      <point x="55" y="442"/>
      <point x="33" y="315" type="curve" smooth="yes"/>
      <point x="10" y="184" type="line" smooth="yes"/>
      <point x="-2" y="114"/>
      <point x="12" y="54"/>
      <point x="58" y="20" type="curve"/>
      <point x="4" y="-66" type="line"/>
      <point x="25" y="-66" type="line"/>
      <point x="72" y="10" type="line"/>
      <point x="96" y="-2"/>
      <point x="125" y="-10"/>
      <point x="162" y="-10" type="curve" smooth="yes"/>
      <point x="286" y="-10"/>
      <point x="358" y="71"/>
    </contour>
    <contour>
      <point x="29" y="184" type="curve" smooth="yes"/>
      <point x="53" y="319" type="line" smooth="yes"/>
      <point x="74" y="442"/>
      <point x="154" y="492"/>
      <point x="250" y="492" type="curve" smooth="yes"/>
      <point x="284" y="492"/>
      <point x="315" y="484"/>
      <point x="337" y="469" type="curve"/>
      <point x="69" y="37" type="line"/>
      <point x="30" y="68"/>
      <point x="18" y="121"/>
    </contour>
    <contour>
      <point x="384" y="319" type="curve" smooth="yes"/>
      <point x="360" y="184" type="line" smooth="yes"/>
      <point x="342" y="84"/>
      <point x="280" y="8"/>
      <point x="165" y="8" type="curve" smooth="yes"/>
      <point x="132" y="8"/>
      <point x="104" y="14"/>
      <point x="83" y="26" type="curve"/>
      <point x="350" y="458" type="line"/>
      <point x="381" y="429"/>
      <point x="395" y="383"/>
    </contour>
  </outline>
</glyph>
<glyph name="ugrave" format="2">
  <advance width="453"/>
  <unicode hex="00F9"/>
  <outline>
    <contour>
      <point x="358" y="97" type="curve"/>
      <point x="341" y="0" type="line"/>
      <point x="362" y="0" type="line"/>
      <point x="449" y="499" type="line"/>
      <point x="428" y="499" type="line"/>
      <point x="370" y="168" type="line" smooth="yes"/>
      <point x="356" y="87"/>
      <point x="284" y="15"/>
      <point x="187" y="9" type="curve" smooth="yes"/>
      <point x="78" y="1"/>
      <point x="19" y="43"/>
      <point x="39" y="155" type="curve" smooth="yes"/>
      <point x="99" y="499" type="line"/>
      <point x="79" y="499" type="line"/>
      <point x="19" y="156" type="line" smooth="yes"/>
      <point x="-8" y="0"/>
      <point x="109" y="-13"/>
      <point x="184" y="-9" type="curve" smooth="yes"/>
      <point x="246" y="-4"/>
      <point x="320" y="29"/>
    </contour>
    <contour>
      <point x="218" y="643" type="curve"/>
      <point x="255" y="543" type="line"/>
      <point x="277" y="543" type="line"/>
      <point x="245" y="657" type="line" smooth="yes"/>
      <point x="243" y="665"/>
      <point x="235" y="671"/>
      <point x="226" y="667" type="curve" smooth="yes"/>
      <point x="216" y="662"/>
      <point x="214" y="651"/>
    </contour>
  </outline>
</glyph>
<glyph name="udieresis" format="2">
  <advance width="458"/>
  <unicode hex="00FC"/>
  <outline>
    <contour>
      <point x="359" y="97" type="curve"/>
      <point x="342" y="0" type="line"/>
      <point x="363" y="0" type="line"/>
      <point x="450" y="499" type="line"/>
      <point x="429" y="499" type="line"/>
      <point x="371" y="168" type="line" smooth="yes"/>
      <point x="357" y="87"/>
      <point x="285" y="15"/>
      <point x="188" y="9" type="curve" smooth="yes"/>
      <point x="79" y="1"/>
      <point x="20" y="43"/>
      <point x="40" y="155" type="curve" smooth="yes"/>
      <point x="100" y="499" type="line"/>
      <point x="80" y="499" type="line"/>
      <point x="20" y="156" type="line" smooth="yes"/>
      <point x="-7" y="0"/>
      <point x="110" y="-13"/>
      <point x="185" y="-9" type="curve" smooth="yes"/>
      <point x="247" y="-4"/>
      <point x="321" y="29"/>
    </contour>
    <contour>
      <point x="366" y="619" type="curve" smooth="yes"/>
      <point x="356" y="619"/>
      <point x="347" y="612"/>
      <point x="346" y="602" type="curve"/>
      <point x="344" y="593"/>
      <point x="350" y="585"/>
      <point x="360" y="585" type="curve" smooth="yes"/>
      <point x="369" y="585"/>
      <point x="378" y="593"/>
      <point x="380" y="602" type="curve"/>
      <point x="381" y="612"/>
      <point x="375" y="619"/>
    </contour>
    <contour>
      <point x="208" y="619" type="curve" smooth="yes"/>
      <point x="199" y="619"/>
      <point x="189" y="612"/>
      <point x="188" y="602" type="curve"/>
      <point x="186" y="593"/>
      <point x="193" y="585"/>
      <point x="202" y="585" type="curve" smooth="yes"/>
      <point x="212" y="585"/>
      <point x="219" y="593"/>
      <point x="221" y="602" type="curve"/>
      <point x="222" y="612"/>
      <point x="218" y="619"/>
    </contour>
  </outline>
</glyph>
<glyph name="yacute" format="2">
  <advance width="474"/>
  <unicode hex="00FD"/>
  <outline>
    <contour>
      <point x="474" y="499" type="curve"/>
      <point x="463" y="510" type="line"/>
      <point x="435" y="485"/>
      <point x="425" y="465"/>
      <point x="417" y="418" type="curve" smooth="yes"/>
      <point x="373" y="169" type="line" smooth="yes"/>
      <point x="359" y="88"/>
      <point x="283" y="16"/>
      <point x="187" y="10" type="curve" smooth="yes"/>
      <point x="79" y="2"/>
      <point x="19" y="44"/>
      <point x="39" y="156" type="curve" smooth="yes"/>
      <point x="99" y="499" type="line"/>
      <point x="79" y="499" type="line"/>
      <point x="19" y="157" type="line" smooth="yes"/>
      <point x="-8" y="1"/>
      <point x="110" y="-12"/>
      <point x="185" y="-8" type="curve" smooth="yes"/>
      <point x="247" y="-3"/>
      <point x="323" y="30"/>
      <point x="361" y="99" type="curve"/>
      <point x="332" y="-66" type="line" smooth="yes"/>
      <point x="324" y="-110"/>
      <point x="307" y="-142"/>
      <point x="283" y="-160" type="curve" smooth="yes"/>
      <point x="257" y="-178"/>
      <point x="247" y="-183"/>
      <point x="215" y="-195" type="curve"/>
      <point x="218" y="-212" type="line"/>
      <point x="250" y="-202"/>
      <point x="275" y="-190"/>
      <point x="294" y="-174" type="curve" smooth="yes"/>
      <point x="324" y="-149"/>
      <point x="340" y="-114"/>
      <point x="349" y="-67" type="curve" smooth="yes"/>
      <point x="434" y="417" type="line" smooth="yes"/>
      <point x="442" y="461"/>
      <point x="450" y="482"/>
    </contour>
    <contour>
      <point x="355" y="657" type="curve" smooth="yes"/>
      <point x="283" y="543" type="line"/>
      <point x="304" y="543" type="line"/>
      <point x="378" y="643" type="line"/>
      <point x="383" y="651"/>
      <point x="385" y="662"/>
      <point x="378" y="667" type="curve"/>
      <point x="370" y="671"/>
      <point x="360" y="665"/>
    </contour>
  </outline>
</glyph>
<glyph name="thorn" format="2">
  <advance width="454"/>
  <unicode hex="00FE"/>
  <outline>
    <contour>
      <point x="91" y="399" type="curve"/>
      <point x="144" y="698" type="line"/>
      <point x="124" y="698" type="line"/>
      <point x="1" y="0" type="line"/>
      <point x="21" y="0" type="line"/>
      <point x="62" y="234" type="line"/>
      <point x="77" y="155"/>
      <point x="135" y="116"/>
      <point x="211" y="116" type="curve" smooth="yes"/>
      <point x="322" y="116"/>
      <point x="415" y="205"/>
      <point x="433" y="309" type="curve" smooth="yes"/>
      <point x="454" y="426"/>
      <point x="392" y="509"/>
      <point x="279" y="509" type="curve" smooth="yes"/>
      <point x="207" y="509"/>
      <point x="138" y="472"/>
    </contour>
    <contour>
      <point x="278" y="493" type="curve" smooth="yes"/>
      <point x="380" y="490"/>
      <point x="433" y="410"/>
      <point x="416" y="315" type="curve" smooth="yes"/>
      <point x="398" y="212"/>
      <point x="313" y="133"/>
      <point x="213" y="133" type="curve" smooth="yes"/>
      <point x="98" y="133"/>
      <point x="62" y="226"/>
      <point x="79" y="319" type="curve" smooth="yes"/>
      <point x="96" y="417"/>
      <point x="184" y="493"/>
    </contour>
  </outline>
</glyph>
<glyph name="ydieresis" format="2">
  <advance width="475"/>
  <unicode hex="00FF"/>
  <outline>
    <contour>
      <point x="475" y="499" type="curve"/>
      <point x="464" y="510" type="line"/>
      <point x="436" y="485"/>
      <point x="426" y="465"/>
      <point x="418" y="418" type="curve" smooth="yes"/>
      <point x="374" y="169" type="line" smooth="yes"/>
      <point x="360" y="88"/>
      <point x="285" y="16"/>
      <point x="188" y="10" type="curve" smooth="yes"/>
      <point x="80" y="2"/>
      <point x="20" y="44"/>
      <point x="40" y="156" type="curve" smooth="yes"/>
      <point x="100" y="499" type="line"/>
      <point x="80" y="499" type="line"/>
      <point x="20" y="157" type="line" smooth="yes"/>
      <point x="-7" y="1"/>
      <point x="111" y="-12"/>
      <point x="186" y="-8" type="curve" smooth="yes"/>
      <point x="249" y="-3"/>
      <point x="324" y="30"/>
      <point x="362" y="99" type="curve"/>
      <point x="333" y="-66" type="line" smooth="yes"/>
      <point x="325" y="-110"/>
      <point x="308" y="-142"/>
      <point x="284" y="-160" type="curve" smooth="yes"/>
      <point x="258" y="-178"/>
      <point x="248" y="-183"/>
      <point x="216" y="-195" type="curve"/>
      <point x="219" y="-212" type="line"/>
      <point x="251" y="-202"/>
      <point x="276" y="-190"/>
      <point x="296" y="-174" type="curve" smooth="yes"/>
      <point x="325" y="-149"/>
      <point x="341" y="-114"/>
      <point x="350" y="-67" type="curve" smooth="yes"/>
      <point x="435" y="417" type="line" smooth="yes"/>
      <point x="443" y="461"/>
      <point x="451" y="482"/>
    </contour>
    <contour>
      <point x="379" y="619" type="curve" smooth="yes"/>
      <point x="371" y="619"/>
      <point x="361" y="612"/>
      <point x="360" y="602" type="curve"/>
      <point x="358" y="593"/>
      <point x="365" y="585"/>
      <point x="373" y="585" type="curve" smooth="yes"/>
      <point x="383" y="585"/>
      <point x="392" y="593"/>
      <point x="394" y="602" type="curve"/>
      <point x="395" y="612"/>
      <point x="389" y="619"/>
    </contour>
    <contour>
      <point x="222" y="619" type="curve" smooth="yes"/>
      <point x="212" y="619"/>
      <point x="203" y="612"/>
      <point x="202" y="602" type="curve"/>
      <point x="200" y="593"/>
      <point x="206" y="585"/>
      <point x="216" y="585" type="curve" smooth="yes"/>
      <point x="225" y="585"/>
      <point x="234" y="593"/>
      <point x="236" y="602" type="curve"/>
      <point x="237" y="612"/>
      <point x="231" y="619"/>
    </contour>
  </outline>
</glyph>
<glyph name="Abreve" format="2">
  <advance width="526"/>
  <unicode hex="0102"/>
  <outline>
    <contour>
      <point x="492" y="0" type="line"/>
      <point x="370" y="698" type="line"/>
      <point x="356" y="698" type="line"/>
      <point x="-12" y="0" type="line"/>
      <point x="8" y="0" type="line"/>
      <point x="155" y="280" type="line"/>
      <point x="422" y="280" type="line"/>
      <point x="471" y="0" type="line"/>
    </contour>
    <contour>
      <point x="166" y="299" type="line"/>
      <point x="356" y="658" type="line"/>
      <point x="419" y="299" type="line"/>
    </contour>
    <contour>
      <point x="301" y="855" type="curve" smooth="yes"/>
      <point x="302" y="861" type="line"/>
      <point x="279" y="861" type="line"/>
      <point x="278" y="855" type="line" smooth="yes"/>
      <point x="267" y="792"/>
      <point x="309" y="741"/>
      <point x="371" y="741" type="curve" smooth="yes"/>
      <point x="434" y="741"/>
      <point x="494" y="792"/>
      <point x="505" y="855" type="curve" smooth="yes"/>
      <point x="506" y="861" type="line"/>
      <point x="484" y="861" type="line"/>
      <point x="483" y="855" type="line" smooth="yes"/>
      <point x="474" y="804"/>
      <point x="426" y="763"/>
      <point x="375" y="763" type="curve" smooth="yes"/>
      <point x="326" y="763"/>
      <point x="292" y="804"/>
    </contour>
  </outline>
</glyph>
<glyph name="abreve" format="2">
  <advance width="447"/>
  <unicode hex="0103"/>
  <outline>
    <contour>
      <point x="407" y="345" type="curve"/>
      <point x="353" y="374"/>
      <point x="287" y="403"/>
      <point x="214" y="403" type="curve" smooth="yes"/>
      <point x="80" y="403"/>
      <point x="37" y="315"/>
      <point x="26" y="251" type="curve"/>
      <point x="26" y="251"/>
      <point x="11" y="168"/>
      <point x="11" y="168" type="curve"/>
      <point x="-10" y="50"/>
      <point x="39" y="-10"/>
      <point x="184" y="-10" type="curve" smooth="yes"/>
      <point x="225" y="-10"/>
      <point x="366" y="0"/>
      <point x="366" y="0" type="curve"/>
      <point x="366" y="0"/>
      <point x="403" y="212"/>
      <point x="425" y="335" type="curve" smooth="yes"/>
      <point x="435" y="395"/>
      <point x="423" y="441"/>
      <point x="387" y="470" type="curve" smooth="yes"/>
      <point x="358" y="495"/>
      <point x="312" y="507"/>
      <point x="247" y="507" type="curve"/>
      <point x="243" y="488" type="line"/>
      <point x="311" y="488"/>
      <point x="346" y="477"/>
      <point x="372" y="457" type="curve" smooth="yes"/>
      <point x="403" y="431"/>
      <point x="416" y="392"/>
    </contour>
    <contour>
      <point x="403" y="322" type="curve"/>
      <point x="403" y="322"/>
      <point x="350" y="18"/>
      <point x="350" y="18" type="curve"/>
      <point x="350" y="18"/>
      <point x="234" y="8"/>
      <point x="187" y="8" type="curve" smooth="yes"/>
      <point x="30" y="4"/>
      <point x="16" y="90"/>
      <point x="29" y="162" type="curve" smooth="yes"/>
      <point x="33" y="185"/>
      <point x="39" y="221"/>
      <point x="44" y="249" type="curve" smooth="yes"/>
      <point x="57" y="323"/>
      <point x="106" y="383"/>
      <point x="209" y="383" type="curve" smooth="yes"/>
      <point x="282" y="383"/>
      <point x="340" y="358"/>
    </contour>
    <contour>
      <point x="404" y="661" type="curve" smooth="yes"/>
      <point x="405" y="668" type="line"/>
      <point x="383" y="668" type="line"/>
      <point x="382" y="661" type="line" smooth="yes"/>
      <point x="373" y="610"/>
      <point x="325" y="570"/>
      <point x="274" y="570" type="curve" smooth="yes"/>
      <point x="224" y="570"/>
      <point x="190" y="610"/>
      <point x="199" y="661" type="curve" smooth="yes"/>
      <point x="200" y="668" type="line"/>
      <point x="178" y="668" type="line"/>
      <point x="177" y="661" type="line" smooth="yes"/>
      <point x="166" y="598"/>
      <point x="208" y="548"/>
      <point x="270" y="548" type="curve" smooth="yes"/>
      <point x="332" y="548"/>
      <point x="393" y="598"/>
    </contour>
  </outline>
</glyph>
<glyph name="Aogonek" format="2">
  <advance width="546"/>
  <unicode hex="0104"/>
  <outline>
    <contour>
      <point x="492" y="0" type="line"/>
      <point x="370" y="698" type="line"/>
      <point x="356" y="698" type="line"/>
      <point x="-12" y="0" type="line"/>
      <point x="8" y="0" type="line"/>
      <point x="155" y="280" type="line"/>
      <point x="422" y="280" type="line"/>
      <point x="471" y="0" type="line"/>
    </contour>
    <contour>
      <point x="166" y="299" type="line"/>
      <point x="356" y="658" type="line"/>
      <point x="419" y="299" type="line"/>
    </contour>
    <contour>
      <point x="392" y="-128" type="curve" smooth="yes"/>
      <point x="488" y="-2" type="line"/>
      <point x="490" y="7" type="line"/>
      <point x="472" y="4" type="line"/>
      <point x="471" y="-1" type="line"/>
      <point x="379" y="-119" type="line" smooth="yes"/>
      <point x="331" y="-182"/>
      <point x="367" y="-243"/>
      <point x="441" y="-232" type="curve" smooth="yes"/>
      <point x="455" y="-230"/>
      <point x="536" y="-202"/>
      <point x="536" y="-202" type="curve"/>
      <point x="533" y="-184" type="line"/>
      <point x="533" y="-184"/>
      <point x="493" y="-197"/>
      <point x="457" y="-208" type="curve" smooth="yes"/>
      <point x="389" y="-230"/>
      <point x="351" y="-183"/>
    </contour>
  </outline>
</glyph>
<glyph name="Cdotaccent" format="2">
  <advance width="433"/>
  <unicode hex="010A"/>
  <outline>
    <contour>
      <point x="428" y="658" type="curve"/>
      <point x="439" y="675" type="line"/>
      <point x="401" y="697"/>
      <point x="356" y="708"/>
      <point x="302" y="708" type="curve" smooth="yes"/>
      <point x="260" y="708"/>
      <point x="223" y="700"/>
      <point x="191" y="683" type="curve" smooth="yes"/>
      <point x="127" y="647"/>
      <point x="90" y="603"/>
      <point x="72" y="503" type="curve" smooth="yes"/>
      <point x="16" y="183" type="line" smooth="yes"/>
      <point x="1" y="99"/>
      <point x="24" y="42"/>
      <point x="68" y="15" type="curve" smooth="yes"/>
      <point x="112" y="-10"/>
      <point x="161" y="-10"/>
      <point x="181" y="-10" type="curve" smooth="yes"/>
      <point x="232" y="-10"/>
      <point x="288" y="1"/>
      <point x="349" y="23" type="curve"/>
      <point x="346" y="41" type="line"/>
      <point x="283" y="18"/>
      <point x="229" y="7"/>
      <point x="190" y="7" type="curve" smooth="yes"/>
      <point x="151" y="7"/>
      <point x="108" y="12"/>
      <point x="81" y="32" type="curve" smooth="yes"/>
      <point x="44" y="58"/>
      <point x="20" y="106"/>
      <point x="35" y="185" type="curve" smooth="yes"/>
      <point x="93" y="512" type="line" smooth="yes"/>
      <point x="103" y="572"/>
      <point x="134" y="619"/>
      <point x="162" y="643" type="curve" smooth="yes"/>
      <point x="192" y="668"/>
      <point x="242" y="689"/>
      <point x="302" y="689" type="curve" smooth="yes"/>
      <point x="343" y="689"/>
      <point x="384" y="679"/>
    </contour>
    <contour>
      <point x="312" y="818" type="curve" smooth="yes"/>
      <point x="302" y="818"/>
      <point x="293" y="811"/>
      <point x="291" y="801" type="curve" smooth="yes"/>
      <point x="289" y="792"/>
      <point x="296" y="784"/>
      <point x="306" y="784" type="curve" smooth="yes"/>
      <point x="315" y="784"/>
      <point x="324" y="792"/>
      <point x="326" y="801" type="curve" smooth="yes"/>
      <point x="328" y="811"/>
      <point x="321" y="818"/>
    </contour>
  </outline>
</glyph>
<glyph name="cdotaccent" format="2">
  <advance width="384"/>
  <unicode hex="010B"/>
  <outline>
    <contour>
      <point x="373" y="457" type="curve"/>
      <point x="383" y="476" type="line"/>
      <point x="330" y="504"/>
      <point x="266" y="516"/>
      <point x="206" y="504" type="curve" smooth="yes"/>
      <point x="160" y="494"/>
      <point x="117" y="470"/>
      <point x="84" y="426" type="curve" smooth="yes"/>
      <point x="59" y="394"/>
      <point x="46" y="362"/>
      <point x="37" y="318" type="curve" smooth="yes"/>
      <point x="11" y="173" type="line" smooth="yes"/>
      <point x="-6" y="75"/>
      <point x="29" y="23"/>
      <point x="93" y="1" type="curve" smooth="yes"/>
      <point x="149" y="-18"/>
      <point x="232" y="-13"/>
      <point x="302" y="5" type="curve"/>
      <point x="302" y="25" type="line"/>
      <point x="302" y="25"/>
      <point x="181" y="-9"/>
      <point x="97" y="21" type="curve" smooth="yes"/>
      <point x="30" y="45"/>
      <point x="17" y="98"/>
      <point x="30" y="175" type="curve" smooth="yes"/>
      <point x="55" y="312" type="line" smooth="yes"/>
      <point x="62" y="355"/>
      <point x="77" y="389"/>
      <point x="99" y="416" type="curve" smooth="yes"/>
      <point x="127" y="453"/>
      <point x="166" y="476"/>
      <point x="211" y="485" type="curve" smooth="yes"/>
      <point x="263" y="496"/>
      <point x="320" y="486"/>
    </contour>
    <contour>
      <point x="293" y="607" type="curve"/>
      <point x="294" y="616"/>
      <point x="288" y="624"/>
      <point x="278" y="624" type="curve" smooth="yes"/>
      <point x="269" y="624"/>
      <point x="259" y="616"/>
      <point x="258" y="607" type="curve"/>
      <point x="256" y="597"/>
      <point x="263" y="591"/>
      <point x="272" y="591" type="curve" smooth="yes"/>
      <point x="282" y="591"/>
      <point x="291" y="597"/>
    </contour>
  </outline>
</glyph>
<glyph name="Ccaron" format="2">
  <advance width="433"/>
  <unicode hex="010C"/>
  <outline>
    <contour>
      <point x="428" y="658" type="curve"/>
      <point x="439" y="675" type="line"/>
      <point x="401" y="697"/>
      <point x="356" y="708"/>
      <point x="302" y="708" type="curve" smooth="yes"/>
      <point x="260" y="708"/>
      <point x="223" y="700"/>
      <point x="191" y="683" type="curve" smooth="yes"/>
      <point x="127" y="647"/>
      <point x="90" y="603"/>
      <point x="72" y="503" type="curve" smooth="yes"/>
      <point x="16" y="183" type="line" smooth="yes"/>
      <point x="1" y="99"/>
      <point x="24" y="42"/>
      <point x="68" y="15" type="curve" smooth="yes"/>
      <point x="112" y="-10"/>
      <point x="161" y="-10"/>
      <point x="182" y="-10" type="curve" smooth="yes"/>
      <point x="232" y="-10"/>
      <point x="288" y="1"/>
      <point x="349" y="23" type="curve"/>
      <point x="346" y="41" type="line"/>
      <point x="283" y="18"/>
      <point x="230" y="7"/>
      <point x="190" y="7" type="curve" smooth="yes"/>
      <point x="152" y="7"/>
      <point x="108" y="12"/>
      <point x="81" y="32" type="curve" smooth="yes"/>
      <point x="44" y="58"/>
      <point x="20" y="106"/>
      <point x="35" y="185" type="curve" smooth="yes"/>
      <point x="93" y="512" type="line" smooth="yes"/>
      <point x="103" y="572"/>
      <point x="134" y="619"/>
      <point x="162" y="643" type="curve" smooth="yes"/>
      <point x="192" y="668"/>
      <point x="242" y="689"/>
      <point x="302" y="689" type="curve" smooth="yes"/>
      <point x="343" y="689"/>
      <point x="384" y="679"/>
    </contour>
    <contour>
      <point x="299" y="768" type="line"/>
      <point x="212" y="872" type="line"/>
      <point x="195" y="857" type="line"/>
      <point x="294" y="739" type="line"/>
      <point x="437" y="858" type="line"/>
      <point x="424" y="872" type="line"/>
    </contour>
  </outline>
</glyph>
<glyph name="ccaron" format="2">
  <advance width="401"/>
  <unicode hex="010D"/>
  <outline>
    <contour>
      <point x="374" y="457" type="curve"/>
      <point x="384" y="476" type="line"/>
      <point x="331" y="504"/>
      <point x="267" y="516"/>
      <point x="207" y="504" type="curve" smooth="yes"/>
      <point x="161" y="494"/>
      <point x="118" y="470"/>
      <point x="86" y="426" type="curve"/>
      <point x="60" y="394"/>
      <point x="47" y="362"/>
      <point x="38" y="318" type="curve" smooth="yes"/>
      <point x="12" y="173" type="line" smooth="yes"/>
      <point x="-5" y="75"/>
      <point x="30" y="23"/>
      <point x="94" y="1" type="curve" smooth="yes"/>
      <point x="150" y="-18"/>
      <point x="233" y="-13"/>
      <point x="303" y="5" type="curve"/>
      <point x="303" y="25" type="line"/>
      <point x="303" y="25"/>
      <point x="182" y="-9"/>
      <point x="98" y="21" type="curve" smooth="yes"/>
      <point x="31" y="45"/>
      <point x="18" y="98"/>
      <point x="31" y="175" type="curve" smooth="yes"/>
      <point x="56" y="312" type="line" smooth="yes"/>
      <point x="63" y="355"/>
      <point x="79" y="389"/>
      <point x="100" y="416" type="curve" smooth="yes"/>
      <point x="128" y="453"/>
      <point x="167" y="476"/>
      <point x="212" y="485" type="curve" smooth="yes"/>
      <point x="264" y="496"/>
      <point x="321" y="486"/>
    </contour>
    <contour>
      <point x="265" y="576" type="line"/>
      <point x="178" y="681" type="line"/>
      <point x="159" y="665" type="line"/>
      <point x="260" y="548" type="line"/>
      <point x="403" y="665" type="line"/>
      <point x="390" y="680" type="line"/>
    </contour>
  </outline>
</glyph>
<glyph name="dcaron" format="2">
  <advance width="559"/>
  <unicode hex="010F"/>
  <outline>
    <contour>
      <point x="368" y="-1" type="curve"/>
      <point x="492" y="698" type="line"/>
      <point x="473" y="698" type="line"/>
      <point x="432" y="470" type="line"/>
      <point x="384" y="492"/>
      <point x="325" y="508"/>
      <point x="252" y="508" type="curve" smooth="yes"/>
      <point x="118" y="508"/>
      <point x="59" y="421"/>
      <point x="48" y="358" type="curve"/>
      <point x="48" y="358"/>
      <point x="14" y="169"/>
      <point x="14" y="168" type="curve"/>
      <point x="-7" y="50"/>
      <point x="42" y="-11"/>
      <point x="188" y="-11" type="curve" smooth="yes"/>
      <point x="228" y="-11"/>
      <point x="368" y="-1"/>
    </contour>
    <contour>
      <point x="429" y="450" type="curve"/>
      <point x="429" y="450"/>
      <point x="353" y="18"/>
      <point x="353" y="18" type="curve"/>
      <point x="353" y="18"/>
      <point x="238" y="8"/>
      <point x="191" y="7" type="curve" smooth="yes"/>
      <point x="33" y="4"/>
      <point x="19" y="89"/>
      <point x="32" y="161" type="curve" smooth="yes"/>
      <point x="36" y="182"/>
      <point x="62" y="330"/>
      <point x="66" y="354" type="curve" smooth="yes"/>
      <point x="79" y="429"/>
      <point x="145" y="491"/>
      <point x="248" y="491" type="curve" smooth="yes"/>
      <point x="322" y="491"/>
      <point x="380" y="474"/>
    </contour>
    <contour>
      <point x="516" y="577" type="curve"/>
      <point x="524" y="571" type="line"/>
      <point x="524" y="571"/>
      <point x="566" y="595"/>
      <point x="576" y="648" type="curve" smooth="yes"/>
      <point x="578" y="658"/>
      <point x="573" y="665"/>
      <point x="563" y="665" type="curve" smooth="yes"/>
      <point x="554" y="665"/>
      <point x="545" y="658"/>
      <point x="543" y="648" type="curve" smooth="yes"/>
      <point x="541" y="640"/>
      <point x="545" y="635"/>
      <point x="551" y="632" type="curve"/>
      <point x="547" y="618"/>
      <point x="540" y="596"/>
    </contour>
  </outline>
</glyph>
<glyph name="dslash" format="1">
  <advance width="513"/>
  <unicode hex="0111"/>
  <outline>
    <contour>
      <point x="520" y="595" type="line"/>
      <point x="524" y="615" type="line"/>
      <point x="288" y="615" type="line"/>
      <point x="284" y="595" type="line"/>
    </contour>
    <component base="d"/>
  </outline>
</glyph>
<glyph name="Emacron" format="2">
  <advance width="441"/>
  <unicode hex="0112"/>
  <outline>
    <contour>
      <point x="1" y="0" type="line"/>
      <point x="332" y="0" type="line"/>
      <point x="335" y="19" type="line"/>
      <point x="23" y="19" type="line"/>
      <point x="89" y="393" type="line"/>
      <point x="310" y="393" type="line"/>
      <point x="319" y="411" type="line"/>
      <point x="92" y="411" type="line"/>
      <point x="139" y="679" type="line"/>
      <point x="453" y="679" type="line"/>
      <point x="457" y="698" type="line"/>
      <point x="124" y="698" type="line"/>
    </contour>
    <contour>
      <point x="195" y="782" type="line"/>
      <point x="415" y="782" type="line"/>
      <point x="419" y="801" type="line"/>
      <point x="199" y="801" type="line"/>
    </contour>
  </outline>
</glyph>
<glyph name="emacron" format="2">
  <advance width="422"/>
  <unicode hex="0113"/>
  <outline>
    <contour>
      <point x="26" y="132" type="curve" smooth="yes"/>
      <point x="43" y="229" type="line"/>
      <point x="387" y="246" type="line"/>
      <point x="404" y="341" type="line" smooth="yes"/>
      <point x="414" y="402"/>
      <point x="400" y="448"/>
      <point x="366" y="476" type="curve" smooth="yes"/>
      <point x="341" y="497"/>
      <point x="304" y="508"/>
      <point x="257" y="508" type="curve" smooth="yes"/>
      <point x="202" y="508"/>
      <point x="153" y="493"/>
      <point x="116" y="463" type="curve" smooth="yes"/>
      <point x="79" y="435"/>
      <point x="53" y="392"/>
      <point x="43" y="338" type="curve" smooth="yes"/>
      <point x="7" y="133" type="line" smooth="yes"/>
      <point x="-2" y="80"/>
      <point x="9" y="42"/>
      <point x="39" y="19" type="curve"/>
      <point x="63" y="-2"/>
      <point x="102" y="-12"/>
      <point x="155" y="-12" type="curve" smooth="yes"/>
      <point x="211" y="-12"/>
      <point x="268" y="4"/>
      <point x="324" y="35" type="curve"/>
      <point x="319" y="52" type="line"/>
      <point x="255" y="20"/>
      <point x="211" y="7"/>
      <point x="157" y="7" type="curve" smooth="yes"/>
      <point x="112" y="7"/>
      <point x="77" y="14"/>
      <point x="52" y="35" type="curve" smooth="yes"/>
      <point x="26" y="56"/>
      <point x="18" y="88"/>
    </contour>
    <contour>
      <point x="384" y="342" type="curve" smooth="yes"/>
      <point x="380" y="322"/>
      <point x="373" y="282"/>
      <point x="370" y="264" type="curve"/>
      <point x="46" y="248" type="line"/>
      <point x="50" y="268"/>
      <point x="57" y="311"/>
      <point x="61" y="332" type="curve" smooth="yes"/>
      <point x="71" y="391"/>
      <point x="97" y="428"/>
      <point x="127" y="452" type="curve" smooth="yes"/>
      <point x="165" y="482"/>
      <point x="213" y="491"/>
      <point x="251" y="491" type="curve" smooth="yes"/>
      <point x="287" y="491"/>
      <point x="325" y="484"/>
      <point x="352" y="461" type="curve" smooth="yes"/>
      <point x="379" y="439"/>
      <point x="394" y="402"/>
    </contour>
    <contour>
      <point x="156" y="586" type="line"/>
      <point x="377" y="586" type="line"/>
      <point x="380" y="605" type="line"/>
      <point x="159" y="605" type="line"/>
    </contour>
  </outline>
</glyph>
<glyph name="Edotaccent" format="2">
  <advance width="441"/>
  <unicode hex="0116"/>
  <outline>
    <contour>
      <point x="1" y="0" type="line"/>
      <point x="332" y="0" type="line"/>
      <point x="335" y="19" type="line"/>
      <point x="23" y="19" type="line"/>
      <point x="89" y="393" type="line"/>
      <point x="310" y="393" type="line"/>
      <point x="319" y="411" type="line"/>
      <point x="92" y="411" type="line"/>
      <point x="139" y="679" type="line"/>
      <point x="453" y="679" type="line"/>
      <point x="457" y="698" type="line"/>
      <point x="124" y="698" type="line"/>
    </contour>
    <contour>
      <point x="323" y="820" type="curve" smooth="yes"/>
      <point x="314" y="820"/>
      <point x="306" y="812"/>
      <point x="304" y="802" type="curve" smooth="yes"/>
      <point x="302" y="793"/>
      <point x="308" y="785"/>
      <point x="317" y="785" type="curve" smooth="yes"/>
      <point x="327" y="785"/>
      <point x="336" y="793"/>
      <point x="338" y="802" type="curve" smooth="yes"/>
      <point x="340" y="812"/>
      <point x="333" y="820"/>
    </contour>
  </outline>
</glyph>
<glyph name="Eogonek" format="2">
  <advance width="443"/>
  <unicode hex="0118"/>
  <outline>
    <contour>
      <point x="1" y="0" type="line"/>
      <point x="332" y="0" type="line"/>
      <point x="335" y="19" type="line"/>
      <point x="23" y="19" type="line"/>
      <point x="89" y="393" type="line"/>
      <point x="310" y="393" type="line"/>
      <point x="319" y="411" type="line"/>
      <point x="92" y="411" type="line"/>
      <point x="139" y="679" type="line"/>
      <point x="453" y="679" type="line"/>
      <point x="457" y="698" type="line"/>
      <point x="124" y="698" type="line"/>
    </contour>
    <contour>
      <point x="231" y="-127" type="curve" smooth="yes"/>
      <point x="326" y="-1" type="line"/>
      <point x="328" y="8" type="line"/>
      <point x="311" y="7" type="line"/>
      <point x="310" y="0" type="line"/>
      <point x="218" y="-118" type="line" smooth="yes"/>
      <point x="170" y="-180"/>
      <point x="205" y="-242"/>
      <point x="280" y="-230" type="curve" smooth="yes"/>
      <point x="293" y="-228"/>
      <point x="375" y="-201"/>
      <point x="375" y="-201" type="curve"/>
      <point x="372" y="-182" type="line"/>
      <point x="372" y="-182"/>
      <point x="332" y="-196"/>
      <point x="296" y="-207" type="curve" smooth="yes"/>
      <point x="227" y="-229"/>
      <point x="191" y="-180"/>
    </contour>
  </outline>
</glyph>
<glyph name="Ecaron" format="2">
  <advance width="441"/>
  <unicode hex="011A"/>
  <outline>
    <contour>
      <point x="1" y="0" type="line"/>
      <point x="332" y="0" type="line"/>
      <point x="335" y="19" type="line"/>
      <point x="23" y="19" type="line"/>
      <point x="89" y="393" type="line"/>
      <point x="310" y="393" type="line"/>
      <point x="319" y="411" type="line"/>
      <point x="92" y="411" type="line"/>
      <point x="139" y="679" type="line"/>
      <point x="453" y="679" type="line"/>
      <point x="457" y="698" type="line"/>
      <point x="124" y="698" type="line"/>
    </contour>
    <contour>
      <point x="300" y="774" type="line"/>
      <point x="213" y="879" type="line"/>
      <point x="196" y="864" type="line"/>
      <point x="295" y="746" type="line"/>
      <point x="438" y="864" type="line"/>
      <point x="426" y="878" type="line"/>
    </contour>
  </outline>
</glyph>
<glyph name="Gcircumflex" format="2">
  <advance width="462"/>
  <unicode hex="011C"/>
  <outline>
    <contour>
      <point x="425" y="657" type="curve"/>
      <point x="435" y="674" type="line"/>
      <point x="396" y="696"/>
      <point x="349" y="707"/>
      <point x="299" y="707" type="curve" smooth="yes"/>
      <point x="258" y="707"/>
      <point x="221" y="698"/>
      <point x="188" y="682" type="curve"/>
      <point x="125" y="647"/>
      <point x="84" y="586"/>
      <point x="69" y="502" type="curve" smooth="yes"/>
      <point x="14" y="188" type="line" smooth="yes"/>
      <point x="2" y="122"/>
      <point x="13" y="73"/>
      <point x="50" y="40" type="curve" smooth="yes"/>
      <point x="85" y="7"/>
      <point x="131" y="-10"/>
      <point x="191" y="-10" type="curve" smooth="yes"/>
      <point x="280" y="-10"/>
      <point x="346" y="23"/>
      <point x="388" y="88" type="curve"/>
      <point x="373" y="0" type="line"/>
      <point x="392" y="0" type="line"/>
      <point x="444" y="299" type="line"/>
      <point x="242" y="299" type="line"/>
      <point x="247" y="280" type="line"/>
      <point x="422" y="280" type="line"/>
      <point x="405" y="182" type="line" smooth="yes"/>
      <point x="396" y="133"/>
      <point x="375" y="91"/>
      <point x="341" y="58" type="curve" smooth="yes"/>
      <point x="306" y="26"/>
      <point x="258" y="9"/>
      <point x="197" y="9" type="curve" smooth="yes"/>
      <point x="75" y="9"/>
      <point x="15" y="82"/>
      <point x="33" y="186" type="curve" smooth="yes"/>
      <point x="88" y="495" type="line" smooth="yes"/>
      <point x="100" y="564"/>
      <point x="131" y="617"/>
      <point x="162" y="645" type="curve"/>
      <point x="198" y="674"/>
      <point x="244" y="689"/>
      <point x="299" y="689" type="curve" smooth="yes"/>
      <point x="338" y="689"/>
      <point x="380" y="678"/>
    </contour>
    <contour>
      <point x="198" y="756" type="line"/>
      <point x="209" y="741" type="line"/>
      <point x="336" y="845" type="line"/>
      <point x="423" y="740" type="line"/>
      <point x="441" y="756" type="line"/>
      <point x="341" y="873" type="line"/>
    </contour>
  </outline>
</glyph>
<glyph name="gcircumflex" format="2">
  <advance width="447"/>
  <unicode hex="011D"/>
  <outline>
    <contour>
      <point x="343" y="-64" type="curve" smooth="yes"/>
      <point x="442" y="498" type="line"/>
      <point x="421" y="498" type="line"/>
      <point x="413" y="451" type="line"/>
      <point x="369" y="487"/>
      <point x="297" y="506"/>
      <point x="249" y="508" type="curve" smooth="yes"/>
      <point x="140" y="513"/>
      <point x="64" y="450"/>
      <point x="45" y="344" type="curve" smooth="yes"/>
      <point x="15" y="175" type="line" smooth="yes"/>
      <point x="-6" y="53"/>
      <point x="46" y="-12"/>
      <point x="157" y="-12" type="curve" smooth="yes"/>
      <point x="217" y="-12"/>
      <point x="314" y="22"/>
      <point x="348" y="80" type="curve"/>
      <point x="322" y="-63" type="line" smooth="yes"/>
      <point x="305" y="-163"/>
      <point x="239" y="-180"/>
      <point x="205" y="-193" type="curve"/>
      <point x="209" y="-210" type="line"/>
      <point x="290" y="-186"/>
      <point x="329" y="-144"/>
    </contour>
    <contour>
      <point x="409" y="426" type="curve"/>
      <point x="359" y="147" type="line" smooth="yes"/>
      <point x="342" y="50"/>
      <point x="234" y="2"/>
      <point x="147" y="8" type="curve" smooth="yes"/>
      <point x="61" y="12"/>
      <point x="16" y="67"/>
      <point x="34" y="168" type="curve" smooth="yes"/>
      <point x="66" y="346" type="line" smooth="yes"/>
      <point x="84" y="450"/>
      <point x="158" y="486"/>
      <point x="232" y="488" type="curve" smooth="yes"/>
      <point x="287" y="491"/>
      <point x="373" y="470"/>
    </contour>
    <contour>
      <point x="154" y="562" type="line"/>
      <point x="167" y="548" type="line"/>
      <point x="293" y="652" type="line"/>
      <point x="379" y="548" type="line"/>
      <point x="397" y="563" type="line"/>
      <point x="299" y="681" type="line"/>
    </contour>
  </outline>
</glyph>
<glyph name="Gbreve" format="2">
  <advance width="469"/>
  <unicode hex="011E"/>
  <outline>
    <contour>
      <point x="425" y="657" type="curve"/>
      <point x="435" y="674" type="line"/>
      <point x="396" y="696"/>
      <point x="349" y="707"/>
      <point x="299" y="707" type="curve" smooth="yes"/>
      <point x="258" y="707"/>
      <point x="221" y="698"/>
      <point x="188" y="682" type="curve"/>
      <point x="125" y="647"/>
      <point x="84" y="586"/>
      <point x="69" y="502" type="curve" smooth="yes"/>
      <point x="14" y="188" type="line" smooth="yes"/>
      <point x="2" y="122"/>
      <point x="13" y="73"/>
      <point x="50" y="40" type="curve" smooth="yes"/>
      <point x="85" y="7"/>
      <point x="131" y="-10"/>
      <point x="191" y="-10" type="curve" smooth="yes"/>
      <point x="280" y="-10"/>
      <point x="346" y="23"/>
      <point x="388" y="88" type="curve"/>
      <point x="373" y="0" type="line"/>
      <point x="392" y="0" type="line"/>
      <point x="444" y="299" type="line"/>
      <point x="242" y="299" type="line"/>
      <point x="247" y="280" type="line"/>
      <point x="422" y="280" type="line"/>
      <point x="405" y="182" type="line" smooth="yes"/>
      <point x="396" y="133"/>
      <point x="375" y="91"/>
      <point x="341" y="58" type="curve" smooth="yes"/>
      <point x="306" y="26"/>
      <point x="258" y="9"/>
      <point x="197" y="9" type="curve" smooth="yes"/>
      <point x="75" y="9"/>
      <point x="15" y="82"/>
      <point x="33" y="186" type="curve" smooth="yes"/>
      <point x="88" y="495" type="line" smooth="yes"/>
      <point x="100" y="564"/>
      <point x="131" y="617"/>
      <point x="162" y="645" type="curve"/>
      <point x="198" y="674"/>
      <point x="244" y="689"/>
      <point x="299" y="689" type="curve" smooth="yes"/>
      <point x="338" y="689"/>
      <point x="380" y="678"/>
    </contour>
    <contour>
      <point x="456" y="854" type="curve" smooth="yes"/>
      <point x="457" y="860" type="line"/>
      <point x="435" y="860" type="line"/>
      <point x="434" y="854" type="line" smooth="yes"/>
      <point x="425" y="803"/>
      <point x="377" y="762"/>
      <point x="327" y="762" type="curve" smooth="yes"/>
      <point x="277" y="762"/>
      <point x="242" y="803"/>
      <point x="251" y="854" type="curve" smooth="yes"/>
      <point x="252" y="860" type="line"/>
      <point x="230" y="860" type="line"/>
      <point x="229" y="854" type="line" smooth="yes"/>
      <point x="218" y="791"/>
      <point x="260" y="740"/>
      <point x="323" y="740" type="curve" smooth="yes"/>
      <point x="385" y="740"/>
      <point x="445" y="791"/>
    </contour>
  </outline>
</glyph>
<glyph name="gdotaccent" format="2">
  <advance width="446"/>
  <unicode hex="0121"/>
  <outline>
    <contour>
      <point x="342" y="-64" type="curve" smooth="yes"/>
      <point x="441" y="498" type="line"/>
      <point x="420" y="498" type="line"/>
      <point x="412" y="451" type="line"/>
      <point x="368" y="487"/>
      <point x="296" y="506"/>
      <point x="248" y="508" type="curve" smooth="yes"/>
      <point x="139" y="513"/>
      <point x="63" y="450"/>
      <point x="44" y="344" type="curve" smooth="yes"/>
      <point x="14" y="175" type="line" smooth="yes"/>
      <point x="-7" y="53"/>
      <point x="45" y="-12"/>
      <point x="156" y="-12" type="curve" smooth="yes"/>
      <point x="216" y="-12"/>
      <point x="312" y="22"/>
      <point x="347" y="80" type="curve"/>
      <point x="321" y="-63" type="line" smooth="yes"/>
      <point x="304" y="-163"/>
      <point x="238" y="-180"/>
      <point x="204" y="-193" type="curve"/>
      <point x="208" y="-210" type="line"/>
      <point x="289" y="-186"/>
      <point x="328" y="-144"/>
    </contour>
    <contour>
      <point x="408" y="426" type="curve"/>
      <point x="358" y="147" type="line" smooth="yes"/>
      <point x="341" y="50"/>
      <point x="232" y="2"/>
      <point x="145" y="8" type="curve" smooth="yes"/>
      <point x="60" y="12"/>
      <point x="15" y="67"/>
      <point x="33" y="168" type="curve" smooth="yes"/>
      <point x="65" y="346" type="line" smooth="yes"/>
      <point x="83" y="450"/>
      <point x="157" y="486"/>
      <point x="230" y="488" type="curve" smooth="yes"/>
      <point x="286" y="491"/>
      <point x="372" y="470"/>
    </contour>
    <contour>
      <point x="278" y="621" type="curve" smooth="yes"/>
      <point x="268" y="621"/>
      <point x="259" y="614"/>
      <point x="257" y="604" type="curve" smooth="yes"/>
      <point x="255" y="595"/>
      <point x="262" y="587"/>
      <point x="272" y="587" type="curve" smooth="yes"/>
      <point x="281" y="587"/>
      <point x="289" y="595"/>
      <point x="291" y="604" type="curve" smooth="yes"/>
      <point x="293" y="614"/>
      <point x="287" y="621"/>
    </contour>
  </outline>
</glyph>
<glyph name="gcommaaccent" format="2">
  <advance width="446"/>
  <unicode hex="0123"/>
  <outline>
    <contour>
      <point x="342" y="-64" type="curve" smooth="yes"/>
      <point x="441" y="498" type="line"/>
      <point x="420" y="498" type="line"/>
      <point x="412" y="451" type="line"/>
      <point x="368" y="487"/>
      <point x="296" y="506"/>
      <point x="248" y="508" type="curve" smooth="yes"/>
      <point x="139" y="513"/>
      <point x="63" y="450"/>
      <point x="44" y="344" type="curve" smooth="yes"/>
      <point x="14" y="175" type="line" smooth="yes"/>
      <point x="-7" y="53"/>
      <point x="45" y="-12"/>
      <point x="156" y="-12" type="curve" smooth="yes"/>
      <point x="216" y="-12"/>
      <point x="312" y="22"/>
      <point x="347" y="80" type="curve"/>
      <point x="321" y="-63" type="line" smooth="yes"/>
      <point x="304" y="-163"/>
      <point x="238" y="-180"/>
      <point x="204" y="-193" type="curve"/>
      <point x="208" y="-210" type="line"/>
      <point x="289" y="-186"/>
      <point x="328" y="-144"/>
    </contour>
    <contour>
      <point x="408" y="426" type="curve"/>
      <point x="358" y="147" type="line" smooth="yes"/>
      <point x="341" y="50"/>
      <point x="232" y="2"/>
      <point x="145" y="8" type="curve" smooth="yes"/>
      <point x="60" y="12"/>
      <point x="15" y="67"/>
      <point x="33" y="168" type="curve" smooth="yes"/>
      <point x="65" y="346" type="line" smooth="yes"/>
      <point x="83" y="450"/>
      <point x="157" y="486"/>
      <point x="230" y="488" type="curve" smooth="yes"/>
      <point x="286" y="491"/>
      <point x="372" y="470"/>
    </contour>
    <contour>
      <point x="321" y="679" type="curve"/>
      <point x="313" y="685" type="line"/>
      <point x="313" y="685"/>
      <point x="270" y="661"/>
      <point x="261" y="608" type="curve" smooth="yes"/>
      <point x="259" y="598"/>
      <point x="265" y="592"/>
      <point x="275" y="592" type="curve" smooth="yes"/>
      <point x="284" y="592"/>
      <point x="292" y="598"/>
      <point x="294" y="608" type="curve"/>
      <point x="295" y="616"/>
      <point x="292" y="621"/>
      <point x="286" y="624" type="curve"/>
      <point x="290" y="639"/>
      <point x="299" y="660"/>
    </contour>
  </outline>
</glyph>
<glyph name="Hcircumflex" format="2">
  <advance width="550"/>
  <unicode hex="0124"/>
  <outline>
    <contour>
      <point x="483" y="411" type="line"/>
      <point x="92" y="411" type="line"/>
      <point x="143" y="698" type="line"/>
      <point x="124" y="698" type="line"/>
      <point x="1" y="0" type="line"/>
      <point x="20" y="0" type="line"/>
      <point x="89" y="393" type="line"/>
      <point x="480" y="393" type="line"/>
      <point x="411" y="0" type="line"/>
      <point x="430" y="0" type="line"/>
      <point x="553" y="698" type="line"/>
      <point x="534" y="698" type="line"/>
    </contour>
    <contour>
      <point x="226" y="755" type="line"/>
      <point x="238" y="740" type="line"/>
      <point x="365" y="844" type="line"/>
      <point x="451" y="740" type="line"/>
      <point x="469" y="755" type="line"/>
      <point x="370" y="873" type="line"/>
    </contour>
  </outline>
</glyph>
<glyph name="hbar" format="1">
  <advance width="462"/>
  <unicode hex="0127"/>
  <outline>
    <contour>
      <point x="300" y="595" type="line"/>
      <point x="304" y="615" type="line"/>
      <point x="69" y="615" type="line"/>
      <point x="65" y="595" type="line"/>
    </contour>
    <component base="h"/>
  </outline>
</glyph>
<glyph name="Itilde" format="2">
  <advance width="241"/>
  <unicode hex="0128"/>
  <outline>
    <contour>
      <point x="48" y="679" type="line"/>
      <point x="134" y="676" type="line"/>
      <point x="15" y="0" type="line"/>
      <point x="34" y="0" type="line"/>
      <point x="157" y="698" type="line"/>
      <point x="52" y="698" type="line"/>
    </contour>
    <contour>
      <point x="277" y="783" type="curve"/>
      <point x="272" y="801" type="line"/>
      <point x="245" y="783"/>
      <point x="229" y="779"/>
      <point x="218" y="778" type="curve"/>
      <point x="184" y="778"/>
      <point x="151" y="811"/>
      <point x="108" y="810" type="curve" smooth="yes"/>
      <point x="88" y="810"/>
      <point x="66" y="802"/>
      <point x="41" y="781" type="curve"/>
      <point x="49" y="762" type="line"/>
      <point x="55" y="769"/>
      <point x="76" y="788"/>
      <point x="101" y="788" type="curve" smooth="yes"/>
      <point x="141" y="789"/>
      <point x="171" y="756"/>
      <point x="213" y="757" type="curve" smooth="yes"/>
      <point x="232" y="757"/>
      <point x="252" y="763"/>
    </contour>
  </outline>
</glyph>
<glyph name="itilde" format="2">
  <advance width="241"/>
  <unicode hex="0129"/>
  <outline>
    <contour>
      <point x="25" y="0" type="line"/>
      <point x="44" y="0" type="line"/>
      <point x="131" y="499" type="line"/>
      <point x="112" y="499" type="line"/>
    </contour>
    <contour>
      <point x="256" y="585" type="curve"/>
      <point x="250" y="603" type="line"/>
      <point x="223" y="584"/>
      <point x="207" y="580"/>
      <point x="196" y="580" type="curve" smooth="yes"/>
      <point x="162" y="579"/>
      <point x="129" y="612"/>
      <point x="86" y="612" type="curve"/>
      <point x="65" y="610"/>
      <point x="43" y="604"/>
      <point x="19" y="582" type="curve"/>
      <point x="27" y="564" type="line"/>
      <point x="34" y="570"/>
      <point x="54" y="588"/>
      <point x="81" y="590" type="curve"/>
      <point x="119" y="590"/>
      <point x="149" y="558"/>
      <point x="190" y="558" type="curve"/>
      <point x="209" y="559"/>
      <point x="230" y="564"/>
    </contour>
  </outline>
</glyph>
<glyph name="Imacron" format="2">
  <advance width="237"/>
  <unicode hex="012A"/>
  <outline>
    <contour>
      <point x="48" y="679" type="line"/>
      <point x="134" y="676" type="line"/>
      <point x="15" y="0" type="line"/>
      <point x="33" y="0" type="line"/>
      <point x="156" y="698" type="line"/>
      <point x="52" y="698" type="line"/>
    </contour>
    <contour>
      <point x="50" y="779" type="line"/>
      <point x="270" y="779" type="line"/>
      <point x="273" y="799" type="line"/>
      <point x="53" y="799" type="line"/>
    </contour>
  </outline>
</glyph>
<glyph name="imacron" format="2">
  <advance width="228"/>
  <unicode hex="012B"/>
  <outline>
    <contour>
      <point x="19" y="0" type="line"/>
      <point x="39" y="0" type="line"/>
      <point x="126" y="499" type="line"/>
      <point x="106" y="499" type="line"/>
    </contour>
    <contour>
      <point x="21" y="583" type="line"/>
      <point x="241" y="583" type="line"/>
      <point x="245" y="602" type="line"/>
      <point x="25" y="602" type="line"/>
    </contour>
  </outline>
</glyph>
<glyph name="Iogonek" format="2">
  <advance width="237"/>
  <unicode hex="012E"/>
  <outline>
    <contour>
      <point x="130" y="679" type="line"/>
      <point x="216" y="676" type="line"/>
      <point x="97" y="0" type="line"/>
      <point x="115" y="0" type="line"/>
      <point x="238" y="698" type="line"/>
      <point x="134" y="698" type="line"/>
    </contour>
    <contour>
      <point x="18" y="-128" type="curve" smooth="yes"/>
      <point x="113" y="-2" type="line"/>
      <point x="115" y="7" type="line"/>
      <point x="98" y="5" type="line"/>
      <point x="97" y="-1" type="line"/>
      <point x="4" y="-119" type="line" smooth="yes"/>
      <point x="-42" y="-182"/>
      <point x="-7" y="-243"/>
      <point x="67" y="-231" type="curve" smooth="yes"/>
      <point x="80" y="-229"/>
      <point x="163" y="-202"/>
      <point x="163" y="-202" type="curve"/>
      <point x="158" y="-183" type="line"/>
      <point x="158" y="-183"/>
      <point x="119" y="-197"/>
      <point x="84" y="-208" type="curve" smooth="yes"/>
      <point x="14" y="-230"/>
      <point x="-22" y="-183"/>
    </contour>
  </outline>
</glyph>
<glyph name="iogonek" format="2">
  <advance width="239"/>
  <unicode hex="012F"/>
  <outline>
    <contour>
      <point x="92" y="0" type="line"/>
      <point x="110" y="0" type="line"/>
      <point x="197" y="499" type="line"/>
      <point x="179" y="499" type="line"/>
    </contour>
    <contour>
      <point x="240" y="692" type="curve"/>
      <point x="241" y="701"/>
      <point x="234" y="708"/>
      <point x="225" y="708" type="curve" smooth="yes"/>
      <point x="216" y="708"/>
      <point x="207" y="701"/>
      <point x="206" y="692" type="curve"/>
      <point x="204" y="682"/>
      <point x="210" y="674"/>
      <point x="219" y="674" type="curve" smooth="yes"/>
      <point x="228" y="674"/>
      <point x="238" y="682"/>
    </contour>
    <contour>
      <point x="13" y="-130" type="curve" smooth="yes"/>
      <point x="108" y="-4" type="line"/>
      <point x="109" y="4" type="line"/>
      <point x="93" y="3" type="line"/>
      <point x="92" y="-3" type="line"/>
      <point x="-1" y="-121" type="line" smooth="yes"/>
      <point x="-47" y="-184"/>
      <point x="-13" y="-245"/>
      <point x="61" y="-233" type="curve" smooth="yes"/>
      <point x="75" y="-231"/>
      <point x="157" y="-205"/>
      <point x="157" y="-205" type="curve"/>
      <point x="153" y="-185" type="line"/>
      <point x="153" y="-185"/>
      <point x="114" y="-198"/>
      <point x="78" y="-210" type="curve" smooth="yes"/>
      <point x="9" y="-231"/>
      <point x="-27" y="-184"/>
    </contour>
  </outline>
</glyph>
<glyph name="Idotaccent" format="2">
  <advance width="168"/>
  <unicode hex="0130"/>
  <outline>
    <contour>
      <point x="47" y="679" type="line"/>
      <point x="133" y="676" type="line"/>
      <point x="14" y="0" type="line"/>
      <point x="32" y="0" type="line"/>
      <point x="155" y="698" type="line"/>
      <point x="51" y="698" type="line"/>
    </contour>
    <contour>
      <point x="169" y="817" type="curve" smooth="yes"/>
      <point x="159" y="817"/>
      <point x="149" y="810"/>
      <point x="148" y="800" type="curve"/>
      <point x="146" y="791"/>
      <point x="153" y="783"/>
      <point x="163" y="783" type="curve" smooth="yes"/>
      <point x="171" y="783"/>
      <point x="180" y="791"/>
      <point x="182" y="800" type="curve"/>
      <point x="183" y="810"/>
      <point x="177" y="817"/>
    </contour>
  </outline>
</glyph>
<glyph name="dotlessi" format="2">
  <advance width="115"/>
  <unicode hex="0131"/>
  <outline>
    <contour>
      <point x="1" y="0" type="line"/>
      <point x="19" y="0" type="line"/>
      <point x="106" y="499" type="line"/>
      <point x="88" y="499" type="line"/>
    </contour>
  </outline>
</glyph>
